<svg width="444" height="768" viewBox="0 0 444 768" fill="none" xmlns="http://www.w3.org/2000/svg">
<rect x="282.971" y="311" width="210" height="420" transform="rotate(40 282.971 311)" fill="#00C2FF"/>
<rect x="282.971" y="311" width="210" height="420" transform="rotate(40 282.971 311)" fill="#00C2FF"/>
<rect x="282.971" y="311" width="210" height="420" transform="rotate(40 282.971 311)" fill="#00C2FF"/>
<rect x="282.971" y="311" width="210" height="420" transform="rotate(40 282.971 311)" fill="#00C2FF"/>
<path d="M269.971 0L430.84 134.985L160.869 456.724L-0.000103712 321.739L269.971 0Z" fill="#00C2FF"/>
<path d="M269.971 0L430.84 134.985L160.869 456.724L-0.000103712 321.739L269.971 0Z" fill="#00C2FF"/>
<path d="M269.971 0L430.84 134.985L160.869 456.724L-0.000103712 321.739L269.971 0Z" fill="#00C2FF"/>
<path d="M269.971 0L430.84 134.985L160.869 456.724L-0.000103712 321.739L269.971 0Z" fill="#0799C7"/>
</svg>
