<svg width="20" height="20" viewBox="0 0 20 20" fill="none" xmlns="http://www.w3.org/2000/svg">
<path fill-rule="evenodd" clip-rule="evenodd" d="M0 7.13228C0 6.42975 0.368598 5.77874 0.971008 5.41729L8.97101 0.61729C9.60437 0.237271 10.3956 0.237271 11.029 0.617289L19.029 5.41729C19.6314 5.77874 20 6.42975 20 7.13228V17.9999C20 19.1045 19.1046 19.9999 18 19.9999H2C0.895431 19.9999 0 19.1045 0 17.9999V7.13228ZM18 7.86841V17.9999H2V7.86842L10 13.2017L18 7.86841ZM16.6835 6.34238L10 2.33228L3.31649 6.34238L10 10.798L16.6835 6.34238Z" fill="white"/>
</svg>
