<svg width="709" height="1685" viewBox="0 0 709 1685" fill="none" xmlns="http://www.w3.org/2000/svg">
<g filter="url(#filter0_d_105_2)">
<path d="M698 1676.53H10.5L10.5 1540.59H285.891L10.5 1476.53L10.5 1338.25L325.344 1415.2L698 1322.23V1464.81L365.188 1539.81H698V1676.53ZM698 1304.66H10.5V1171.84H698L698 1304.66ZM698 1117.16H10.5L10.5 975.75L339.797 912.469L10.5 912.469L10.5 779.656L698 779.656V914.031L354.25 982.781H698V1117.16ZM698 718.719L10.5 718.719L10.5 529.656C10.5 480.177 24.3021 442.938 51.9063 417.938C79.25 392.938 119.354 380.438 172.219 380.438H494.094C559.198 380.438 609.458 391.896 644.875 414.812C680.292 437.469 698 477.312 698 534.344V718.719ZM576.516 580.438V556.609C576.516 531.349 564.276 518.719 539.797 518.719H185.109C162.193 518.719 147.479 521.844 140.969 528.094C134.198 534.083 130.813 546.453 130.813 565.203V580.438H576.516ZM704.25 160.906C704.25 223.667 688.625 268.979 657.375 296.844C626.125 324.448 576.385 338.25 508.156 338.25H440.969L440.969 202.312H526.906C542.792 202.312 555.292 199.969 564.406 195.281C573.26 190.333 577.688 181.87 577.688 169.891C577.688 157.391 574.042 148.797 566.75 144.109C559.458 139.161 547.479 136.688 530.813 136.688C509.719 136.688 492.141 138.771 478.078 142.938C463.755 147.104 450.214 154.396 437.453 164.812C424.432 174.969 409.328 189.161 392.141 207.391L333.547 269.109C290.057 315.203 240.318 338.25 184.328 338.25C125.734 338.25 81.0729 324.708 50.3438 297.625C19.6146 270.281 4.25 230.828 4.25 179.266C4.25 116.245 21.0469 71.5833 54.6406 45.2812C88.2344 18.7188 139.276 5.4375 207.766 5.4375L207.766 145.281H160.5C151.125 145.281 143.833 148.016 138.625 153.484C133.417 158.693 130.813 165.854 130.813 174.969C130.813 185.906 133.938 193.979 140.188 199.188C146.177 204.135 153.99 206.609 163.625 206.609C173.26 206.609 183.677 204.005 194.875 198.797C206.073 193.589 218.964 183.302 233.547 167.938L309.719 88.6406C324.823 72.7552 340.839 58.1719 357.766 44.8906C374.432 31.6094 393.964 20.9323 416.359 12.8594C438.495 4.78646 465.578 0.75 497.609 0.75C562.193 0.75 612.844 12.7292 649.563 36.6875C686.021 60.3854 704.25 101.792 704.25 160.906Z" fill="#000060"/>
</g>
<defs>
<filter id="filter0_d_105_2" x="0.25" y="0.75" width="708" height="1683.78" filterUnits="userSpaceOnUse" color-interpolation-filters="sRGB">
<feFlood flood-opacity="0" result="BackgroundImageFix"/>
<feColorMatrix in="SourceAlpha" type="matrix" values="0 0 0 0 0 0 0 0 0 0 0 0 0 0 0 0 0 0 127 0" result="hardAlpha"/>
<feOffset dy="4"/>
<feGaussianBlur stdDeviation="2"/>
<feComposite in2="hardAlpha" operator="out"/>
<feColorMatrix type="matrix" values="0 0 0 0 0 0 0 0 0 0 0 0 0 0 0 0 0 0 0.25 0"/>
<feBlend mode="normal" in2="BackgroundImageFix" result="effect1_dropShadow_105_2"/>
<feBlend mode="normal" in="SourceGraphic" in2="effect1_dropShadow_105_2" result="shape"/>
</filter>
</defs>
</svg>
