<svg width="7003" height="1534" viewBox="0 0 7003 1534" fill="none" xmlns="http://www.w3.org/2000/svg">
<rect width="419.37" height="838.878" transform="matrix(0.765743 0.643146 -0.642429 0.766345 564.87 621.413)" fill="#00C2FF"/>
<rect width="419.37" height="838.878" transform="matrix(0.765743 0.643146 -0.642429 0.766345 564.87 621.413)" fill="#00C2FF"/>
<rect width="419.37" height="838.878" transform="matrix(0.765743 0.643146 -0.642429 0.766345 564.87 621.413)" fill="#00C2FF"/>
<rect width="419.37" height="838.878" transform="matrix(0.765743 0.643146 -0.642429 0.766345 564.87 621.413)" fill="#00C2FF"/>
<path d="M538.919 0L860.049 269.716L321.13 912.587L-0.000113082 642.87L538.919 0Z" fill="#00C2FF"/>
<path d="M538.919 0L860.049 269.716L321.13 912.587L-0.000113082 642.87L538.919 0Z" fill="#00C2FF"/>
<path d="M538.919 0L860.049 269.716L321.13 912.587L-0.000113082 642.87L538.919 0Z" fill="#00C2FF"/>
<path d="M538.919 0L860.049 269.716L321.13 912.587L-0.000113082 642.87L538.919 0Z" fill="#0799C7"/>
<path d="M559.109 1327.59C490.717 1327.59 435.574 1306.29 393.68 1263.68C352.143 1221.07 331.375 1161.45 331.375 1084.82V648.688C331.375 557.021 349.458 486.839 385.623 438.141C422.146 389.443 481.408 365.094 563.406 365.094C608.165 365.094 647.911 373.329 682.645 389.801C717.736 406.272 745.307 430.979 765.359 463.922C785.411 496.507 795.438 537.685 795.438 587.457V750.738H607.449V611.09C607.449 582.802 603.868 563.824 596.707 554.156C589.546 544.13 578.445 539.117 563.406 539.117C545.861 539.117 534.044 545.562 527.957 558.453C521.87 570.986 518.826 587.815 518.826 608.941V1082.13C518.826 1108.27 522.586 1126.71 530.105 1137.46C537.983 1148.2 549.083 1153.57 563.406 1153.57C579.52 1153.57 590.799 1146.95 597.244 1133.7C604.048 1120.45 607.449 1103.26 607.449 1082.13V911.871H797.586V1090.73C797.586 1173.8 776.639 1234.14 734.744 1271.73C692.85 1308.97 634.305 1327.59 559.109 1327.59ZM953.369 1319V1008.01L802.441 373.688H989.893L1042.53 693.805L1095.17 373.688H1282.08L1131.69 1008.01V1319H953.369ZM1307.88 1319V373.688H1564.08C1632.83 373.688 1682.79 390.517 1713.94 424.176C1745.45 457.477 1761.2 512.62 1761.2 589.605V630.963C1761.2 675.364 1753.15 711.35 1737.03 738.922C1721.28 766.493 1697.11 784.576 1664.52 793.17C1707.13 803.912 1735.6 829.156 1749.92 868.902C1764.6 908.29 1771.95 956.451 1771.95 1013.38C1771.95 1074.62 1766.22 1128.15 1754.76 1173.98C1743.3 1219.81 1722.53 1255.44 1692.45 1280.87C1662.38 1306.29 1619.59 1319 1564.08 1319H1307.88ZM1492.65 729.791H1531.32C1548.87 729.791 1560.15 722.988 1565.16 709.381C1570.17 695.774 1572.68 679.482 1572.68 660.504V565.436C1572.68 534.999 1559.25 519.781 1532.39 519.781H1492.65V729.791ZM1511.45 1152.5C1560.5 1152.5 1585.03 1129.22 1585.03 1082.67V964.508C1585.03 937.652 1580.91 916.526 1572.68 901.129C1564.8 885.374 1549.76 877.496 1527.56 877.496H1492.65V1151.42C1500.53 1152.14 1506.79 1152.5 1511.45 1152.5ZM1812.25 1319V373.688H2190.38V556.305H2004.54V740.533H2182.86V918.316H2004.54V1134.77H2202.73V1319H1812.25ZM2243.57 1319V373.688H2533.61C2581.95 373.688 2618.47 384.788 2643.18 406.988C2667.89 428.831 2684.36 459.625 2692.59 499.371C2701.19 538.759 2705.48 585.13 2705.48 638.482C2705.48 690.045 2698.86 731.223 2685.61 762.018C2672.72 792.812 2648.19 814.117 2612.03 825.934C2641.75 832.021 2662.52 846.881 2674.33 870.514C2686.51 893.788 2692.59 924.046 2692.59 961.285V1319H2506.22V948.932C2506.22 921.36 2500.49 904.352 2489.03 897.906C2477.93 891.103 2459.85 887.701 2434.78 887.701V1319H2243.57ZM2435.86 723.883H2481.51C2507.65 723.883 2520.72 695.416 2520.72 638.482C2520.72 601.601 2517.85 577.431 2512.12 565.973C2506.4 554.514 2495.65 548.785 2479.9 548.785H2435.86V723.883ZM3206.11 1327.59C3119.82 1327.59 3057.51 1306.11 3019.2 1263.14C2981.24 1220.17 2962.27 1151.78 2962.27 1057.96V965.582H3149.18V1083.75C3149.18 1105.59 3152.4 1122.78 3158.85 1135.31C3165.65 1147.48 3177.29 1153.57 3193.76 1153.57C3210.95 1153.57 3222.76 1148.56 3229.21 1138.53C3236.01 1128.51 3239.41 1112.03 3239.41 1089.12C3239.41 1060.11 3236.55 1035.94 3230.82 1016.61C3225.09 996.913 3215.07 978.294 3200.74 960.748C3186.78 942.844 3167.26 922.076 3142.2 898.443L3057.33 817.877C2993.96 758.079 2962.27 689.687 2962.27 612.701C2962.27 532.135 2980.89 470.725 3018.12 428.473C3055.72 386.22 3109.97 365.094 3180.87 365.094C3267.52 365.094 3328.93 388.189 3365.1 434.381C3401.62 480.572 3419.88 550.755 3419.88 644.928H3227.6V579.938C3227.6 567.047 3223.84 557.021 3216.32 549.859C3209.16 542.698 3199.31 539.117 3186.78 539.117C3171.74 539.117 3160.64 543.414 3153.48 552.008C3146.67 560.243 3143.27 570.986 3143.27 584.234C3143.27 597.483 3146.85 611.806 3154.01 627.203C3161.18 642.6 3175.32 660.325 3196.45 680.377L3305.48 785.113C3327.32 805.882 3347.37 827.903 3365.63 851.178C3383.9 874.094 3398.58 900.95 3409.68 931.744C3420.78 962.18 3426.33 999.42 3426.33 1043.46C3426.33 1132.26 3409.86 1201.91 3376.91 1252.4C3344.33 1302.53 3287.4 1327.59 3206.11 1327.59ZM3686.31 1327.59C3607.53 1327.59 3549.53 1305.57 3512.29 1261.53C3475.05 1217.13 3456.43 1151.96 3456.43 1066.02V373.688H3640.12V1058.5C3640.12 1074.26 3641.01 1089.48 3642.8 1104.16C3644.6 1118.48 3648.71 1130.3 3655.16 1139.61C3661.6 1148.92 3671.99 1153.57 3686.31 1153.57C3700.99 1153.57 3711.55 1149.09 3718 1140.14C3724.45 1130.83 3728.38 1118.84 3729.82 1104.16C3731.61 1089.48 3732.5 1074.26 3732.5 1058.5V373.688H3916.19V1066.02C3916.19 1151.96 3897.57 1217.13 3860.33 1261.53C3823.09 1305.57 3765.09 1327.59 3686.31 1327.59ZM3966.7 1319V373.688H4216.46C4268.74 373.688 4310.1 385.325 4340.53 408.6C4371.33 431.874 4393.35 464.996 4406.6 507.965C4419.84 550.934 4426.47 602.138 4426.47 661.578C4426.47 718.87 4420.92 768.821 4409.82 811.432C4398.72 853.684 4378.85 886.448 4350.2 909.723C4321.91 932.997 4281.63 944.635 4229.35 944.635H4152.54V1319H3966.7ZM4152.54 774.908H4163.29C4198.38 774.908 4219.86 765.061 4227.74 745.367C4235.62 725.673 4239.55 696.669 4239.55 658.355C4239.55 622.548 4235.62 594.977 4227.74 575.641C4220.22 555.947 4202.14 546.1 4173.49 546.1H4152.54V774.908ZM4464.62 1319V373.688H4714.38C4766.66 373.688 4808.02 385.325 4838.45 408.6C4869.25 431.874 4891.27 464.996 4904.52 507.965C4917.77 550.934 4924.39 602.138 4924.39 661.578C4924.39 718.87 4918.84 768.821 4907.74 811.432C4896.64 853.684 4876.77 886.448 4848.12 909.723C4819.83 932.997 4779.55 944.635 4727.27 944.635H4650.46V1319H4464.62ZM4650.46 774.908H4661.21C4696.3 774.908 4717.78 765.061 4725.66 745.367C4733.54 725.673 4737.48 696.669 4737.48 658.355C4737.48 622.548 4733.54 594.977 4725.66 575.641C4718.14 555.947 4700.06 546.1 4671.41 546.1H4650.46V774.908ZM4962.55 1319V373.688H5151.61V1157.87H5346.04V1319H4962.55ZM5457.78 1319V1008.01L5306.86 373.688H5494.31L5546.94 693.805L5599.58 373.688H5786.49L5636.1 1008.01V1319H5457.78Z" fill="white"/>
</svg>
