<svg width="25" height="25" viewBox="0 0 25 25" fill="none" xmlns="http://www.w3.org/2000/svg">
<path d="M23.4572 7.0075C22.6876 7.34885 21.8604 7.57954 20.9924 7.68327C21.8783 7.15213 22.5589 6.3111 22.8793 5.3089C22.05 5.80076 21.1316 6.1579 20.154 6.35032C19.3712 5.51624 18.2559 4.99512 17.0215 4.99512C14.6514 4.99512 12.7297 6.91659 12.7297 9.28667C12.7297 9.62302 12.7677 9.95058 12.8409 10.2647C9.27414 10.0857 6.1118 8.37715 3.99514 5.78063C3.6257 6.41447 3.41406 7.15168 3.41406 7.93821C3.41406 9.42716 4.17169 10.7407 5.32328 11.5104C4.61984 11.488 3.95801 11.295 3.37944 10.9736C3.37903 10.9915 3.37903 11.0094 3.37903 11.0275C3.37903 13.1069 4.85838 14.8414 6.82164 15.2357C6.46154 15.3338 6.08239 15.3863 5.69099 15.3863C5.41445 15.3863 5.1456 15.3593 4.88351 15.3093C5.42966 17.0142 7.01458 18.2551 8.89259 18.2896C7.42381 19.4408 5.57332 20.1269 3.56258 20.1269C3.21617 20.1269 2.87456 20.1065 2.53882 20.0668C4.43808 21.2845 6.69396 21.9951 9.11755 21.9951C17.0114 21.9951 21.3282 15.4556 21.3282 9.7843C21.3282 9.59826 21.324 9.41317 21.3157 9.22907C22.1543 8.62398 22.8819 7.86814 23.4572 7.0075Z" fill="white"/>
</svg>
