<svg width="451" height="760" viewBox="0 0 451 760" fill="none" xmlns="http://www.w3.org/2000/svg">
<rect x="289.311" y="302.485" width="210" height="420" transform="rotate(40 289.311 302.485)" fill="#00C2FF"/>
<rect x="289.311" y="302.485" width="210" height="420" transform="rotate(40 289.311 302.485)" fill="#00C2FF"/>
<rect x="289.311" y="302.485" width="210" height="420" transform="rotate(40 289.311 302.485)" fill="#00C2FF"/>
<rect x="289.311" y="302.485" width="210" height="420" transform="rotate(40 289.311 302.485)" fill="#FFF500"/>
<path d="M269.971 0L430.84 134.985L160.869 456.724L-0.000103712 321.739L269.971 0Z" fill="#00C2FF"/>
<path d="M269.971 0L430.84 134.985L160.869 456.724L-0.000103712 321.739L269.971 0Z" fill="#00C2FF"/>
<path d="M269.971 0L430.84 134.985L160.869 456.724L-0.000103712 321.739L269.971 0Z" fill="#00C2FF"/>
<path d="M269.971 0L430.84 134.985L160.869 456.724L-0.000103712 321.739L269.971 0Z" fill="#D0C800"/>
</svg>
