<svg width="1785" height="99" viewBox="0 0 1785 99" fill="none" xmlns="http://www.w3.org/2000/svg">
<path d="M0.517578 51.1934V52.2188C0.517578 56.0599 1.00586 59.6243 1.98242 62.9121C2.99154 66.1673 4.42383 68.9831 6.2793 71.3594C8.13477 73.7357 10.3646 75.6074 12.9688 76.9746C15.6055 78.3092 18.5677 78.9766 21.8555 78.9766C23.5156 78.9766 25.0618 78.7975 26.4941 78.4395C27.959 78.0814 29.2936 77.5768 30.498 76.9258C31.3118 76.4701 32.0768 75.9492 32.793 75.3633C33.5091 74.7773 34.1927 74.1263 34.8438 73.4102V76.4375C34.8438 78.2279 34.5833 79.8392 34.0625 81.2715C33.5742 82.7038 32.8581 83.9082 31.9141 84.8848C30.8724 85.959 29.5703 86.7728 28.0078 87.3262C26.4779 87.8796 24.7201 88.1562 22.7344 88.1562C21.4974 88.1562 20.293 88.026 19.1211 87.7656C17.9818 87.5378 16.875 87.1797 15.8008 86.6914C14.694 86.2031 13.6361 85.5684 12.627 84.7871C11.6178 84.0384 10.6738 83.1595 9.79492 82.1504L3.69141 90.4023C4.83073 91.8672 6.19792 93.1204 7.79297 94.1621C9.38802 95.2363 11.0807 96.1152 12.8711 96.7988C14.6615 97.4824 16.4681 97.987 18.291 98.3125C20.1139 98.638 21.8229 98.8008 23.418 98.8008C27.1289 98.8008 30.5143 98.2962 33.5742 97.2871C36.6667 96.3105 39.3197 94.862 41.5332 92.9414C43.7142 91.0208 45.4069 88.6608 46.6113 85.8613C47.8483 83.0618 48.4668 79.8717 48.4668 76.291V25.168H36.1133L35.5762 30.1973C34.9251 29.3835 34.209 28.651 33.4277 28C32.6465 27.3164 31.8001 26.7305 30.8887 26.2422C29.6842 25.5586 28.3333 25.054 26.8359 24.7285C25.3711 24.3704 23.7435 24.1914 21.9531 24.1914C18.6328 24.1914 15.6543 24.8424 13.0176 26.1445C10.3809 27.4466 8.13477 29.2858 6.2793 31.6621C4.42383 34.0384 2.99154 36.8867 1.98242 40.207C1.00586 43.5273 0.517578 47.1895 0.517578 51.1934ZM14.1406 52.2188V51.1934C14.1406 48.9798 14.3685 46.9128 14.8242 44.9922C15.2799 43.0391 15.9798 41.3301 16.9238 39.8652C17.8353 38.4329 18.9909 37.3099 20.3906 36.4961C21.7904 35.6497 23.4505 35.2266 25.3711 35.2266C26.4128 35.2266 27.373 35.3242 28.252 35.5195C29.1634 35.7148 29.9935 35.9915 30.7422 36.3496C31.6211 36.7728 32.4023 37.3262 33.0859 38.0098C33.7695 38.6934 34.3555 39.4909 34.8438 40.4023V62.7656C34.388 63.5794 33.8509 64.3118 33.2324 64.9629C32.6139 65.6139 31.8978 66.1673 31.084 66.623C30.3027 67.0462 29.4238 67.3717 28.4473 67.5996C27.5033 67.8275 26.4453 67.9414 25.2734 67.9414C23.3529 67.9414 21.6927 67.5345 20.293 66.7207C18.8932 65.9069 17.7376 64.7839 16.8262 63.3516C15.9147 61.9518 15.2311 60.3079 14.7754 58.4199C14.3522 56.4993 14.1406 54.4323 14.1406 52.2188ZM65.5566 25.168V36.252H80.5957V66.9648H65.5566V78H108.623V66.9648H94.3164V25.168H65.5566ZM79.6191 11.6426C79.6191 12.6842 79.7982 13.6608 80.1562 14.5723C80.5469 15.4512 81.084 16.1999 81.7676 16.8184C82.4512 17.4694 83.265 17.974 84.209 18.332C85.1855 18.6901 86.2598 18.8691 87.4316 18.8691C89.8405 18.8691 91.7448 18.2018 93.1445 16.8672C94.5768 15.5 95.293 13.7585 95.293 11.6426C95.293 9.52669 94.5768 7.80143 93.1445 6.4668C91.7448 5.09961 89.8405 4.41602 87.4316 4.41602C86.2598 4.41602 85.1855 4.59505 84.209 4.95312C83.265 5.3112 82.4512 5.79948 81.7676 6.41797C81.084 7.06901 80.5469 7.85026 80.1562 8.76172C79.7982 9.64062 79.6191 10.6009 79.6191 11.6426ZM146.904 12.2285H133.33V25.168H121.27V35.1777H133.33V59.2012C133.33 62.6842 133.786 65.679 134.697 68.1855C135.609 70.6595 136.911 72.694 138.604 74.2891C140.264 75.9167 142.266 77.1211 144.609 77.9023C146.986 78.651 149.622 79.0254 152.52 79.0254C154.017 79.0254 155.531 78.944 157.061 78.7812C158.623 78.651 160.12 78.4557 161.553 78.1953C162.985 77.9349 164.336 77.6094 165.605 77.2188C166.875 76.7956 167.982 76.3073 168.926 75.7539L167.607 66.4277C166.989 66.5905 166.24 66.7533 165.361 66.916C164.515 67.0788 163.604 67.2253 162.627 67.3555C161.618 67.5182 160.56 67.6484 159.453 67.7461C158.379 67.8438 157.321 67.8926 156.279 67.8926C154.847 67.8926 153.545 67.7298 152.373 67.4043C151.234 67.0788 150.257 66.5254 149.443 65.7441C148.63 64.9954 147.995 63.9863 147.539 62.7168C147.116 61.4147 146.904 59.8034 146.904 57.8828V35.1777H166.631V25.168H146.904V12.2285ZM265.508 68.1367C263.327 68.1367 261.52 67.6973 260.088 66.8184C258.688 65.9395 257.581 64.7676 256.768 63.3027C255.921 61.8704 255.335 60.2103 255.01 58.3223C254.684 56.4017 254.521 54.416 254.521 52.3652V50.9004C254.521 48.8822 254.684 46.929 255.01 45.041C255.368 43.153 255.97 41.4766 256.816 40.0117C257.63 38.5469 258.737 37.375 260.137 36.4961C261.536 35.6172 263.311 35.1777 265.459 35.1777C266.924 35.1777 268.275 35.4382 269.512 35.959C270.749 36.4473 271.807 37.1146 272.686 37.9609C273.564 38.8073 274.232 39.8164 274.688 40.9883C275.143 42.1602 275.339 43.3971 275.273 44.6992H288.066C288.132 41.5742 287.611 38.7585 286.504 36.252C285.397 33.7129 283.851 31.5482 281.865 29.7578C279.847 28 277.454 26.6328 274.688 25.6562C271.921 24.6797 268.91 24.1914 265.654 24.1914C261.585 24.1914 258.005 24.8913 254.912 26.291C251.852 27.6908 249.281 29.5951 247.197 32.0039C245.114 34.4128 243.551 37.2448 242.51 40.5C241.468 43.7227 240.947 47.1895 240.947 50.9004V52.3652C240.947 56.0762 241.468 59.5592 242.51 62.8145C243.584 66.0371 245.163 68.8529 247.246 71.2617C249.297 73.6706 251.868 75.5749 254.961 76.9746C258.053 78.3418 261.65 79.0254 265.752 79.0254C268.779 79.0254 271.644 78.5534 274.346 77.6094C277.08 76.6328 279.473 75.2982 281.523 73.6055C283.574 71.9128 285.186 69.8945 286.357 67.5508C287.562 65.207 288.132 62.668 288.066 59.9336H275.273C275.339 61.1706 275.111 62.2936 274.59 63.3027C274.102 64.3118 273.402 65.1745 272.49 65.8906C271.579 66.6068 270.521 67.1602 269.316 67.5508C268.112 67.9414 266.842 68.1367 265.508 68.1367ZM300.322 51.0957V52.1211C300.322 55.9948 300.876 59.5755 301.982 62.8633C303.089 66.1185 304.717 68.9505 306.865 71.3594C308.981 73.7682 311.585 75.6562 314.678 77.0234C317.803 78.3581 321.351 79.0254 325.322 79.0254C329.261 79.0254 332.777 78.3581 335.869 77.0234C338.962 75.6562 341.566 73.7682 343.682 71.3594C345.798 68.9505 347.409 66.1185 348.516 62.8633C349.622 59.5755 350.176 55.9948 350.176 52.1211V51.0957C350.176 47.2546 349.622 43.7064 348.516 40.4512C347.409 37.1634 345.798 34.3151 343.682 31.9062C341.533 29.4974 338.913 27.6094 335.82 26.2422C332.728 24.875 329.196 24.1914 325.225 24.1914C321.253 24.1914 317.721 24.875 314.629 26.2422C311.569 27.6094 308.981 29.4974 306.865 31.9062C304.717 34.3151 303.089 37.1634 301.982 40.4512C300.876 43.7064 300.322 47.2546 300.322 51.0957ZM313.896 52.1211V51.0957C313.896 48.9473 314.108 46.9128 314.531 44.9922C314.954 43.0716 315.622 41.3789 316.533 39.9141C317.445 38.4492 318.617 37.2936 320.049 36.4473C321.481 35.6009 323.206 35.1777 325.225 35.1777C327.275 35.1777 329.017 35.6009 330.449 36.4473C331.882 37.2936 333.053 38.4492 333.965 39.9141C334.844 41.3789 335.495 43.0716 335.918 44.9922C336.341 46.9128 336.553 48.9473 336.553 51.0957V52.1211C336.553 54.3346 336.341 56.418 335.918 58.3711C335.495 60.2917 334.844 61.9681 333.965 63.4004C333.053 64.8652 331.882 66.0208 330.449 66.8672C329.017 67.7135 327.308 68.1367 325.322 68.1367C323.271 68.1367 321.514 67.7135 320.049 66.8672C318.617 66.0208 317.445 64.8652 316.533 63.4004C315.622 61.9681 314.954 60.2917 314.531 58.3711C314.108 56.418 313.896 54.3346 313.896 52.1211ZM370.684 25.168H359.014V78H371.367V38.4492C371.53 38.026 371.709 37.6354 371.904 37.2773C372.1 36.9193 372.327 36.61 372.588 36.3496C372.946 35.9915 373.353 35.7148 373.809 35.5195C374.264 35.3242 374.785 35.2266 375.371 35.2266C375.892 35.2266 376.38 35.3079 376.836 35.4707C377.292 35.6009 377.699 35.8451 378.057 36.2031C378.382 36.5612 378.643 37.0658 378.838 37.7168C379.033 38.3678 379.131 39.1979 379.131 40.207V78H391.094V39.0352C391.094 38.6445 391.094 38.3353 391.094 38.1074C391.094 37.8796 391.094 37.7331 391.094 37.668C391.257 37.3099 391.452 37.0007 391.68 36.7402C391.908 36.4473 392.168 36.1868 392.461 35.959C392.819 35.7311 393.193 35.5521 393.584 35.4219C394.007 35.2917 394.479 35.2266 395 35.2266C395.488 35.2266 395.96 35.3079 396.416 35.4707C396.904 35.6009 397.327 35.8451 397.686 36.2031C398.044 36.5938 398.32 37.1146 398.516 37.7656C398.743 38.4167 398.857 39.2467 398.857 40.2559V78H411.211V40.3047C411.211 37.375 410.918 34.901 410.332 32.8828C409.779 30.832 408.997 29.1556 407.988 27.8535C406.947 26.584 405.726 25.6562 404.326 25.0703C402.959 24.4844 401.478 24.1914 399.883 24.1914C398.613 24.1914 397.441 24.3542 396.367 24.6797C395.293 25.0052 394.333 25.4609 393.486 26.0469C392.803 26.5026 392.168 27.056 391.582 27.707C391.029 28.3255 390.524 29.0254 390.068 29.8066C389.775 28.9928 389.417 28.2767 388.994 27.6582C388.604 27.0072 388.132 26.4538 387.578 25.998C386.862 25.3796 386.016 24.9238 385.039 24.6309C384.062 24.3379 382.956 24.1914 381.719 24.1914C379.18 24.1914 377.015 24.8587 375.225 26.1934C373.467 27.4954 372.083 29.2858 371.074 31.5645L370.684 25.168ZM430.742 25.168H419.072V78H431.426V38.4492C431.589 38.026 431.768 37.6354 431.963 37.2773C432.158 36.9193 432.386 36.61 432.646 36.3496C433.005 35.9915 433.411 35.7148 433.867 35.5195C434.323 35.3242 434.844 35.2266 435.43 35.2266C435.951 35.2266 436.439 35.3079 436.895 35.4707C437.35 35.6009 437.757 35.8451 438.115 36.2031C438.441 36.5612 438.701 37.0658 438.896 37.7168C439.092 38.3678 439.189 39.1979 439.189 40.207V78H451.152V39.0352C451.152 38.6445 451.152 38.3353 451.152 38.1074C451.152 37.8796 451.152 37.7331 451.152 37.668C451.315 37.3099 451.51 37.0007 451.738 36.7402C451.966 36.4473 452.227 36.1868 452.52 35.959C452.878 35.7311 453.252 35.5521 453.643 35.4219C454.066 35.2917 454.538 35.2266 455.059 35.2266C455.547 35.2266 456.019 35.3079 456.475 35.4707C456.963 35.6009 457.386 35.8451 457.744 36.2031C458.102 36.5938 458.379 37.1146 458.574 37.7656C458.802 38.4167 458.916 39.2467 458.916 40.2559V78H471.27V40.3047C471.27 37.375 470.977 34.901 470.391 32.8828C469.837 30.832 469.056 29.1556 468.047 27.8535C467.005 26.584 465.785 25.6562 464.385 25.0703C463.018 24.4844 461.536 24.1914 459.941 24.1914C458.672 24.1914 457.5 24.3542 456.426 24.6797C455.352 25.0052 454.391 25.4609 453.545 26.0469C452.861 26.5026 452.227 27.056 451.641 27.707C451.087 28.3255 450.583 29.0254 450.127 29.8066C449.834 28.9928 449.476 28.2767 449.053 27.6582C448.662 27.0072 448.19 26.4538 447.637 25.998C446.921 25.3796 446.074 24.9238 445.098 24.6309C444.121 24.3379 443.014 24.1914 441.777 24.1914C439.238 24.1914 437.074 24.8587 435.283 26.1934C433.525 27.4954 432.142 29.2858 431.133 31.5645L430.742 25.168ZM485.967 25.168V36.252H501.006V66.9648H485.967V78H529.033V66.9648H514.727V25.168H485.967ZM500.029 11.6426C500.029 12.6842 500.208 13.6608 500.566 14.5723C500.957 15.4512 501.494 16.1999 502.178 16.8184C502.861 17.4694 503.675 17.974 504.619 18.332C505.596 18.6901 506.67 18.8691 507.842 18.8691C510.251 18.8691 512.155 18.2018 513.555 16.8672C514.987 15.5 515.703 13.7585 515.703 11.6426C515.703 9.52669 514.987 7.80143 513.555 6.4668C512.155 5.09961 510.251 4.41602 507.842 4.41602C506.67 4.41602 505.596 4.59505 504.619 4.95312C503.675 5.3112 502.861 5.79948 502.178 6.41797C501.494 7.06901 500.957 7.85026 500.566 8.76172C500.208 9.64062 500.029 10.6009 500.029 11.6426ZM567.314 12.2285H553.74V25.168H541.68V35.1777H553.74V59.2012C553.74 62.6842 554.196 65.679 555.107 68.1855C556.019 70.6595 557.321 72.694 559.014 74.2891C560.674 75.9167 562.676 77.1211 565.02 77.9023C567.396 78.651 570.033 79.0254 572.93 79.0254C574.427 79.0254 575.941 78.944 577.471 78.7812C579.033 78.651 580.531 78.4557 581.963 78.1953C583.395 77.9349 584.746 77.6094 586.016 77.2188C587.285 76.7956 588.392 76.3073 589.336 75.7539L588.018 66.4277C587.399 66.5905 586.65 66.7533 585.771 66.916C584.925 67.0788 584.014 67.2253 583.037 67.3555C582.028 67.5182 580.97 67.6484 579.863 67.7461C578.789 67.8438 577.731 67.8926 576.689 67.8926C575.257 67.8926 573.955 67.7298 572.783 67.4043C571.644 67.0788 570.667 66.5254 569.854 65.7441C569.04 64.9954 568.405 63.9863 567.949 62.7168C567.526 61.4147 567.314 59.8034 567.314 57.8828V35.1777H587.041V25.168H567.314V12.2285ZM710.088 52.1211V41.1348H669.414V52.1211H710.088ZM731.035 25.168H719.365V78H731.719V38.4492C731.882 38.026 732.061 37.6354 732.256 37.2773C732.451 36.9193 732.679 36.61 732.939 36.3496C733.298 35.9915 733.704 35.7148 734.16 35.5195C734.616 35.3242 735.137 35.2266 735.723 35.2266C736.243 35.2266 736.732 35.3079 737.188 35.4707C737.643 35.6009 738.05 35.8451 738.408 36.2031C738.734 36.5612 738.994 37.0658 739.189 37.7168C739.385 38.3678 739.482 39.1979 739.482 40.207V78H751.445V39.0352C751.445 38.6445 751.445 38.3353 751.445 38.1074C751.445 37.8796 751.445 37.7331 751.445 37.668C751.608 37.3099 751.803 37.0007 752.031 36.7402C752.259 36.4473 752.52 36.1868 752.812 35.959C753.171 35.7311 753.545 35.5521 753.936 35.4219C754.359 35.2917 754.831 35.2266 755.352 35.2266C755.84 35.2266 756.312 35.3079 756.768 35.4707C757.256 35.6009 757.679 35.8451 758.037 36.2031C758.395 36.5938 758.672 37.1146 758.867 37.7656C759.095 38.4167 759.209 39.2467 759.209 40.2559V78H771.562V40.3047C771.562 37.375 771.27 34.901 770.684 32.8828C770.13 30.832 769.349 29.1556 768.34 27.8535C767.298 26.584 766.077 25.6562 764.678 25.0703C763.311 24.4844 761.829 24.1914 760.234 24.1914C758.965 24.1914 757.793 24.3542 756.719 24.6797C755.645 25.0052 754.684 25.4609 753.838 26.0469C753.154 26.5026 752.52 27.056 751.934 27.707C751.38 28.3255 750.876 29.0254 750.42 29.8066C750.127 28.9928 749.769 28.2767 749.346 27.6582C748.955 27.0072 748.483 26.4538 747.93 25.998C747.214 25.3796 746.367 24.9238 745.391 24.6309C744.414 24.3379 743.307 24.1914 742.07 24.1914C739.531 24.1914 737.367 24.8587 735.576 26.1934C733.818 27.4954 732.435 29.2858 731.426 31.5645L731.035 25.168ZM851.738 19.9922V28.5859H862.627V19.9434C862.627 16.7858 863.034 14.0026 863.848 11.5938C864.661 9.15234 865.687 6.8737 866.924 4.75781L860.674 0.900391C859.404 2.03971 858.232 3.35807 857.158 4.85547C856.084 6.35286 855.14 7.94792 854.326 9.64062C853.512 11.3333 852.878 13.0749 852.422 14.8652C851.966 16.623 851.738 18.332 851.738 19.9922ZM868.389 19.9922V28.5859H879.277V19.9434C879.277 16.7858 879.684 14.0026 880.498 11.5938C881.312 9.15234 882.337 6.8737 883.574 4.75781L877.324 0.900391C876.055 2.03971 874.883 3.35807 873.809 4.85547C872.734 6.35286 871.79 7.94792 870.977 9.64062C870.163 11.3333 869.528 13.0749 869.072 14.8652C868.617 16.623 868.389 18.332 868.389 19.9922ZM906.377 25.168V36.252H921.416V66.9648H906.377V78H949.443V66.9648H935.137V25.168H906.377ZM920.439 11.6426C920.439 12.6842 920.618 13.6608 920.977 14.5723C921.367 15.4512 921.904 16.1999 922.588 16.8184C923.271 17.4694 924.085 17.974 925.029 18.332C926.006 18.6901 927.08 18.8691 928.252 18.8691C930.661 18.8691 932.565 18.2018 933.965 16.8672C935.397 15.5 936.113 13.7585 936.113 11.6426C936.113 9.52669 935.397 7.80143 933.965 6.4668C932.565 5.09961 930.661 4.41602 928.252 4.41602C927.08 4.41602 926.006 4.59505 925.029 4.95312C924.085 5.3112 923.271 5.79948 922.588 6.41797C921.904 7.06901 921.367 7.85026 920.977 8.76172C920.618 9.64062 920.439 10.6009 920.439 11.6426ZM961.406 51.1934V52.2188C961.406 56.0599 961.878 59.6243 962.822 62.9121C963.766 66.1673 965.133 68.9831 966.924 71.3594C968.682 73.7357 970.83 75.6074 973.369 76.9746C975.941 78.3092 978.838 78.9766 982.061 78.9766C985.023 78.9766 987.627 78.4069 989.873 77.2676C992.119 76.1283 994.072 74.5332 995.732 72.4824L996.416 78H1008.67V3H995.049V29.9043C993.421 28.0814 991.549 26.6816 989.434 25.7051C987.35 24.696 984.925 24.1914 982.158 24.1914C978.87 24.1914 975.941 24.8424 973.369 26.1445C970.83 27.4466 968.665 29.2858 966.875 31.6621C965.085 34.0384 963.717 36.8867 962.773 40.207C961.862 43.5273 961.406 47.1895 961.406 51.1934ZM974.98 52.2188V51.1934C974.98 48.9798 975.176 46.9128 975.566 44.9922C975.957 43.0391 976.576 41.3301 977.422 39.8652C978.268 38.4329 979.359 37.3099 980.693 36.4961C982.061 35.6497 983.704 35.2266 985.625 35.2266C987.936 35.2266 989.857 35.7311 991.387 36.7402C992.917 37.7168 994.137 39.1003 995.049 40.8906V62.2773C994.137 64.0352 992.9 65.4186 991.338 66.4277C989.808 67.4368 987.871 67.9414 985.527 67.9414C983.607 67.9414 981.979 67.5345 980.645 66.7207C979.31 65.9069 978.219 64.7839 977.373 63.3516C976.527 61.9518 975.908 60.3079 975.518 58.4199C975.16 56.4993 974.98 54.4323 974.98 52.2188ZM1048.52 78.9766C1053.63 78.9766 1058.05 77.9837 1061.8 75.998C1065.54 74.0124 1068.27 71.7988 1070 69.3574L1063.21 62.0332C1061.65 64.0514 1059.62 65.5651 1057.11 66.5742C1054.6 67.5833 1052.01 68.0879 1049.35 68.0879C1047.46 68.0879 1045.72 67.7949 1044.12 67.209C1042.53 66.623 1041.11 65.793 1039.87 64.7188C1038.67 63.6771 1037.71 62.5215 1036.99 61.252C1036.28 59.9499 1035.69 58.2409 1035.23 56.125V55.9785H1071.07V50.2168C1071.07 46.3431 1070.54 42.8112 1069.46 39.6211C1068.39 36.3984 1066.83 33.6478 1064.78 31.3691C1062.69 29.0905 1060.15 27.3327 1057.16 26.0957C1054.2 24.8262 1050.81 24.1914 1047 24.1914C1043.32 24.1914 1039.92 24.8587 1036.8 26.1934C1033.67 27.528 1030.97 29.3997 1028.69 31.8086C1026.41 34.2174 1024.64 37.0983 1023.37 40.4512C1022.1 43.7715 1021.46 47.4499 1021.46 51.4863V53.4395C1021.46 56.9876 1022.1 60.3242 1023.37 63.4492C1024.67 66.5417 1026.51 69.2272 1028.89 71.5059C1031.26 73.8171 1034.11 75.64 1037.43 76.9746C1040.75 78.3092 1044.45 78.9766 1048.52 78.9766ZM1046.9 35.1777C1048.63 35.1777 1050.14 35.4544 1051.45 36.0078C1052.78 36.5286 1053.9 37.2448 1054.81 38.1562C1055.73 39.1003 1056.44 40.207 1056.96 41.4766C1057.48 42.7461 1057.74 44.097 1057.74 45.5293V46.6035H1035.48C1035.8 44.8783 1036.29 43.3158 1036.94 41.916C1037.59 40.5163 1038.41 39.3118 1039.38 38.3027C1040.33 37.2936 1041.44 36.5286 1042.71 36.0078C1043.97 35.4544 1045.37 35.1777 1046.9 35.1777ZM1082.94 78H1096.56V40.4512C1097.02 39.735 1097.52 39.084 1098.08 38.498C1098.63 37.9121 1099.25 37.4076 1099.93 36.9844C1100.78 36.3984 1101.74 35.959 1102.81 35.666C1103.92 35.373 1105.12 35.2266 1106.43 35.2266C1107.99 35.2266 1109.39 35.3893 1110.62 35.7148C1111.86 36.0078 1112.92 36.5449 1113.8 37.3262C1114.68 38.1074 1115.35 39.1816 1115.8 40.5488C1116.29 41.8835 1116.53 43.5924 1116.53 45.6758V78H1130.11V45.4805C1130.11 41.6393 1129.65 38.3841 1128.74 35.7148C1127.86 33.013 1126.62 30.7995 1125.03 29.0742C1123.4 27.3815 1121.48 26.1445 1119.27 25.3633C1117.05 24.582 1114.61 24.1914 1111.94 24.1914C1109.86 24.1914 1107.89 24.4844 1106.04 25.0703C1104.18 25.6562 1102.47 26.5026 1100.91 27.6094C1100 28.2604 1099.13 28.9928 1098.32 29.8066C1097.51 30.6204 1096.76 31.5156 1096.07 32.4922L1095.24 25.168H1082.94V78ZM1167.9 12.2285H1154.33V25.168H1142.27V35.1777H1154.33V59.2012C1154.33 62.6842 1154.78 65.679 1155.69 68.1855C1156.6 70.6595 1157.91 72.694 1159.6 74.2891C1161.26 75.9167 1163.26 77.1211 1165.61 77.9023C1167.98 78.651 1170.62 79.0254 1173.52 79.0254C1175.01 79.0254 1176.53 78.944 1178.06 78.7812C1179.62 78.651 1181.12 78.4557 1182.55 78.1953C1183.98 77.9349 1185.33 77.6094 1186.6 77.2188C1187.87 76.7956 1188.98 76.3073 1189.92 75.7539L1188.6 66.4277C1187.99 66.5905 1187.24 66.7533 1186.36 66.916C1185.51 67.0788 1184.6 67.2253 1183.62 67.3555C1182.61 67.5182 1181.56 67.6484 1180.45 67.7461C1179.38 67.8438 1178.32 67.8926 1177.28 67.8926C1175.84 67.8926 1174.54 67.7298 1173.37 67.4043C1172.23 67.0788 1171.25 66.5254 1170.44 65.7441C1169.63 64.9954 1168.99 63.9863 1168.54 62.7168C1168.11 61.4147 1167.9 59.8034 1167.9 57.8828V35.1777H1187.63V25.168H1167.9V12.2285ZM1236.06 78H1249.83V77.1699C1249.15 75.8353 1248.63 74.2402 1248.27 72.3848C1247.91 70.5293 1247.73 68.1855 1247.73 65.3535V42.6973C1247.73 39.6374 1247.16 36.9518 1246.03 34.6406C1244.89 32.2969 1243.31 30.36 1241.29 28.8301C1239.27 27.3001 1236.88 26.1445 1234.11 25.3633C1231.38 24.582 1228.41 24.1914 1225.22 24.1914C1221.68 24.1914 1218.52 24.6471 1215.75 25.5586C1213.02 26.4375 1210.71 27.6419 1208.82 29.1719C1206.9 30.7018 1205.43 32.4759 1204.42 34.4941C1203.45 36.5124 1202.96 38.6445 1202.96 40.8906H1216.53C1216.53 39.9466 1216.66 39.084 1216.92 38.3027C1217.22 37.5215 1217.66 36.8542 1218.24 36.3008C1218.89 35.6823 1219.74 35.2103 1220.78 34.8848C1221.82 34.5267 1223.06 34.3477 1224.49 34.3477C1226.12 34.3477 1227.54 34.5592 1228.74 34.9824C1229.98 35.373 1231 35.9427 1231.82 36.6914C1232.6 37.4076 1233.18 38.2702 1233.57 39.2793C1233.96 40.2559 1234.16 41.3626 1234.16 42.5996V45.7246H1226.59C1222.69 45.7246 1219.22 46.0827 1216.19 46.7988C1213.2 47.4824 1210.67 48.4915 1208.62 49.8262C1206.34 51.291 1204.64 53.1628 1203.5 55.4414C1202.36 57.6875 1201.79 60.2754 1201.79 63.2051C1201.79 65.4837 1202.24 67.5996 1203.15 69.5527C1204.07 71.4733 1205.34 73.1335 1206.96 74.5332C1208.59 75.9329 1210.53 77.0234 1212.77 77.8047C1215.05 78.5859 1217.54 78.9766 1220.24 78.9766C1221.9 78.9766 1223.45 78.8138 1224.88 78.4883C1226.32 78.1953 1227.63 77.7721 1228.84 77.2188C1230.01 76.6979 1231.08 76.0794 1232.06 75.3633C1233.04 74.6471 1233.9 73.8822 1234.65 73.0684C1234.81 74.0124 1235.01 74.9076 1235.23 75.7539C1235.46 76.6003 1235.74 77.349 1236.06 78ZM1223.12 68.4785C1221.86 68.4785 1220.73 68.332 1219.76 68.0391C1218.81 67.7135 1218.01 67.2904 1217.36 66.7695C1216.71 66.2161 1216.21 65.5488 1215.85 64.7676C1215.52 63.9538 1215.36 63.0749 1215.36 62.1309C1215.36 60.9264 1215.59 59.8197 1216.04 58.8105C1216.5 57.7689 1217.2 56.8737 1218.14 56.125C1219.09 55.4089 1220.31 54.8555 1221.81 54.4648C1223.3 54.0417 1225.11 53.8301 1227.23 53.8301H1234.16V62.9121C1233.77 63.5957 1233.23 64.2793 1232.55 64.9629C1231.87 65.6139 1231.05 66.1999 1230.11 66.7207C1229.16 67.2415 1228.11 67.6647 1226.93 67.9902C1225.76 68.3158 1224.49 68.4785 1223.12 68.4785ZM1288.02 12.2285H1274.44V25.168H1262.38V35.1777H1274.44V59.2012C1274.44 62.6842 1274.9 65.679 1275.81 68.1855C1276.72 70.6595 1278.02 72.694 1279.72 74.2891C1281.38 75.9167 1283.38 77.1211 1285.72 77.9023C1288.1 78.651 1290.74 79.0254 1293.63 79.0254C1295.13 79.0254 1296.64 78.944 1298.17 78.7812C1299.74 78.651 1301.23 78.4557 1302.67 78.1953C1304.1 77.9349 1305.45 77.6094 1306.72 77.2188C1307.99 76.7956 1309.1 76.3073 1310.04 75.7539L1308.72 66.4277C1308.1 66.5905 1307.35 66.7533 1306.47 66.916C1305.63 67.0788 1304.72 67.2253 1303.74 67.3555C1302.73 67.5182 1301.67 67.6484 1300.57 67.7461C1299.49 67.8438 1298.43 67.8926 1297.39 67.8926C1295.96 67.8926 1294.66 67.7298 1293.49 67.4043C1292.35 67.0788 1291.37 66.5254 1290.56 65.7441C1289.74 64.9954 1289.11 63.9863 1288.65 62.7168C1288.23 61.4147 1288.02 59.8034 1288.02 57.8828V35.1777H1307.74V25.168H1288.02V12.2285ZM1326.79 25.168V36.252H1341.83V66.9648H1326.79V78H1369.85V66.9648H1355.55V25.168H1326.79ZM1340.85 11.6426C1340.85 12.6842 1341.03 13.6608 1341.39 14.5723C1341.78 15.4512 1342.31 16.1999 1343 16.8184C1343.68 17.4694 1344.5 17.974 1345.44 18.332C1346.42 18.6901 1347.49 18.8691 1348.66 18.8691C1351.07 18.8691 1352.98 18.2018 1354.38 16.8672C1355.81 15.5 1356.52 13.7585 1356.52 11.6426C1356.52 9.52669 1355.81 7.80143 1354.38 6.4668C1352.98 5.09961 1351.07 4.41602 1348.66 4.41602C1347.49 4.41602 1346.42 4.59505 1345.44 4.95312C1344.5 5.3112 1343.68 5.79948 1343 6.41797C1342.31 7.06901 1341.78 7.85026 1341.39 8.76172C1341.03 9.64062 1340.85 10.6009 1340.85 11.6426ZM1381.38 51.0957V52.1211C1381.38 55.9948 1381.93 59.5755 1383.04 62.8633C1384.14 66.1185 1385.77 68.9505 1387.92 71.3594C1390.04 73.7682 1392.64 75.6562 1395.73 77.0234C1398.86 78.3581 1402.41 79.0254 1406.38 79.0254C1410.32 79.0254 1413.83 78.3581 1416.92 77.0234C1420.02 75.6562 1422.62 73.7682 1424.74 71.3594C1426.85 68.9505 1428.46 66.1185 1429.57 62.8633C1430.68 59.5755 1431.23 55.9948 1431.23 52.1211V51.0957C1431.23 47.2546 1430.68 43.7064 1429.57 40.4512C1428.46 37.1634 1426.85 34.3151 1424.74 31.9062C1422.59 29.4974 1419.97 27.6094 1416.88 26.2422C1413.78 24.875 1410.25 24.1914 1406.28 24.1914C1402.31 24.1914 1398.78 24.875 1395.68 26.2422C1392.62 27.6094 1390.04 29.4974 1387.92 31.9062C1385.77 34.3151 1384.14 37.1634 1383.04 40.4512C1381.93 43.7064 1381.38 47.2546 1381.38 51.0957ZM1394.95 52.1211V51.0957C1394.95 48.9473 1395.16 46.9128 1395.59 44.9922C1396.01 43.0716 1396.68 41.3789 1397.59 39.9141C1398.5 38.4492 1399.67 37.2936 1401.1 36.4473C1402.54 35.6009 1404.26 35.1777 1406.28 35.1777C1408.33 35.1777 1410.07 35.6009 1411.5 36.4473C1412.94 37.2936 1414.11 38.4492 1415.02 39.9141C1415.9 41.3789 1416.55 43.0716 1416.97 44.9922C1417.4 46.9128 1417.61 48.9473 1417.61 51.0957V52.1211C1417.61 54.3346 1417.4 56.418 1416.97 58.3711C1416.55 60.2917 1415.9 61.9681 1415.02 63.4004C1414.11 64.8652 1412.94 66.0208 1411.5 66.8672C1410.07 67.7135 1408.36 68.1367 1406.38 68.1367C1404.33 68.1367 1402.57 67.7135 1401.1 66.8672C1399.67 66.0208 1398.5 64.8652 1397.59 63.4004C1396.68 61.9681 1396.01 60.2917 1395.59 58.3711C1395.16 56.418 1394.95 54.3346 1394.95 52.1211ZM1443.29 78H1456.91V40.4512C1457.37 39.735 1457.87 39.084 1458.43 38.498C1458.98 37.9121 1459.6 37.4076 1460.28 36.9844C1461.13 36.3984 1462.09 35.959 1463.16 35.666C1464.27 35.373 1465.48 35.2266 1466.78 35.2266C1468.34 35.2266 1469.74 35.3893 1470.98 35.7148C1472.21 36.0078 1473.27 36.5449 1474.15 37.3262C1475.03 38.1074 1475.7 39.1816 1476.15 40.5488C1476.64 41.8835 1476.88 43.5924 1476.88 45.6758V78H1490.46V45.4805C1490.46 41.6393 1490 38.3841 1489.09 35.7148C1488.21 33.013 1486.98 30.7995 1485.38 29.0742C1483.75 27.3815 1481.83 26.1445 1479.62 25.3633C1477.41 24.582 1474.96 24.1914 1472.29 24.1914C1470.21 24.1914 1468.24 24.4844 1466.39 25.0703C1464.53 25.6562 1462.82 26.5026 1461.26 27.6094C1460.35 28.2604 1459.49 28.9928 1458.67 29.8066C1457.86 30.6204 1457.11 31.5156 1456.43 32.4922L1455.6 25.168H1443.29V78ZM1576.54 78H1590.17V35.1777H1609.21V25.168H1590.17V22.2871C1590.17 20.7246 1590.36 19.3249 1590.75 18.0879C1591.18 16.8509 1591.81 15.8092 1592.66 14.9629C1593.6 13.9538 1594.87 13.1888 1596.46 12.668C1598.06 12.1471 1600 11.8867 1602.28 11.8867C1604.39 11.8867 1606.23 11.9844 1607.79 12.1797C1609.36 12.375 1610.76 12.6029 1611.99 12.8633L1612.87 2.21875C1611.76 2.02344 1610.69 1.8444 1609.65 1.68164C1608.64 1.51888 1607.63 1.3724 1606.62 1.24219C1605.61 1.11198 1604.57 1.01432 1603.5 0.949219C1602.45 0.851562 1601.36 0.802734 1600.22 0.802734C1596.61 0.802734 1593.34 1.27474 1590.41 2.21875C1587.48 3.13021 1584.99 4.4974 1582.94 6.32031C1580.89 8.14323 1579.31 10.3893 1578.2 13.0586C1577.1 15.7279 1576.54 18.804 1576.54 22.2871V25.168H1562.68V35.1777H1576.54V78ZM1627.08 25.168V36.252H1642.12V66.9648H1627.08V78H1670.15V66.9648H1655.84V25.168H1627.08ZM1641.14 11.6426C1641.14 12.6842 1641.32 13.6608 1641.68 14.5723C1642.07 15.4512 1642.61 16.1999 1643.29 16.8184C1643.97 17.4694 1644.79 17.974 1645.73 18.332C1646.71 18.6901 1647.78 18.8691 1648.96 18.8691C1651.36 18.8691 1653.27 18.2018 1654.67 16.8672C1656.1 15.5 1656.82 13.7585 1656.82 11.6426C1656.82 9.52669 1656.1 7.80143 1654.67 6.4668C1653.27 5.09961 1651.36 4.41602 1648.96 4.41602C1647.78 4.41602 1646.71 4.59505 1645.73 4.95312C1644.79 5.3112 1643.97 5.79948 1643.29 6.41797C1642.61 7.06901 1642.07 7.85026 1641.68 8.76172C1641.32 9.64062 1641.14 10.6009 1641.14 11.6426ZM1707.7 41.6719L1696.27 25.168H1681.67L1699.35 51.0957L1680.99 78H1695.68L1707.74 60.7148L1719.9 78H1734.55L1716.19 51.0957L1733.92 25.168H1719.32L1707.7 41.6719ZM1766.48 10.2754V1.82812H1755.6V10.2754C1755.6 13.4329 1755.19 16.2324 1754.38 18.6738C1753.59 21.1152 1752.58 23.3939 1751.35 25.5098L1757.55 29.3672C1758.82 28.2279 1759.99 26.9095 1761.06 25.4121C1762.14 23.8822 1763.08 22.2708 1763.9 20.5781C1764.71 18.918 1765.35 17.209 1765.8 15.4512C1766.26 13.6608 1766.48 11.9355 1766.48 10.2754ZM1784.01 10.2754V1.82812H1773.12V10.2754C1773.12 13.4329 1772.72 16.2324 1771.9 18.6738C1771.12 21.1152 1770.11 23.3939 1768.88 25.5098L1775.08 29.3672C1776.35 28.2279 1777.52 26.9095 1778.59 25.4121C1779.67 23.8822 1780.61 22.2708 1781.43 20.5781C1782.24 18.918 1782.87 17.209 1783.33 15.4512C1783.79 13.6608 1784.01 11.9355 1784.01 10.2754Z" fill="#000020"/>
</svg>