<svg width="1659" height="103" viewBox="0 0 1659 103" fill="none" xmlns="http://www.w3.org/2000/svg">
<path d="M25.2734 70.1367C23.0924 70.1367 21.2858 69.6973 19.8535 68.8184C18.4538 67.9395 17.347 66.7676 16.5332 65.3027C15.6868 63.8704 15.1009 62.2103 14.7754 60.3223C14.4499 58.4017 14.2871 56.416 14.2871 54.3652V52.9004C14.2871 50.8822 14.4499 48.929 14.7754 47.041C15.1335 45.153 15.7357 43.4766 16.582 42.0117C17.3958 40.5469 18.5026 39.375 19.9023 38.4961C21.3021 37.6172 23.0762 37.1777 25.2246 37.1777C26.6895 37.1777 28.0404 37.4382 29.2773 37.959C30.5143 38.4473 31.5723 39.1146 32.4512 39.9609C33.3301 40.8073 33.9974 41.8164 34.4531 42.9883C34.9089 44.1602 35.1042 45.3971 35.0391 46.6992H47.832C47.8971 43.5742 47.3763 40.7585 46.2695 38.252C45.1628 35.7129 43.6165 33.5482 41.6309 31.7578C39.6126 30 37.2201 28.6328 34.4531 27.6562C31.6862 26.6797 28.6751 26.1914 25.4199 26.1914C21.3509 26.1914 17.7702 26.8913 14.6777 28.291C11.6178 29.6908 9.04622 31.5951 6.96289 34.0039C4.87956 36.4128 3.31706 39.2448 2.27539 42.5C1.23372 45.7227 0.712891 49.1895 0.712891 52.9004V54.3652C0.712891 58.0762 1.23372 61.5592 2.27539 64.8145C3.34961 68.0371 4.92839 70.8529 7.01172 73.2617C9.0625 75.6706 11.6341 77.5749 14.7266 78.9746C17.819 80.3418 21.416 81.0254 25.5176 81.0254C28.5449 81.0254 31.4095 80.5534 34.1113 79.6094C36.8457 78.6328 39.2383 77.2982 41.2891 75.6055C43.3398 73.9128 44.9512 71.8945 46.123 69.5508C47.3275 67.207 47.8971 64.668 47.832 61.9336H35.0391C35.1042 63.1706 34.8763 64.2936 34.3555 65.3027C33.8672 66.3118 33.1673 67.1745 32.2559 67.8906C31.3444 68.6068 30.2865 69.1602 29.082 69.5508C27.8776 69.9414 26.6081 70.1367 25.2734 70.1367ZM60.0879 53.0957V54.1211C60.0879 57.9948 60.6413 61.5755 61.748 64.8633C62.8548 68.1185 64.4824 70.9505 66.6309 73.3594C68.7467 75.7682 71.3509 77.6562 74.4434 79.0234C77.5684 80.3581 81.1165 81.0254 85.0879 81.0254C89.0267 81.0254 92.5423 80.3581 95.6348 79.0234C98.7272 77.6562 101.331 75.7682 103.447 73.3594C105.563 70.9505 107.174 68.1185 108.281 64.8633C109.388 61.5755 109.941 57.9948 109.941 54.1211V53.0957C109.941 49.2546 109.388 45.7064 108.281 42.4512C107.174 39.1634 105.563 36.3151 103.447 33.9062C101.299 31.4974 98.6784 29.6094 95.5859 28.2422C92.4935 26.875 88.9616 26.1914 84.9902 26.1914C81.0189 26.1914 77.487 26.875 74.3945 28.2422C71.3346 29.6094 68.7467 31.4974 66.6309 33.9062C64.4824 36.3151 62.8548 39.1634 61.748 42.4512C60.6413 45.7064 60.0879 49.2546 60.0879 53.0957ZM73.6621 54.1211V53.0957C73.6621 50.9473 73.8737 48.9128 74.2969 46.9922C74.7201 45.0716 75.3874 43.3789 76.2988 41.9141C77.2103 40.4492 78.3822 39.2936 79.8145 38.4473C81.2467 37.6009 82.972 37.1777 84.9902 37.1777C87.041 37.1777 88.7826 37.6009 90.2148 38.4473C91.6471 39.2936 92.819 40.4492 93.7305 41.9141C94.6094 43.3789 95.2604 45.0716 95.6836 46.9922C96.1068 48.9128 96.3184 50.9473 96.3184 53.0957V54.1211C96.3184 56.3346 96.1068 58.418 95.6836 60.3711C95.2604 62.2917 94.6094 63.9681 93.7305 65.4004C92.819 66.8652 91.6471 68.0208 90.2148 68.8672C88.7826 69.7135 87.0736 70.1367 85.0879 70.1367C83.0371 70.1367 81.2793 69.7135 79.8145 68.8672C78.3822 68.0208 77.2103 66.8652 76.2988 65.4004C75.3874 63.9681 74.7201 62.2917 74.2969 60.3711C73.8737 58.418 73.6621 56.3346 73.6621 54.1211ZM122.002 80H135.625V42.4512C136.081 41.735 136.585 41.084 137.139 40.498C137.692 39.9121 138.311 39.4076 138.994 38.9844C139.84 38.3984 140.801 37.959 141.875 37.666C142.982 37.373 144.186 37.2266 145.488 37.2266C147.051 37.2266 148.451 37.3893 149.688 37.7148C150.924 38.0078 151.982 38.5449 152.861 39.3262C153.74 40.1074 154.408 41.1816 154.863 42.5488C155.352 43.8835 155.596 45.5924 155.596 47.6758V80H169.17V47.4805C169.17 43.6393 168.714 40.3841 167.803 37.7148C166.924 35.013 165.687 32.7995 164.092 31.0742C162.464 29.3815 160.544 28.1445 158.33 27.3633C156.117 26.582 153.675 26.1914 151.006 26.1914C148.923 26.1914 146.953 26.4844 145.098 27.0703C143.242 27.6562 141.533 28.5026 139.971 29.6094C139.059 30.2604 138.197 30.9928 137.383 31.8066C136.569 32.6204 135.82 33.5156 135.137 34.4922L134.307 27.168H122.002V80ZM216.143 65.498C216.143 66.3118 215.931 67.0605 215.508 67.7441C215.117 68.4277 214.515 69.0299 213.701 69.5508C212.855 70.0716 211.764 70.4948 210.43 70.8203C209.128 71.1133 207.598 71.2598 205.84 71.2598C204.375 71.2598 202.943 71.1133 201.543 70.8203C200.176 70.5273 198.955 70.0553 197.881 69.4043C196.807 68.7858 195.928 67.972 195.244 66.9629C194.561 65.9212 194.17 64.6842 194.072 63.252H181.133C181.133 65.4004 181.654 67.5488 182.695 69.6973C183.77 71.8132 185.332 73.7012 187.383 75.3613C189.434 77.054 191.973 78.4212 195 79.4629C198.06 80.5046 201.576 81.0254 205.547 81.0254C209.16 81.0254 212.432 80.6348 215.361 79.8535C218.291 79.0397 220.798 77.9167 222.881 76.4844C224.932 75.0521 226.51 73.3594 227.617 71.4062C228.757 69.4206 229.326 67.2559 229.326 64.9121C229.326 62.373 228.757 60.1921 227.617 58.3691C226.51 56.5137 224.964 54.9349 222.979 53.6328C220.993 52.3633 218.633 51.3216 215.898 50.5078C213.164 49.694 210.202 49.0267 207.012 48.5059C204.798 48.1803 202.975 47.806 201.543 47.3828C200.111 46.9271 198.988 46.4225 198.174 45.8691C197.327 45.3483 196.742 44.7624 196.416 44.1113C196.09 43.4277 195.928 42.6953 195.928 41.9141C195.928 41.1328 196.107 40.4004 196.465 39.7168C196.855 39.0007 197.409 38.3822 198.125 37.8613C198.906 37.2754 199.915 36.8197 201.152 36.4941C202.389 36.1686 203.838 36.0059 205.498 36.0059C207.451 36.0059 209.111 36.25 210.479 36.7383C211.878 37.2266 212.985 37.8776 213.799 38.6914C214.385 39.3099 214.824 40.0098 215.117 40.791C215.41 41.5397 215.557 42.3535 215.557 43.2324H229.131C229.131 40.791 228.594 38.5286 227.52 36.4453C226.445 34.362 224.899 32.5553 222.881 31.0254C220.83 29.528 218.34 28.3561 215.41 27.5098C212.48 26.6309 209.176 26.1914 205.498 26.1914C201.982 26.1914 198.825 26.6309 196.025 27.5098C193.226 28.3887 190.85 29.5768 188.896 31.0742C186.943 32.5716 185.446 34.3132 184.404 36.2988C183.363 38.2845 182.842 40.3678 182.842 42.5488C182.842 44.7949 183.346 46.7806 184.355 48.5059C185.397 50.2311 186.829 51.7448 188.652 53.0469C190.475 54.3815 192.656 55.5208 195.195 56.4648C197.767 57.3763 200.599 58.1413 203.691 58.7598C206.133 59.2155 208.151 59.6712 209.746 60.127C211.341 60.5827 212.627 61.071 213.604 61.5918C214.548 62.1452 215.199 62.7311 215.557 63.3496C215.947 63.9681 216.143 64.6842 216.143 65.498ZM240.264 53.0957V54.1211C240.264 57.9948 240.817 61.5755 241.924 64.8633C243.031 68.1185 244.658 70.9505 246.807 73.3594C248.923 75.7682 251.527 77.6562 254.619 79.0234C257.744 80.3581 261.292 81.0254 265.264 81.0254C269.202 81.0254 272.718 80.3581 275.811 79.0234C278.903 77.6562 281.507 75.7682 283.623 73.3594C285.739 70.9505 287.35 68.1185 288.457 64.8633C289.564 61.5755 290.117 57.9948 290.117 54.1211V53.0957C290.117 49.2546 289.564 45.7064 288.457 42.4512C287.35 39.1634 285.739 36.3151 283.623 33.9062C281.475 31.4974 278.854 29.6094 275.762 28.2422C272.669 26.875 269.137 26.1914 265.166 26.1914C261.195 26.1914 257.663 26.875 254.57 28.2422C251.51 29.6094 248.923 31.4974 246.807 33.9062C244.658 36.3151 243.031 39.1634 241.924 42.4512C240.817 45.7064 240.264 49.2546 240.264 53.0957ZM253.838 54.1211V53.0957C253.838 50.9473 254.049 48.9128 254.473 46.9922C254.896 45.0716 255.563 43.3789 256.475 41.9141C257.386 40.4492 258.558 39.2936 259.99 38.4473C261.423 37.6009 263.148 37.1777 265.166 37.1777C267.217 37.1777 268.958 37.6009 270.391 38.4473C271.823 39.2936 272.995 40.4492 273.906 41.9141C274.785 43.3789 275.436 45.0716 275.859 46.9922C276.283 48.9128 276.494 50.9473 276.494 53.0957V54.1211C276.494 56.3346 276.283 58.418 275.859 60.3711C275.436 62.2917 274.785 63.9681 273.906 65.4004C272.995 66.8652 271.823 68.0208 270.391 68.8672C268.958 69.7135 267.249 70.1367 265.264 70.1367C263.213 70.1367 261.455 69.7135 259.99 68.8672C258.558 68.0208 257.386 66.8652 256.475 65.4004C255.563 63.9681 254.896 62.2917 254.473 60.3711C254.049 58.418 253.838 56.3346 253.838 54.1211ZM305.01 5V16.084H320.83V68.9648H305.01V80H349.688V68.9648H334.551V5H305.01ZM387.871 80.9766C392.982 80.9766 397.409 79.9837 401.152 77.998C404.896 76.0124 407.63 73.7988 409.355 71.3574L402.568 64.0332C401.006 66.0514 398.971 67.5651 396.465 68.5742C393.958 69.5833 391.37 70.0879 388.701 70.0879C386.813 70.0879 385.072 69.7949 383.477 69.209C381.882 68.623 380.465 67.793 379.229 66.7188C378.024 65.6771 377.064 64.5215 376.348 63.252C375.632 61.9499 375.046 60.2409 374.59 58.125V57.9785H410.43V52.2168C410.43 48.3431 409.893 44.8112 408.818 41.6211C407.744 38.3984 406.182 35.6478 404.131 33.3691C402.048 31.0905 399.508 29.3327 396.514 28.0957C393.551 26.8262 390.166 26.1914 386.357 26.1914C382.679 26.1914 379.277 26.8587 376.152 28.1934C373.027 29.528 370.326 31.3997 368.047 33.8086C365.768 36.2174 363.994 39.0983 362.725 42.4512C361.455 45.7715 360.82 49.4499 360.82 53.4863V55.4395C360.82 58.9876 361.455 62.3242 362.725 65.4492C364.027 68.5417 365.866 71.2272 368.242 73.5059C370.618 75.8171 373.467 77.64 376.787 78.9746C380.107 80.3092 383.802 80.9766 387.871 80.9766ZM386.26 37.1777C387.985 37.1777 389.499 37.4544 390.801 38.0078C392.135 38.5286 393.258 39.2448 394.17 40.1562C395.081 41.1003 395.798 42.207 396.318 43.4766C396.839 44.7461 397.1 46.097 397.1 47.5293V48.6035H374.834C375.16 46.8783 375.648 45.3158 376.299 43.916C376.95 42.5163 377.764 41.3118 378.74 40.3027C379.684 39.2936 380.791 38.5286 382.061 38.0078C383.33 37.4544 384.73 37.1777 386.26 37.1777ZM436.016 72.1387C436.016 74.6452 436.862 76.7448 438.555 78.4375C440.247 80.1302 442.542 80.9766 445.439 80.9766C448.304 80.9766 450.583 80.1465 452.275 78.4863C454.001 76.7936 454.863 74.6777 454.863 72.1387C454.863 69.5996 454.017 67.4674 452.324 65.7422C450.664 64.0169 448.369 63.1543 445.439 63.1543C442.477 63.1543 440.166 64.0332 438.506 65.791C436.846 67.5163 436.016 69.6322 436.016 72.1387ZM485.186 5V16.084H501.006V68.9648H485.186V80H529.863V68.9648H514.727V5H485.186ZM540.557 53.0957V54.1211C540.557 57.9948 541.11 61.5755 542.217 64.8633C543.324 68.1185 544.951 70.9505 547.1 73.3594C549.215 75.7682 551.82 77.6562 554.912 79.0234C558.037 80.3581 561.585 81.0254 565.557 81.0254C569.495 81.0254 573.011 80.3581 576.104 79.0234C579.196 77.6562 581.8 75.7682 583.916 73.3594C586.032 70.9505 587.643 68.1185 588.75 64.8633C589.857 61.5755 590.41 57.9948 590.41 54.1211V53.0957C590.41 49.2546 589.857 45.7064 588.75 42.4512C587.643 39.1634 586.032 36.3151 583.916 33.9062C581.768 31.4974 579.147 29.6094 576.055 28.2422C572.962 26.875 569.43 26.1914 565.459 26.1914C561.488 26.1914 557.956 26.875 554.863 28.2422C551.803 29.6094 549.215 31.4974 547.1 33.9062C544.951 36.3151 543.324 39.1634 542.217 42.4512C541.11 45.7064 540.557 49.2546 540.557 53.0957ZM554.131 54.1211V53.0957C554.131 50.9473 554.342 48.9128 554.766 46.9922C555.189 45.0716 555.856 43.3789 556.768 41.9141C557.679 40.4492 558.851 39.2936 560.283 38.4473C561.715 37.6009 563.441 37.1777 565.459 37.1777C567.51 37.1777 569.251 37.6009 570.684 38.4473C572.116 39.2936 573.288 40.4492 574.199 41.9141C575.078 43.3789 575.729 45.0716 576.152 46.9922C576.576 48.9128 576.787 50.9473 576.787 53.0957V54.1211C576.787 56.3346 576.576 58.418 576.152 60.3711C575.729 62.2917 575.078 63.9681 574.199 65.4004C573.288 66.8652 572.116 68.0208 570.684 68.8672C569.251 69.7135 567.542 70.1367 565.557 70.1367C563.506 70.1367 561.748 69.7135 560.283 68.8672C558.851 68.0208 557.679 66.8652 556.768 65.4004C555.856 63.9681 555.189 62.2917 554.766 60.3711C554.342 58.418 554.131 56.3346 554.131 54.1211ZM601.104 53.1934V54.2188C601.104 58.0599 601.592 61.6243 602.568 64.9121C603.577 68.1673 605.01 70.9831 606.865 73.3594C608.721 75.7357 610.951 77.6074 613.555 78.9746C616.191 80.3092 619.154 80.9766 622.441 80.9766C624.102 80.9766 625.648 80.7975 627.08 80.4395C628.545 80.0814 629.88 79.5768 631.084 78.9258C631.898 78.4701 632.663 77.9492 633.379 77.3633C634.095 76.7773 634.779 76.1263 635.43 75.4102V78.4375C635.43 80.2279 635.169 81.8392 634.648 83.2715C634.16 84.7038 633.444 85.9082 632.5 86.8848C631.458 87.959 630.156 88.7728 628.594 89.3262C627.064 89.8796 625.306 90.1562 623.32 90.1562C622.083 90.1562 620.879 90.026 619.707 89.7656C618.568 89.5378 617.461 89.1797 616.387 88.6914C615.28 88.2031 614.222 87.5684 613.213 86.7871C612.204 86.0384 611.26 85.1595 610.381 84.1504L604.277 92.4023C605.417 93.8672 606.784 95.1204 608.379 96.1621C609.974 97.2363 611.667 98.1152 613.457 98.7988C615.247 99.4824 617.054 99.987 618.877 100.312C620.7 100.638 622.409 100.801 624.004 100.801C627.715 100.801 631.1 100.296 634.16 99.2871C637.253 98.3105 639.906 96.862 642.119 94.9414C644.3 93.0208 645.993 90.6608 647.197 87.8613C648.434 85.0618 649.053 81.8717 649.053 78.291V27.168H636.699L636.162 32.1973C635.511 31.3835 634.795 30.651 634.014 30C633.232 29.3164 632.386 28.7305 631.475 28.2422C630.27 27.5586 628.919 27.054 627.422 26.7285C625.957 26.3704 624.329 26.1914 622.539 26.1914C619.219 26.1914 616.24 26.8424 613.604 28.1445C610.967 29.4466 608.721 31.2858 606.865 33.6621C605.01 36.0384 603.577 38.8867 602.568 42.207C601.592 45.5273 601.104 49.1895 601.104 53.1934ZM614.727 54.2188V53.1934C614.727 50.9798 614.954 48.9128 615.41 46.9922C615.866 45.0391 616.566 43.3301 617.51 41.8652C618.421 40.4329 619.577 39.3099 620.977 38.4961C622.376 37.6497 624.036 37.2266 625.957 37.2266C626.999 37.2266 627.959 37.3242 628.838 37.5195C629.749 37.7148 630.579 37.9915 631.328 38.3496C632.207 38.7728 632.988 39.3262 633.672 40.0098C634.355 40.6934 634.941 41.4909 635.43 42.4023V64.7656C634.974 65.5794 634.437 66.3118 633.818 66.9629C633.2 67.6139 632.484 68.1673 631.67 68.623C630.889 69.0462 630.01 69.3717 629.033 69.5996C628.089 69.8275 627.031 69.9414 625.859 69.9414C623.939 69.9414 622.279 69.5345 620.879 68.7207C619.479 67.9069 618.324 66.7839 617.412 65.3516C616.501 63.9518 615.817 62.3079 615.361 60.4199C614.938 58.4993 614.727 56.4323 614.727 54.2188ZM672.49 51.0938V52.168C672.49 56.7904 672.832 61.1198 673.516 65.1562C674.232 69.1927 675.192 72.9199 676.396 76.3379C677.601 79.7884 679.001 82.9297 680.596 85.7617C682.223 88.5938 683.932 91.084 685.723 93.2324C687.513 95.4134 689.352 97.2689 691.24 98.7988C693.161 100.329 695.016 101.501 696.807 102.314L699.443 94.9902C698.174 94.0137 696.888 92.793 695.586 91.3281C694.284 89.8633 693.047 88.138 691.875 86.1523C690.768 84.3294 689.727 82.1973 688.75 79.7559C687.806 77.3145 686.976 74.6615 686.26 71.7969C685.739 69.7461 685.251 66.9954 684.795 63.5449C684.372 60.0944 684.16 56.3346 684.16 52.2656V50.9961C684.16 46.862 684.388 43.0371 684.844 39.5215C685.299 36.0059 685.902 32.7995 686.65 29.9023C687.497 26.9076 688.473 24.1406 689.58 21.6016C690.719 19.0625 691.94 16.8652 693.242 15.0098C694.251 13.5775 695.277 12.3079 696.318 11.2012C697.36 10.0944 698.402 9.15039 699.443 8.36914L696.807 0.947266C695.016 1.76107 693.161 2.93294 691.24 4.46289C689.352 5.96029 687.513 7.79948 685.723 9.98047C683.932 12.1615 682.223 14.668 680.596 17.5C679.001 20.332 677.601 23.457 676.396 26.875C675.192 30.3255 674.232 34.0853 673.516 38.1543C672.832 42.1908 672.49 46.5039 672.49 51.0938ZM731.621 21.9922V30.5859H742.51V21.9434C742.51 18.7858 742.917 16.0026 743.73 13.5938C744.544 11.1523 745.57 8.8737 746.807 6.75781L740.557 2.90039C739.287 4.03971 738.115 5.35807 737.041 6.85547C735.967 8.35286 735.023 9.94792 734.209 11.6406C733.395 13.3333 732.76 15.0749 732.305 16.8652C731.849 18.623 731.621 20.332 731.621 21.9922ZM748.271 21.9922V30.5859H759.16V21.9434C759.16 18.7858 759.567 16.0026 760.381 13.5938C761.195 11.1523 762.22 8.8737 763.457 6.75781L757.207 2.90039C755.938 4.03971 754.766 5.35807 753.691 6.85547C752.617 8.35286 751.673 9.94792 750.859 11.6406C750.046 13.3333 749.411 15.0749 748.955 16.8652C748.499 18.623 748.271 20.332 748.271 21.9922ZM796.221 34.4434V5H782.646V80H796.221V41.8652C796.742 41.1816 797.311 40.5632 797.93 40.0098C798.581 39.4564 799.297 38.9844 800.078 38.5938C800.924 38.138 801.868 37.7962 802.91 37.5684C803.952 37.3405 805.075 37.2266 806.279 37.2266C807.842 37.2266 809.242 37.4382 810.479 37.8613C811.715 38.252 812.773 38.8704 813.652 39.7168C814.531 40.5632 815.199 41.6699 815.654 43.0371C816.143 44.4043 816.387 46.0319 816.387 47.9199V80H829.961V48.0176C829.961 44.1439 829.489 40.8398 828.545 38.1055C827.633 35.3385 826.348 33.0762 824.688 31.3184C823.027 29.5605 821.042 28.2747 818.73 27.4609C816.419 26.6146 813.88 26.1914 811.113 26.1914C809.225 26.1914 807.435 26.4681 805.742 27.0215C804.049 27.5749 802.503 28.3561 801.104 29.3652C800.192 30.0163 799.313 30.7812 798.467 31.6602C797.653 32.5065 796.904 33.4342 796.221 34.4434ZM868.34 80.9766C873.451 80.9766 877.878 79.9837 881.621 77.998C885.365 76.0124 888.099 73.7988 889.824 71.3574L883.037 64.0332C881.475 66.0514 879.44 67.5651 876.934 68.5742C874.427 69.5833 871.839 70.0879 869.17 70.0879C867.282 70.0879 865.54 69.7949 863.945 69.209C862.35 68.623 860.934 67.793 859.697 66.7188C858.493 65.6771 857.533 64.5215 856.816 63.252C856.1 61.9499 855.514 60.2409 855.059 58.125V57.9785H890.898V52.2168C890.898 48.3431 890.361 44.8112 889.287 41.6211C888.213 38.3984 886.65 35.6478 884.6 33.3691C882.516 31.0905 879.977 29.3327 876.982 28.0957C874.02 26.8262 870.635 26.1914 866.826 26.1914C863.148 26.1914 859.746 26.8587 856.621 28.1934C853.496 29.528 850.794 31.3997 848.516 33.8086C846.237 36.2174 844.463 39.0983 843.193 42.4512C841.924 45.7715 841.289 49.4499 841.289 53.4863V55.4395C841.289 58.9876 841.924 62.3242 843.193 65.4492C844.495 68.5417 846.335 71.2272 848.711 73.5059C851.087 75.8171 853.936 77.64 857.256 78.9746C860.576 80.3092 864.271 80.9766 868.34 80.9766ZM866.729 37.1777C868.454 37.1777 869.967 37.4544 871.27 38.0078C872.604 38.5286 873.727 39.2448 874.639 40.1562C875.55 41.1003 876.266 42.207 876.787 43.4766C877.308 44.7461 877.568 46.097 877.568 47.5293V48.6035H855.303C855.628 46.8783 856.117 45.3158 856.768 43.916C857.419 42.5163 858.232 41.3118 859.209 40.3027C860.153 39.2936 861.26 38.5286 862.529 38.0078C863.799 37.4544 865.199 37.1777 866.729 37.1777ZM905.596 5V16.084H921.416V68.9648H905.596V80H950.273V68.9648H935.137V5H905.596ZM965.654 5V16.084H981.475V68.9648H965.654V80H1010.33V68.9648H995.195V5H965.654ZM1021.03 53.0957V54.1211C1021.03 57.9948 1021.58 61.5755 1022.69 64.8633C1023.79 68.1185 1025.42 70.9505 1027.57 73.3594C1029.68 75.7682 1032.29 77.6562 1035.38 79.0234C1038.51 80.3581 1042.05 81.0254 1046.03 81.0254C1049.96 81.0254 1053.48 80.3581 1056.57 79.0234C1059.66 77.6562 1062.27 75.7682 1064.38 73.3594C1066.5 70.9505 1068.11 68.1185 1069.22 64.8633C1070.33 61.5755 1070.88 57.9948 1070.88 54.1211V53.0957C1070.88 49.2546 1070.33 45.7064 1069.22 42.4512C1068.11 39.1634 1066.5 36.3151 1064.38 33.9062C1062.24 31.4974 1059.62 29.6094 1056.52 28.2422C1053.43 26.875 1049.9 26.1914 1045.93 26.1914C1041.96 26.1914 1038.42 26.875 1035.33 28.2422C1032.27 29.6094 1029.68 31.4974 1027.57 33.9062C1025.42 36.3151 1023.79 39.1634 1022.69 42.4512C1021.58 45.7064 1021.03 49.2546 1021.03 53.0957ZM1034.6 54.1211V53.0957C1034.6 50.9473 1034.81 48.9128 1035.23 46.9922C1035.66 45.0716 1036.32 43.3789 1037.24 41.9141C1038.15 40.4492 1039.32 39.2936 1040.75 38.4473C1042.18 37.6009 1043.91 37.1777 1045.93 37.1777C1047.98 37.1777 1049.72 37.6009 1051.15 38.4473C1052.58 39.2936 1053.76 40.4492 1054.67 41.9141C1055.55 43.3789 1056.2 45.0716 1056.62 46.9922C1057.04 48.9128 1057.26 50.9473 1057.26 53.0957V54.1211C1057.26 56.3346 1057.04 58.418 1056.62 60.3711C1056.2 62.2917 1055.55 63.9681 1054.67 65.4004C1053.76 66.8652 1052.58 68.0208 1051.15 68.8672C1049.72 69.7135 1048.01 70.1367 1046.03 70.1367C1043.97 70.1367 1042.22 69.7135 1040.75 68.8672C1039.32 68.0208 1038.15 66.8652 1037.24 65.4004C1036.32 63.9681 1035.66 62.2917 1035.23 60.3711C1034.81 58.418 1034.6 56.3346 1034.6 54.1211ZM1146.9 80H1158.82L1164.43 51.7773L1165.51 46.4062L1166.63 51.7773L1172.44 80H1184.36L1193.83 27.168H1181.38L1177.47 58.3203L1176.79 63.4473L1175.86 58.418L1170.15 27.168H1161.06L1155.35 58.5645L1154.42 63.5938L1153.79 58.5645L1149.83 27.168H1137.43L1146.9 80ZM1201.2 53.0957V54.1211C1201.2 57.9948 1201.75 61.5755 1202.86 64.8633C1203.97 68.1185 1205.6 70.9505 1207.74 73.3594C1209.86 75.7682 1212.46 77.6562 1215.56 79.0234C1218.68 80.3581 1222.23 81.0254 1226.2 81.0254C1230.14 81.0254 1233.66 80.3581 1236.75 79.0234C1239.84 77.6562 1242.44 75.7682 1244.56 73.3594C1246.68 70.9505 1248.29 68.1185 1249.39 64.8633C1250.5 61.5755 1251.05 57.9948 1251.05 54.1211V53.0957C1251.05 49.2546 1250.5 45.7064 1249.39 42.4512C1248.29 39.1634 1246.68 36.3151 1244.56 33.9062C1242.41 31.4974 1239.79 29.6094 1236.7 28.2422C1233.61 26.875 1230.07 26.1914 1226.1 26.1914C1222.13 26.1914 1218.6 26.875 1215.51 28.2422C1212.45 29.6094 1209.86 31.4974 1207.74 33.9062C1205.6 36.3151 1203.97 39.1634 1202.86 42.4512C1201.75 45.7064 1201.2 49.2546 1201.2 53.0957ZM1214.78 54.1211V53.0957C1214.78 50.9473 1214.99 48.9128 1215.41 46.9922C1215.83 45.0716 1216.5 43.3789 1217.41 41.9141C1218.32 40.4492 1219.5 39.2936 1220.93 38.4473C1222.36 37.6009 1224.09 37.1777 1226.1 37.1777C1228.15 37.1777 1229.9 37.6009 1231.33 38.4473C1232.76 39.2936 1233.93 40.4492 1234.84 41.9141C1235.72 43.3789 1236.37 45.0716 1236.8 46.9922C1237.22 48.9128 1237.43 50.9473 1237.43 53.0957V54.1211C1237.43 56.3346 1237.22 58.418 1236.8 60.3711C1236.37 62.2917 1235.72 63.9681 1234.84 65.4004C1233.93 66.8652 1232.76 68.0208 1231.33 68.8672C1229.9 69.7135 1228.19 70.1367 1226.2 70.1367C1224.15 70.1367 1222.39 69.7135 1220.93 68.8672C1219.5 68.0208 1218.32 66.8652 1217.41 65.4004C1216.5 63.9681 1215.83 62.2917 1215.41 60.3711C1214.99 58.418 1214.78 56.3346 1214.78 54.1211ZM1301.05 26.1914C1297.51 26.1914 1294.24 27.054 1291.24 28.7793C1288.25 30.472 1285.67 32.8158 1283.53 35.8105L1283.43 34.6387L1282.89 27.168H1270.24V80H1283.82V48.2617C1284.44 46.7643 1285.22 45.4622 1286.16 44.3555C1287.11 43.2487 1288.25 42.3372 1289.58 41.6211C1290.69 41.0026 1291.94 40.5469 1293.34 40.2539C1294.77 39.9284 1296.37 39.7656 1298.12 39.7656C1299.82 39.7656 1301.59 39.8796 1303.45 40.1074C1305.34 40.3027 1307.17 40.612 1308.96 41.0352L1310.97 27.5098C1309.89 27.1842 1308.48 26.8913 1306.72 26.6309C1304.99 26.3379 1303.11 26.1914 1301.05 26.1914ZM1326.01 5V16.084H1341.83V68.9648H1326.01V80H1370.68V68.9648H1355.55V5H1326.01ZM1381.82 53.1934V54.2188C1381.82 58.0599 1382.29 61.6243 1383.23 64.9121C1384.18 68.1673 1385.54 70.9831 1387.33 73.3594C1389.09 75.7357 1391.24 77.6074 1393.78 78.9746C1396.35 80.3092 1399.25 80.9766 1402.47 80.9766C1405.43 80.9766 1408.04 80.4069 1410.28 79.2676C1412.53 78.1283 1414.48 76.5332 1416.14 74.4824L1416.83 80H1429.08V5H1415.46V31.9043C1413.83 30.0814 1411.96 28.6816 1409.84 27.7051C1407.76 26.696 1405.34 26.1914 1402.57 26.1914C1399.28 26.1914 1396.35 26.8424 1393.78 28.1445C1391.24 29.4466 1389.08 31.2858 1387.29 33.6621C1385.49 36.0384 1384.13 38.8867 1383.18 42.207C1382.27 45.5273 1381.82 49.1895 1381.82 53.1934ZM1395.39 54.2188V53.1934C1395.39 50.9798 1395.59 48.9128 1395.98 46.9922C1396.37 45.0391 1396.99 43.3301 1397.83 41.8652C1398.68 40.4329 1399.77 39.3099 1401.1 38.4961C1402.47 37.6497 1404.11 37.2266 1406.04 37.2266C1408.35 37.2266 1410.27 37.7311 1411.8 38.7402C1413.33 39.7168 1414.55 41.1003 1415.46 42.8906V64.2773C1414.55 66.0352 1413.31 67.4186 1411.75 68.4277C1410.22 69.4368 1408.28 69.9414 1405.94 69.9414C1404.02 69.9414 1402.39 69.5345 1401.05 68.7207C1399.72 67.9069 1398.63 66.7839 1397.78 65.3516C1396.94 63.9518 1396.32 62.3079 1395.93 60.4199C1395.57 58.4993 1395.39 56.4323 1395.39 54.2188ZM1472.59 55.1465L1473.37 8.90625H1459.45L1460.23 55.1465H1472.59ZM1458.48 73.3594C1458.48 75.4427 1459.18 77.2005 1460.58 78.6328C1461.98 80.0326 1463.91 80.7324 1466.39 80.7324C1468.8 80.7324 1470.72 80.0326 1472.15 78.6328C1473.58 77.2005 1474.3 75.4427 1474.3 73.3594C1474.3 71.2109 1473.58 69.4206 1472.15 67.9883C1470.72 66.556 1468.8 65.8398 1466.39 65.8398C1463.91 65.8398 1461.98 66.556 1460.58 67.9883C1459.18 69.4206 1458.48 71.2109 1458.48 73.3594ZM1526.25 12.2754V3.82812H1515.36V12.2754C1515.36 15.4329 1514.95 18.2324 1514.14 20.6738C1513.36 23.1152 1512.35 25.3939 1511.11 27.5098L1517.31 31.3672C1518.58 30.2279 1519.76 28.9095 1520.83 27.4121C1521.9 25.8822 1522.85 24.2708 1523.66 22.5781C1524.48 20.918 1525.11 19.209 1525.57 17.4512C1526.02 15.6608 1526.25 13.9355 1526.25 12.2754ZM1543.78 12.2754V3.82812H1532.89V12.2754C1532.89 15.4329 1532.48 18.2324 1531.67 20.6738C1530.89 23.1152 1529.88 25.3939 1528.64 27.5098L1534.84 31.3672C1536.11 30.2279 1537.29 28.9095 1538.36 27.4121C1539.43 25.8822 1540.38 24.2708 1541.19 22.5781C1542.01 20.918 1542.64 19.209 1543.1 17.4512C1543.55 15.6608 1543.78 13.9355 1543.78 12.2754ZM1599.54 52.168V51.0938C1599.54 46.6341 1599.18 42.4186 1598.47 38.4473C1597.75 34.4434 1596.77 30.7161 1595.54 27.2656C1594.3 23.8151 1592.85 20.6738 1591.19 17.8418C1589.56 14.9772 1587.82 12.4219 1585.97 10.1758C1584.11 7.96224 1582.21 6.07422 1580.25 4.51172C1578.3 2.94922 1576.4 1.76107 1574.54 0.947266L1571.95 8.22266C1572.93 8.97135 1573.91 9.88281 1574.88 10.957C1575.89 11.9987 1576.87 13.1868 1577.81 14.5215C1579.21 16.5397 1580.53 18.9323 1581.77 21.6992C1583.04 24.4661 1584.11 27.5911 1584.99 31.0742C1585.67 33.8737 1586.21 36.9336 1586.6 40.2539C1587.02 43.5742 1587.24 47.1549 1587.24 50.9961V52.2656C1587.24 56.2044 1587.02 59.8665 1586.6 63.252C1586.21 66.6374 1585.67 69.7298 1584.99 72.5293C1584.18 75.5892 1583.23 78.3561 1582.16 80.8301C1581.12 83.304 1579.96 85.5176 1578.69 87.4707C1577.62 89.1309 1576.51 90.5794 1575.37 91.8164C1574.23 93.0859 1573.09 94.1439 1571.95 94.9902L1574.54 102.314C1576.4 101.501 1578.3 100.312 1580.25 98.75C1582.21 97.1875 1584.11 95.2832 1585.97 93.0371C1587.82 90.8236 1589.56 88.2845 1591.19 85.4199C1592.85 82.5879 1594.3 79.4466 1595.54 75.9961C1596.77 72.5456 1597.75 68.8346 1598.47 64.8633C1599.18 60.8594 1599.54 56.6276 1599.54 52.168ZM1639.78 31.8066C1639.78 34.3132 1640.62 36.4128 1642.31 38.1055C1644.01 39.7982 1646.3 40.6445 1649.2 40.6445C1652.06 40.6445 1654.34 39.8145 1656.04 38.1543C1657.76 36.4616 1658.62 34.3457 1658.62 31.8066C1658.62 29.2676 1657.78 27.1354 1656.08 25.4102C1654.42 23.6849 1652.13 22.8223 1649.2 22.8223C1646.24 22.8223 1643.93 23.7012 1642.27 25.459C1640.61 27.1842 1639.78 29.3001 1639.78 31.8066ZM1654.96 78.9258L1655.01 68.1348H1642.27V79.5605C1642.27 83.1413 1641.84 86.2012 1641 88.7402C1640.15 91.3118 1639.11 93.7695 1637.87 96.1133L1645.05 99.8242C1647.98 97.2201 1650.35 94.0137 1652.18 90.2051C1654.03 86.3965 1654.96 82.6367 1654.96 78.9258Z" fill="#000020"/>
</svg>
