<svg width="2080" height="103" viewBox="0 0 2080 103" fill="none" xmlns="http://www.w3.org/2000/svg">
<path d="M25.2734 70.1367C23.0924 70.1367 21.2858 69.6973 19.8535 68.8184C18.4538 67.9395 17.347 66.7676 16.5332 65.3027C15.6868 63.8704 15.1009 62.2103 14.7754 60.3223C14.4499 58.4017 14.2871 56.416 14.2871 54.3652V52.9004C14.2871 50.8822 14.4499 48.929 14.7754 47.041C15.1335 45.153 15.7357 43.4766 16.582 42.0117C17.3958 40.5469 18.5026 39.375 19.9023 38.4961C21.3021 37.6172 23.0762 37.1777 25.2246 37.1777C26.6895 37.1777 28.0404 37.4382 29.2773 37.959C30.5143 38.4473 31.5723 39.1146 32.4512 39.9609C33.3301 40.8073 33.9974 41.8164 34.4531 42.9883C34.9089 44.1602 35.1042 45.3971 35.0391 46.6992H47.832C47.8971 43.5742 47.3763 40.7585 46.2695 38.252C45.1628 35.7129 43.6165 33.5482 41.6309 31.7578C39.6126 30 37.2201 28.6328 34.4531 27.6562C31.6862 26.6797 28.6751 26.1914 25.4199 26.1914C21.3509 26.1914 17.7702 26.8913 14.6777 28.291C11.6178 29.6908 9.04622 31.5951 6.96289 34.0039C4.87956 36.4128 3.31706 39.2448 2.27539 42.5C1.23372 45.7227 0.712891 49.1895 0.712891 52.9004V54.3652C0.712891 58.0762 1.23372 61.5592 2.27539 64.8145C3.34961 68.0371 4.92839 70.8529 7.01172 73.2617C9.0625 75.6706 11.6341 77.5749 14.7266 78.9746C17.819 80.3418 21.416 81.0254 25.5176 81.0254C28.5449 81.0254 31.4095 80.5534 34.1113 79.6094C36.8457 78.6328 39.2383 77.2982 41.2891 75.6055C43.3398 73.9128 44.9512 71.8945 46.123 69.5508C47.3275 67.207 47.8971 64.668 47.832 61.9336H35.0391C35.1042 63.1706 34.8763 64.2936 34.3555 65.3027C33.8672 66.3118 33.1673 67.1745 32.2559 67.8906C31.3444 68.6068 30.2865 69.1602 29.082 69.5508C27.8776 69.9414 26.6081 70.1367 25.2734 70.1367ZM60.0879 53.0957V54.1211C60.0879 57.9948 60.6413 61.5755 61.748 64.8633C62.8548 68.1185 64.4824 70.9505 66.6309 73.3594C68.7467 75.7682 71.3509 77.6562 74.4434 79.0234C77.5684 80.3581 81.1165 81.0254 85.0879 81.0254C89.0267 81.0254 92.5423 80.3581 95.6348 79.0234C98.7272 77.6562 101.331 75.7682 103.447 73.3594C105.563 70.9505 107.174 68.1185 108.281 64.8633C109.388 61.5755 109.941 57.9948 109.941 54.1211V53.0957C109.941 49.2546 109.388 45.7064 108.281 42.4512C107.174 39.1634 105.563 36.3151 103.447 33.9062C101.299 31.4974 98.6784 29.6094 95.5859 28.2422C92.4935 26.875 88.9616 26.1914 84.9902 26.1914C81.0189 26.1914 77.487 26.875 74.3945 28.2422C71.3346 29.6094 68.7467 31.4974 66.6309 33.9062C64.4824 36.3151 62.8548 39.1634 61.748 42.4512C60.6413 45.7064 60.0879 49.2546 60.0879 53.0957ZM73.6621 54.1211V53.0957C73.6621 50.9473 73.8737 48.9128 74.2969 46.9922C74.7201 45.0716 75.3874 43.3789 76.2988 41.9141C77.2103 40.4492 78.3822 39.2936 79.8145 38.4473C81.2467 37.6009 82.972 37.1777 84.9902 37.1777C87.041 37.1777 88.7826 37.6009 90.2148 38.4473C91.6471 39.2936 92.819 40.4492 93.7305 41.9141C94.6094 43.3789 95.2604 45.0716 95.6836 46.9922C96.1068 48.9128 96.3184 50.9473 96.3184 53.0957V54.1211C96.3184 56.3346 96.1068 58.418 95.6836 60.3711C95.2604 62.2917 94.6094 63.9681 93.7305 65.4004C92.819 66.8652 91.6471 68.0208 90.2148 68.8672C88.7826 69.7135 87.0736 70.1367 85.0879 70.1367C83.0371 70.1367 81.2793 69.7135 79.8145 68.8672C78.3822 68.0208 77.2103 66.8652 76.2988 65.4004C75.3874 63.9681 74.7201 62.2917 74.2969 60.3711C73.8737 58.418 73.6621 56.3346 73.6621 54.1211ZM122.002 80H135.625V42.4512C136.081 41.735 136.585 41.084 137.139 40.498C137.692 39.9121 138.311 39.4076 138.994 38.9844C139.84 38.3984 140.801 37.959 141.875 37.666C142.982 37.373 144.186 37.2266 145.488 37.2266C147.051 37.2266 148.451 37.3893 149.688 37.7148C150.924 38.0078 151.982 38.5449 152.861 39.3262C153.74 40.1074 154.408 41.1816 154.863 42.5488C155.352 43.8835 155.596 45.5924 155.596 47.6758V80H169.17V47.4805C169.17 43.6393 168.714 40.3841 167.803 37.7148C166.924 35.013 165.687 32.7995 164.092 31.0742C162.464 29.3815 160.544 28.1445 158.33 27.3633C156.117 26.582 153.675 26.1914 151.006 26.1914C148.923 26.1914 146.953 26.4844 145.098 27.0703C143.242 27.6562 141.533 28.5026 139.971 29.6094C139.059 30.2604 138.197 30.9928 137.383 31.8066C136.569 32.6204 135.82 33.5156 135.137 34.4922L134.307 27.168H122.002V80ZM216.143 65.498C216.143 66.3118 215.931 67.0605 215.508 67.7441C215.117 68.4277 214.515 69.0299 213.701 69.5508C212.855 70.0716 211.764 70.4948 210.43 70.8203C209.128 71.1133 207.598 71.2598 205.84 71.2598C204.375 71.2598 202.943 71.1133 201.543 70.8203C200.176 70.5273 198.955 70.0553 197.881 69.4043C196.807 68.7858 195.928 67.972 195.244 66.9629C194.561 65.9212 194.17 64.6842 194.072 63.252H181.133C181.133 65.4004 181.654 67.5488 182.695 69.6973C183.77 71.8132 185.332 73.7012 187.383 75.3613C189.434 77.054 191.973 78.4212 195 79.4629C198.06 80.5046 201.576 81.0254 205.547 81.0254C209.16 81.0254 212.432 80.6348 215.361 79.8535C218.291 79.0397 220.798 77.9167 222.881 76.4844C224.932 75.0521 226.51 73.3594 227.617 71.4062C228.757 69.4206 229.326 67.2559 229.326 64.9121C229.326 62.373 228.757 60.1921 227.617 58.3691C226.51 56.5137 224.964 54.9349 222.979 53.6328C220.993 52.3633 218.633 51.3216 215.898 50.5078C213.164 49.694 210.202 49.0267 207.012 48.5059C204.798 48.1803 202.975 47.806 201.543 47.3828C200.111 46.9271 198.988 46.4225 198.174 45.8691C197.327 45.3483 196.742 44.7624 196.416 44.1113C196.09 43.4277 195.928 42.6953 195.928 41.9141C195.928 41.1328 196.107 40.4004 196.465 39.7168C196.855 39.0007 197.409 38.3822 198.125 37.8613C198.906 37.2754 199.915 36.8197 201.152 36.4941C202.389 36.1686 203.838 36.0059 205.498 36.0059C207.451 36.0059 209.111 36.25 210.479 36.7383C211.878 37.2266 212.985 37.8776 213.799 38.6914C214.385 39.3099 214.824 40.0098 215.117 40.791C215.41 41.5397 215.557 42.3535 215.557 43.2324H229.131C229.131 40.791 228.594 38.5286 227.52 36.4453C226.445 34.362 224.899 32.5553 222.881 31.0254C220.83 29.528 218.34 28.3561 215.41 27.5098C212.48 26.6309 209.176 26.1914 205.498 26.1914C201.982 26.1914 198.825 26.6309 196.025 27.5098C193.226 28.3887 190.85 29.5768 188.896 31.0742C186.943 32.5716 185.446 34.3132 184.404 36.2988C183.363 38.2845 182.842 40.3678 182.842 42.5488C182.842 44.7949 183.346 46.7806 184.355 48.5059C185.397 50.2311 186.829 51.7448 188.652 53.0469C190.475 54.3815 192.656 55.5208 195.195 56.4648C197.767 57.3763 200.599 58.1413 203.691 58.7598C206.133 59.2155 208.151 59.6712 209.746 60.127C211.341 60.5827 212.627 61.071 213.604 61.5918C214.548 62.1452 215.199 62.7311 215.557 63.3496C215.947 63.9681 216.143 64.6842 216.143 65.498ZM267.021 14.2285H253.447V27.168H241.387V37.1777H253.447V61.2012C253.447 64.6842 253.903 67.679 254.814 70.1855C255.726 72.6595 257.028 74.694 258.721 76.2891C260.381 77.9167 262.383 79.1211 264.727 79.9023C267.103 80.651 269.74 81.0254 272.637 81.0254C274.134 81.0254 275.648 80.944 277.178 80.7812C278.74 80.651 280.238 80.4557 281.67 80.1953C283.102 79.9349 284.453 79.6094 285.723 79.2188C286.992 78.7956 288.099 78.3073 289.043 77.7539L287.725 68.4277C287.106 68.5905 286.357 68.7533 285.479 68.916C284.632 69.0788 283.721 69.2253 282.744 69.3555C281.735 69.5182 280.677 69.6484 279.57 69.7461C278.496 69.8438 277.438 69.8926 276.396 69.8926C274.964 69.8926 273.662 69.7298 272.49 69.4043C271.351 69.0788 270.374 68.5254 269.561 67.7441C268.747 66.9954 268.112 65.9863 267.656 64.7168C267.233 63.4147 267.021 61.8034 267.021 59.8828V37.1777H286.748V27.168H267.021V14.2285ZM387.871 80.9766C392.982 80.9766 397.409 79.9837 401.152 77.998C404.896 76.0124 407.63 73.7988 409.355 71.3574L402.568 64.0332C401.006 66.0514 398.971 67.5651 396.465 68.5742C393.958 69.5833 391.37 70.0879 388.701 70.0879C386.813 70.0879 385.072 69.7949 383.477 69.209C381.882 68.623 380.465 67.793 379.229 66.7188C378.024 65.6771 377.064 64.5215 376.348 63.252C375.632 61.9499 375.046 60.2409 374.59 58.125V57.9785H410.43V52.2168C410.43 48.3431 409.893 44.8112 408.818 41.6211C407.744 38.3984 406.182 35.6478 404.131 33.3691C402.048 31.0905 399.508 29.3327 396.514 28.0957C393.551 26.8262 390.166 26.1914 386.357 26.1914C382.679 26.1914 379.277 26.8587 376.152 28.1934C373.027 29.528 370.326 31.3997 368.047 33.8086C365.768 36.2174 363.994 39.0983 362.725 42.4512C361.455 45.7715 360.82 49.4499 360.82 53.4863V55.4395C360.82 58.9876 361.455 62.3242 362.725 65.4492C364.027 68.5417 365.866 71.2272 368.242 73.5059C370.618 75.8171 373.467 77.64 376.787 78.9746C380.107 80.3092 383.802 80.9766 387.871 80.9766ZM386.26 37.1777C387.985 37.1777 389.499 37.4544 390.801 38.0078C392.135 38.5286 393.258 39.2448 394.17 40.1562C395.081 41.1003 395.798 42.207 396.318 43.4766C396.839 44.7461 397.1 46.097 397.1 47.5293V48.6035H374.834C375.16 46.8783 375.648 45.3158 376.299 43.916C376.95 42.5163 377.764 41.3118 378.74 40.3027C379.684 39.2936 380.791 38.5286 382.061 38.0078C383.33 37.4544 384.73 37.1777 386.26 37.1777ZM446.465 43.6719L435.039 27.168H420.439L438.115 53.0957L419.756 80H434.453L446.514 62.7148L458.672 80H473.32L454.961 53.0957L472.686 27.168H458.086L446.465 43.6719ZM482.549 100.312H496.123V75.4102C496.742 76.0938 497.393 76.7122 498.076 77.2656C498.76 77.819 499.476 78.3236 500.225 78.7793C501.494 79.4954 502.861 80.0326 504.326 80.3906C505.824 80.7812 507.451 80.9766 509.209 80.9766C512.529 80.9766 515.475 80.293 518.047 78.9258C520.618 77.5586 522.783 75.6706 524.541 73.2617C526.266 70.8854 527.568 68.0534 528.447 64.7656C529.359 61.4779 529.814 57.9134 529.814 54.0723V53.0469C529.814 49.043 529.359 45.3971 528.447 42.1094C527.568 38.7891 526.25 35.9408 524.492 33.5645C522.734 31.2207 520.57 29.4141 517.998 28.1445C515.426 26.8424 512.464 26.1914 509.111 26.1914C507.484 26.1914 505.954 26.3704 504.521 26.7285C503.122 27.054 501.836 27.526 500.664 28.1445C499.688 28.6654 498.776 29.2839 497.93 30C497.083 30.6836 496.302 31.4648 495.586 32.3438L495.098 27.168H482.549V100.312ZM516.24 53.0469V54.0723C516.24 56.2533 516.045 58.3203 515.654 60.2734C515.264 62.194 514.645 63.8867 513.799 65.3516C512.952 66.8164 511.846 67.972 510.479 68.8184C509.144 69.6647 507.516 70.0879 505.596 70.0879C504.391 70.0879 503.301 69.974 502.324 69.7461C501.348 69.4857 500.485 69.1276 499.736 68.6719C498.955 68.1836 498.255 67.5977 497.637 66.9141C497.051 66.2305 496.546 65.4655 496.123 64.6191V42.5488C496.579 41.6374 497.116 40.8398 497.734 40.1562C498.385 39.4727 499.134 38.903 499.98 38.4473C500.729 38.0566 501.559 37.7637 502.471 37.5684C503.382 37.3405 504.391 37.2266 505.498 37.2266C507.419 37.2266 509.046 37.6335 510.381 38.4473C511.748 39.2611 512.871 40.3678 513.75 41.7676C514.596 43.1999 515.215 44.8926 515.605 46.8457C516.029 48.7663 516.24 50.8333 516.24 53.0469ZM580.352 26.1914C576.803 26.1914 573.532 27.054 570.537 28.7793C567.542 30.472 564.971 32.8158 562.822 35.8105L562.725 34.6387L562.188 27.168H549.541V80H563.115V48.2617C563.734 46.7643 564.515 45.4622 565.459 44.3555C566.403 43.2487 567.542 42.3372 568.877 41.6211C569.984 41.0026 571.237 40.5469 572.637 40.2539C574.069 39.9284 575.664 39.7656 577.422 39.7656C579.115 39.7656 580.889 39.8796 582.744 40.1074C584.632 40.3027 586.471 40.612 588.262 41.0352L590.264 27.5098C589.189 27.1842 587.773 26.8913 586.016 26.6309C584.29 26.3379 582.402 26.1914 580.352 26.1914ZM628.105 80.9766C633.216 80.9766 637.643 79.9837 641.387 77.998C645.13 76.0124 647.865 73.7988 649.59 71.3574L642.803 64.0332C641.24 66.0514 639.206 67.5651 636.699 68.5742C634.193 69.5833 631.605 70.0879 628.936 70.0879C627.048 70.0879 625.306 69.7949 623.711 69.209C622.116 68.623 620.7 67.793 619.463 66.7188C618.258 65.6771 617.298 64.5215 616.582 63.252C615.866 61.9499 615.28 60.2409 614.824 58.125V57.9785H650.664V52.2168C650.664 48.3431 650.127 44.8112 649.053 41.6211C647.979 38.3984 646.416 35.6478 644.365 33.3691C642.282 31.0905 639.743 29.3327 636.748 28.0957C633.786 26.8262 630.4 26.1914 626.592 26.1914C622.913 26.1914 619.512 26.8587 616.387 28.1934C613.262 29.528 610.56 31.3997 608.281 33.8086C606.003 36.2174 604.229 39.0983 602.959 42.4512C601.689 45.7715 601.055 49.4499 601.055 53.4863V55.4395C601.055 58.9876 601.689 62.3242 602.959 65.4492C604.261 68.5417 606.1 71.2272 608.477 73.5059C610.853 75.8171 613.701 77.64 617.021 78.9746C620.342 80.3092 624.036 80.9766 628.105 80.9766ZM626.494 37.1777C628.219 37.1777 629.733 37.4544 631.035 38.0078C632.37 38.5286 633.493 39.2448 634.404 40.1562C635.316 41.1003 636.032 42.207 636.553 43.4766C637.074 44.7461 637.334 46.097 637.334 47.5293V48.6035H615.068C615.394 46.8783 615.882 45.3158 616.533 43.916C617.184 42.5163 617.998 41.3118 618.975 40.3027C619.919 39.2936 621.025 38.5286 622.295 38.0078C623.564 37.4544 624.964 37.1777 626.494 37.1777ZM696.611 65.498C696.611 66.3118 696.4 67.0605 695.977 67.7441C695.586 68.4277 694.984 69.0299 694.17 69.5508C693.324 70.0716 692.233 70.4948 690.898 70.8203C689.596 71.1133 688.066 71.2598 686.309 71.2598C684.844 71.2598 683.411 71.1133 682.012 70.8203C680.645 70.5273 679.424 70.0553 678.35 69.4043C677.275 68.7858 676.396 67.972 675.713 66.9629C675.029 65.9212 674.639 64.6842 674.541 63.252H661.602C661.602 65.4004 662.122 67.5488 663.164 69.6973C664.238 71.8132 665.801 73.7012 667.852 75.3613C669.902 77.054 672.441 78.4212 675.469 79.4629C678.529 80.5046 682.044 81.0254 686.016 81.0254C689.629 81.0254 692.9 80.6348 695.83 79.8535C698.76 79.0397 701.266 77.9167 703.35 76.4844C705.4 75.0521 706.979 73.3594 708.086 71.4062C709.225 69.4206 709.795 67.2559 709.795 64.9121C709.795 62.373 709.225 60.1921 708.086 58.3691C706.979 56.5137 705.433 54.9349 703.447 53.6328C701.462 52.3633 699.102 51.3216 696.367 50.5078C693.633 49.694 690.671 49.0267 687.48 48.5059C685.267 48.1803 683.444 47.806 682.012 47.3828C680.579 46.9271 679.456 46.4225 678.643 45.8691C677.796 45.3483 677.21 44.7624 676.885 44.1113C676.559 43.4277 676.396 42.6953 676.396 41.9141C676.396 41.1328 676.576 40.4004 676.934 39.7168C677.324 39.0007 677.878 38.3822 678.594 37.8613C679.375 37.2754 680.384 36.8197 681.621 36.4941C682.858 36.1686 684.307 36.0059 685.967 36.0059C687.92 36.0059 689.58 36.25 690.947 36.7383C692.347 37.2266 693.454 37.8776 694.268 38.6914C694.854 39.3099 695.293 40.0098 695.586 40.791C695.879 41.5397 696.025 42.3535 696.025 43.2324H709.6C709.6 40.791 709.062 38.5286 707.988 36.4453C706.914 34.362 705.368 32.5553 703.35 31.0254C701.299 29.528 698.809 28.3561 695.879 27.5098C692.949 26.6309 689.645 26.1914 685.967 26.1914C682.451 26.1914 679.294 26.6309 676.494 27.5098C673.695 28.3887 671.318 29.5768 669.365 31.0742C667.412 32.5716 665.915 34.3132 664.873 36.2988C663.831 38.2845 663.311 40.3678 663.311 42.5488C663.311 44.7949 663.815 46.7806 664.824 48.5059C665.866 50.2311 667.298 51.7448 669.121 53.0469C670.944 54.3815 673.125 55.5208 675.664 56.4648C678.236 57.3763 681.068 58.1413 684.16 58.7598C686.602 59.2155 688.62 59.6712 690.215 60.127C691.81 60.5827 693.096 61.071 694.072 61.5918C695.016 62.1452 695.667 62.7311 696.025 63.3496C696.416 63.9681 696.611 64.6842 696.611 65.498ZM756.67 65.498C756.67 66.3118 756.458 67.0605 756.035 67.7441C755.645 68.4277 755.042 69.0299 754.229 69.5508C753.382 70.0716 752.292 70.4948 750.957 70.8203C749.655 71.1133 748.125 71.2598 746.367 71.2598C744.902 71.2598 743.47 71.1133 742.07 70.8203C740.703 70.5273 739.482 70.0553 738.408 69.4043C737.334 68.7858 736.455 67.972 735.771 66.9629C735.088 65.9212 734.697 64.6842 734.6 63.252H721.66C721.66 65.4004 722.181 67.5488 723.223 69.6973C724.297 71.8132 725.859 73.7012 727.91 75.3613C729.961 77.054 732.5 78.4212 735.527 79.4629C738.587 80.5046 742.103 81.0254 746.074 81.0254C749.688 81.0254 752.959 80.6348 755.889 79.8535C758.818 79.0397 761.325 77.9167 763.408 76.4844C765.459 75.0521 767.038 73.3594 768.145 71.4062C769.284 69.4206 769.854 67.2559 769.854 64.9121C769.854 62.373 769.284 60.1921 768.145 58.3691C767.038 56.5137 765.492 54.9349 763.506 53.6328C761.52 52.3633 759.16 51.3216 756.426 50.5078C753.691 49.694 750.729 49.0267 747.539 48.5059C745.326 48.1803 743.503 47.806 742.07 47.3828C740.638 46.9271 739.515 46.4225 738.701 45.8691C737.855 45.3483 737.269 44.7624 736.943 44.1113C736.618 43.4277 736.455 42.6953 736.455 41.9141C736.455 41.1328 736.634 40.4004 736.992 39.7168C737.383 39.0007 737.936 38.3822 738.652 37.8613C739.434 37.2754 740.443 36.8197 741.68 36.4941C742.917 36.1686 744.365 36.0059 746.025 36.0059C747.979 36.0059 749.639 36.25 751.006 36.7383C752.406 37.2266 753.512 37.8776 754.326 38.6914C754.912 39.3099 755.352 40.0098 755.645 40.791C755.938 41.5397 756.084 42.3535 756.084 43.2324H769.658C769.658 40.791 769.121 38.5286 768.047 36.4453C766.973 34.362 765.426 32.5553 763.408 31.0254C761.357 29.528 758.867 28.3561 755.938 27.5098C753.008 26.6309 749.704 26.1914 746.025 26.1914C742.51 26.1914 739.352 26.6309 736.553 27.5098C733.753 28.3887 731.377 29.5768 729.424 31.0742C727.471 32.5716 725.973 34.3132 724.932 36.2988C723.89 38.2845 723.369 40.3678 723.369 42.5488C723.369 44.7949 723.874 46.7806 724.883 48.5059C725.924 50.2311 727.357 51.7448 729.18 53.0469C731.003 54.3815 733.184 55.5208 735.723 56.4648C738.294 57.3763 741.126 58.1413 744.219 58.7598C746.66 59.2155 748.678 59.6712 750.273 60.127C751.868 60.5827 753.154 61.071 754.131 61.5918C755.075 62.1452 755.726 62.7311 756.084 63.3496C756.475 63.9681 756.67 64.6842 756.67 65.498ZM889.727 44.9902V33.8574H843.535V44.9902H889.727ZM889.727 66.0352V54.9512H843.535V66.0352H889.727ZM1000.76 26.1914C997.214 26.1914 993.942 27.054 990.947 28.7793C987.952 30.472 985.381 32.8158 983.232 35.8105L983.135 34.6387L982.598 27.168H969.951V80H983.525V48.2617C984.144 46.7643 984.925 45.4622 985.869 44.3555C986.813 43.2487 987.952 42.3372 989.287 41.6211C990.394 41.0026 991.647 40.5469 993.047 40.2539C994.479 39.9284 996.074 39.7656 997.832 39.7656C999.525 39.7656 1001.3 39.8796 1003.15 40.1074C1005.04 40.3027 1006.88 40.612 1008.67 41.0352L1010.67 27.5098C1009.6 27.1842 1008.18 26.8913 1006.43 26.6309C1004.7 26.3379 1002.81 26.1914 1000.76 26.1914ZM1048.52 80.9766C1053.63 80.9766 1058.05 79.9837 1061.8 77.998C1065.54 76.0124 1068.27 73.7988 1070 71.3574L1063.21 64.0332C1061.65 66.0514 1059.62 67.5651 1057.11 68.5742C1054.6 69.5833 1052.01 70.0879 1049.35 70.0879C1047.46 70.0879 1045.72 69.7949 1044.12 69.209C1042.53 68.623 1041.11 67.793 1039.87 66.7188C1038.67 65.6771 1037.71 64.5215 1036.99 63.252C1036.28 61.9499 1035.69 60.2409 1035.23 58.125V57.9785H1071.07V52.2168C1071.07 48.3431 1070.54 44.8112 1069.46 41.6211C1068.39 38.3984 1066.83 35.6478 1064.78 33.3691C1062.69 31.0905 1060.15 29.3327 1057.16 28.0957C1054.2 26.8262 1050.81 26.1914 1047 26.1914C1043.32 26.1914 1039.92 26.8587 1036.8 28.1934C1033.67 29.528 1030.97 31.3997 1028.69 33.8086C1026.41 36.2174 1024.64 39.0983 1023.37 42.4512C1022.1 45.7715 1021.46 49.4499 1021.46 53.4863V55.4395C1021.46 58.9876 1022.1 62.3242 1023.37 65.4492C1024.67 68.5417 1026.51 71.2272 1028.89 73.5059C1031.26 75.8171 1034.11 77.64 1037.43 78.9746C1040.75 80.3092 1044.45 80.9766 1048.52 80.9766ZM1046.9 37.1777C1048.63 37.1777 1050.14 37.4544 1051.45 38.0078C1052.78 38.5286 1053.9 39.2448 1054.81 40.1562C1055.73 41.1003 1056.44 42.207 1056.96 43.4766C1057.48 44.7461 1057.74 46.097 1057.74 47.5293V48.6035H1035.48C1035.8 46.8783 1036.29 45.3158 1036.94 43.916C1037.59 42.5163 1038.41 41.3118 1039.38 40.3027C1040.33 39.2936 1041.44 38.5286 1042.71 38.0078C1043.97 37.4544 1045.37 37.1777 1046.9 37.1777ZM1081.57 53.1445V54.1699C1081.57 58.0111 1082.03 61.5755 1082.94 64.8633C1083.88 68.1185 1085.23 70.9342 1086.99 73.3105C1088.75 75.7194 1090.91 77.6074 1093.49 78.9746C1096.06 80.3092 1099 80.9766 1102.32 80.9766C1103.89 80.9766 1105.34 80.8138 1106.67 80.4883C1108.04 80.1953 1109.29 79.7721 1110.43 79.2188C1111.31 78.763 1112.15 78.2259 1112.97 77.6074C1113.78 76.9889 1114.53 76.2891 1115.21 75.5078V100.312H1128.84V27.168H1116.88L1116.04 32.5391C1115.36 31.6927 1114.63 30.9277 1113.85 30.2441C1113.07 29.5605 1112.24 28.9583 1111.36 28.4375C1110.12 27.7214 1108.75 27.168 1107.26 26.7773C1105.79 26.3867 1104.18 26.1914 1102.42 26.1914C1099.07 26.1914 1096.09 26.8424 1093.49 28.1445C1090.91 29.4466 1088.75 31.2695 1086.99 33.6133C1085.2 35.9896 1083.85 38.8379 1082.94 42.1582C1082.03 45.4785 1081.57 49.1406 1081.57 53.1445ZM1095.15 54.1699V53.1445C1095.15 50.8984 1095.34 48.8151 1095.73 46.8945C1096.16 44.9414 1096.81 43.2487 1097.69 41.8164C1098.53 40.3841 1099.62 39.2611 1100.96 38.4473C1102.32 37.6009 1103.97 37.1777 1105.89 37.1777C1107.03 37.1777 1108.07 37.2917 1109.01 37.5195C1109.99 37.7474 1110.85 38.0729 1111.6 38.4961C1112.38 38.9518 1113.07 39.5052 1113.65 40.1562C1114.24 40.7747 1114.76 41.4909 1115.21 42.3047V64.7656C1114.76 65.612 1114.24 66.377 1113.65 67.0605C1113.07 67.7116 1112.38 68.265 1111.6 68.7207C1110.82 69.1439 1109.94 69.4857 1108.96 69.7461C1108.02 69.974 1106.96 70.0879 1105.79 70.0879C1103.87 70.0879 1102.23 69.6647 1100.86 68.8184C1099.52 67.972 1098.43 66.8164 1097.59 65.3516C1096.74 63.9193 1096.12 62.2428 1095.73 60.3223C1095.34 58.4017 1095.15 56.3509 1095.15 54.1699ZM1177.47 80H1189.78V27.168H1176.15V64.2285C1175.73 65.0749 1175.22 65.8398 1174.64 66.5234C1174.05 67.207 1173.39 67.793 1172.64 68.2812C1171.76 68.8346 1170.73 69.2578 1169.56 69.5508C1168.42 69.8438 1167.14 69.9902 1165.7 69.9902C1164.11 69.9902 1162.76 69.7949 1161.65 69.4043C1160.54 69.0137 1159.65 68.3626 1158.96 67.4512C1158.28 66.5723 1157.78 65.4004 1157.45 63.9355C1157.16 62.4707 1157.01 60.6641 1157.01 58.5156V27.168H1143.44V58.418C1143.44 62.4219 1143.88 65.8561 1144.76 68.7207C1145.67 71.5527 1146.94 73.8802 1148.56 75.7031C1150.19 77.5586 1152.15 78.9095 1154.42 79.7559C1156.7 80.6022 1159.21 81.0254 1161.94 81.0254C1164.94 81.0254 1167.69 80.2767 1170.2 78.7793C1172.73 77.2819 1174.9 75.2148 1176.69 72.5781L1177.47 80ZM1206.67 27.168V38.252H1221.71V68.9648H1206.67V80H1249.74V68.9648H1235.43V27.168H1206.67ZM1220.73 13.6426C1220.73 14.6842 1220.91 15.6608 1221.27 16.5723C1221.66 17.4512 1222.2 18.1999 1222.88 18.8184C1223.56 19.4694 1224.38 19.974 1225.32 20.332C1226.3 20.6901 1227.37 20.8691 1228.54 20.8691C1230.95 20.8691 1232.86 20.2018 1234.26 18.8672C1235.69 17.5 1236.41 15.7585 1236.41 13.6426C1236.41 11.5267 1235.69 9.80143 1234.26 8.4668C1232.86 7.09961 1230.95 6.41602 1228.54 6.41602C1227.37 6.41602 1226.3 6.59505 1225.32 6.95312C1224.38 7.3112 1223.56 7.79948 1222.88 8.41797C1222.2 9.06901 1221.66 9.85026 1221.27 10.7617C1220.91 11.6406 1220.73 12.6009 1220.73 13.6426ZM1301.05 26.1914C1297.51 26.1914 1294.24 27.054 1291.24 28.7793C1288.25 30.472 1285.67 32.8158 1283.53 35.8105L1283.43 34.6387L1282.89 27.168H1270.24V80H1283.82V48.2617C1284.44 46.7643 1285.22 45.4622 1286.16 44.3555C1287.11 43.2487 1288.25 42.3372 1289.58 41.6211C1290.69 41.0026 1291.94 40.5469 1293.34 40.2539C1294.77 39.9284 1296.37 39.7656 1298.12 39.7656C1299.82 39.7656 1301.59 39.8796 1303.45 40.1074C1305.34 40.3027 1307.17 40.612 1308.96 41.0352L1310.97 27.5098C1309.89 27.1842 1308.48 26.8913 1306.72 26.6309C1304.99 26.3379 1303.11 26.1914 1301.05 26.1914ZM1348.81 80.9766C1353.92 80.9766 1358.35 79.9837 1362.09 77.998C1365.83 76.0124 1368.57 73.7988 1370.29 71.3574L1363.51 64.0332C1361.94 66.0514 1359.91 67.5651 1357.4 68.5742C1354.9 69.5833 1352.31 70.0879 1349.64 70.0879C1347.75 70.0879 1346.01 69.7949 1344.41 69.209C1342.82 68.623 1341.4 67.793 1340.17 66.7188C1338.96 65.6771 1338 64.5215 1337.29 63.252C1336.57 61.9499 1335.98 60.2409 1335.53 58.125V57.9785H1371.37V52.2168C1371.37 48.3431 1370.83 44.8112 1369.76 41.6211C1368.68 38.3984 1367.12 35.6478 1365.07 33.3691C1362.99 31.0905 1360.45 29.3327 1357.45 28.0957C1354.49 26.8262 1351.1 26.1914 1347.29 26.1914C1343.62 26.1914 1340.21 26.8587 1337.09 28.1934C1333.96 29.528 1331.26 31.3997 1328.98 33.8086C1326.71 36.2174 1324.93 39.0983 1323.66 42.4512C1322.39 45.7715 1321.76 49.4499 1321.76 53.4863V55.4395C1321.76 58.9876 1322.39 62.3242 1323.66 65.4492C1324.96 68.5417 1326.8 71.2272 1329.18 73.5059C1331.56 75.8171 1334.4 77.64 1337.72 78.9746C1341.04 80.3092 1344.74 80.9766 1348.81 80.9766ZM1347.2 37.1777C1348.92 37.1777 1350.44 37.4544 1351.74 38.0078C1353.07 38.5286 1354.2 39.2448 1355.11 40.1562C1356.02 41.1003 1356.74 42.207 1357.26 43.4766C1357.78 44.7461 1358.04 46.097 1358.04 47.5293V48.6035H1335.77C1336.1 46.8783 1336.59 45.3158 1337.24 43.916C1337.89 42.5163 1338.7 41.3118 1339.68 40.3027C1340.62 39.2936 1341.73 38.5286 1343 38.0078C1344.27 37.4544 1345.67 37.1777 1347.2 37.1777ZM1393.19 51.0938V52.168C1393.19 56.7904 1393.54 61.1198 1394.22 65.1562C1394.93 69.1927 1395.9 72.9199 1397.1 76.3379C1398.3 79.7884 1399.7 82.9297 1401.3 85.7617C1402.93 88.5938 1404.64 91.084 1406.43 93.2324C1408.22 95.4134 1410.06 97.2689 1411.94 98.7988C1413.86 100.329 1415.72 101.501 1417.51 102.314L1420.15 94.9902C1418.88 94.0137 1417.59 92.793 1416.29 91.3281C1414.99 89.8633 1413.75 88.138 1412.58 86.1523C1411.47 84.3294 1410.43 82.1973 1409.45 79.7559C1408.51 77.3145 1407.68 74.6615 1406.96 71.7969C1406.44 69.7461 1405.95 66.9954 1405.5 63.5449C1405.07 60.0944 1404.86 56.3346 1404.86 52.2656V50.9961C1404.86 46.862 1405.09 43.0371 1405.55 39.5215C1406 36.0059 1406.6 32.7995 1407.35 29.9023C1408.2 26.9076 1409.18 24.1406 1410.28 21.6016C1411.42 19.0625 1412.64 16.8652 1413.95 15.0098C1414.95 13.5775 1415.98 12.3079 1417.02 11.2012C1418.06 10.0944 1419.1 9.15039 1420.15 8.36914L1417.51 0.947266C1415.72 1.76107 1413.86 2.93294 1411.94 4.46289C1410.06 5.96029 1408.22 7.79948 1406.43 9.98047C1404.64 12.1615 1402.93 14.668 1401.3 17.5C1399.7 20.332 1398.3 23.457 1397.1 26.875C1395.9 30.3255 1394.93 34.0853 1394.22 38.1543C1393.54 42.1908 1393.19 46.5039 1393.19 51.0938ZM1469.17 11.9336V5H1458.72V11.8848V31.5137H1467.8L1469.17 11.9336ZM1528.98 80.9766C1534.1 80.9766 1538.52 79.9837 1542.27 77.998C1546.01 76.0124 1548.74 73.7988 1550.47 71.3574L1543.68 64.0332C1542.12 66.0514 1540.08 67.5651 1537.58 68.5742C1535.07 69.5833 1532.48 70.0879 1529.81 70.0879C1527.93 70.0879 1526.18 69.7949 1524.59 69.209C1522.99 68.623 1521.58 67.793 1520.34 66.7188C1519.14 65.6771 1518.18 64.5215 1517.46 63.252C1516.74 61.9499 1516.16 60.2409 1515.7 58.125V57.9785H1551.54V52.2168C1551.54 48.3431 1551.01 44.8112 1549.93 41.6211C1548.86 38.3984 1547.29 35.6478 1545.24 33.3691C1543.16 31.0905 1540.62 29.3327 1537.63 28.0957C1534.66 26.8262 1531.28 26.1914 1527.47 26.1914C1523.79 26.1914 1520.39 26.8587 1517.27 28.1934C1514.14 29.528 1511.44 31.3997 1509.16 33.8086C1506.88 36.2174 1505.11 39.0983 1503.84 42.4512C1502.57 45.7715 1501.93 49.4499 1501.93 53.4863V55.4395C1501.93 58.9876 1502.57 62.3242 1503.84 65.4492C1505.14 68.5417 1506.98 71.2272 1509.36 73.5059C1511.73 75.8171 1514.58 77.64 1517.9 78.9746C1521.22 80.3092 1524.92 80.9766 1528.98 80.9766ZM1527.37 37.1777C1529.1 37.1777 1530.61 37.4544 1531.91 38.0078C1533.25 38.5286 1534.37 39.2448 1535.28 40.1562C1536.19 41.1003 1536.91 42.207 1537.43 43.4766C1537.95 44.7461 1538.21 46.097 1538.21 47.5293V48.6035H1515.95C1516.27 46.8783 1516.76 45.3158 1517.41 43.916C1518.06 42.5163 1518.88 41.3118 1519.85 40.3027C1520.8 39.2936 1521.9 38.5286 1523.17 38.0078C1524.44 37.4544 1525.84 37.1777 1527.37 37.1777ZM1587.58 43.6719L1576.15 27.168H1561.55L1579.23 53.0957L1560.87 80H1575.57L1587.63 62.7148L1599.79 80H1614.43L1596.07 53.0957L1613.8 27.168H1599.2L1587.58 43.6719ZM1623.66 100.312H1637.24V75.4102C1637.85 76.0938 1638.51 76.7122 1639.19 77.2656C1639.87 77.819 1640.59 78.3236 1641.34 78.7793C1642.61 79.4954 1643.97 80.0326 1645.44 80.3906C1646.94 80.7812 1648.56 80.9766 1650.32 80.9766C1653.64 80.9766 1656.59 80.293 1659.16 78.9258C1661.73 77.5586 1663.9 75.6706 1665.65 73.2617C1667.38 70.8854 1668.68 68.0534 1669.56 64.7656C1670.47 61.4779 1670.93 57.9134 1670.93 54.0723V53.0469C1670.93 49.043 1670.47 45.3971 1669.56 42.1094C1668.68 38.7891 1667.36 35.9408 1665.61 33.5645C1663.85 31.2207 1661.68 29.4141 1659.11 28.1445C1656.54 26.8424 1653.58 26.1914 1650.22 26.1914C1648.6 26.1914 1647.07 26.3704 1645.63 26.7285C1644.24 27.054 1642.95 27.526 1641.78 28.1445C1640.8 28.6654 1639.89 29.2839 1639.04 30C1638.2 30.6836 1637.42 31.4648 1636.7 32.3438L1636.21 27.168H1623.66V100.312ZM1657.35 53.0469V54.0723C1657.35 56.2533 1657.16 58.3203 1656.77 60.2734C1656.38 62.194 1655.76 63.8867 1654.91 65.3516C1654.07 66.8164 1652.96 67.972 1651.59 68.8184C1650.26 69.6647 1648.63 70.0879 1646.71 70.0879C1645.5 70.0879 1644.41 69.974 1643.44 69.7461C1642.46 69.4857 1641.6 69.1276 1640.85 68.6719C1640.07 68.1836 1639.37 67.5977 1638.75 66.9141C1638.16 66.2305 1637.66 65.4655 1637.24 64.6191V42.5488C1637.69 41.6374 1638.23 40.8398 1638.85 40.1562C1639.5 39.4727 1640.25 38.903 1641.09 38.4473C1641.84 38.0566 1642.67 37.7637 1643.58 37.5684C1644.5 37.3405 1645.5 37.2266 1646.61 37.2266C1648.53 37.2266 1650.16 37.6335 1651.49 38.4473C1652.86 39.2611 1653.98 40.3678 1654.86 41.7676C1655.71 43.1999 1656.33 44.8926 1656.72 46.8457C1657.14 48.7663 1657.35 50.8333 1657.35 53.0469ZM1721.46 26.1914C1717.92 26.1914 1714.65 27.054 1711.65 28.7793C1708.66 30.472 1706.08 32.8158 1703.94 35.8105L1703.84 34.6387L1703.3 27.168H1690.65V80H1704.23V48.2617C1704.85 46.7643 1705.63 45.4622 1706.57 44.3555C1707.52 43.2487 1708.66 42.3372 1709.99 41.6211C1711.1 41.0026 1712.35 40.5469 1713.75 40.2539C1715.18 39.9284 1716.78 39.7656 1718.54 39.7656C1720.23 39.7656 1722 39.8796 1723.86 40.1074C1725.75 40.3027 1727.58 40.612 1729.38 41.0352L1731.38 27.5098C1730.3 27.1842 1728.89 26.8913 1727.13 26.6309C1725.4 26.3379 1723.52 26.1914 1721.46 26.1914ZM1769.22 80.9766C1774.33 80.9766 1778.76 79.9837 1782.5 77.998C1786.24 76.0124 1788.98 73.7988 1790.7 71.3574L1783.92 64.0332C1782.35 66.0514 1780.32 67.5651 1777.81 68.5742C1775.31 69.5833 1772.72 70.0879 1770.05 70.0879C1768.16 70.0879 1766.42 69.7949 1764.82 69.209C1763.23 68.623 1761.81 67.793 1760.58 66.7188C1759.37 65.6771 1758.41 64.5215 1757.7 63.252C1756.98 61.9499 1756.39 60.2409 1755.94 58.125V57.9785H1791.78V52.2168C1791.78 48.3431 1791.24 44.8112 1790.17 41.6211C1789.09 38.3984 1787.53 35.6478 1785.48 33.3691C1783.4 31.0905 1780.86 29.3327 1777.86 28.0957C1774.9 26.8262 1771.51 26.1914 1767.71 26.1914C1764.03 26.1914 1760.62 26.8587 1757.5 28.1934C1754.38 29.528 1751.67 31.3997 1749.39 33.8086C1747.12 36.2174 1745.34 39.0983 1744.07 42.4512C1742.8 45.7715 1742.17 49.4499 1742.17 53.4863V55.4395C1742.17 58.9876 1742.8 62.3242 1744.07 65.4492C1745.37 68.5417 1747.21 71.2272 1749.59 73.5059C1751.97 75.8171 1754.81 77.64 1758.13 78.9746C1761.46 80.3092 1765.15 80.9766 1769.22 80.9766ZM1767.61 37.1777C1769.33 37.1777 1770.85 37.4544 1772.15 38.0078C1773.48 38.5286 1774.61 39.2448 1775.52 40.1562C1776.43 41.1003 1777.15 42.207 1777.67 43.4766C1778.19 44.7461 1778.45 46.097 1778.45 47.5293V48.6035H1756.18C1756.51 46.8783 1757 45.3158 1757.65 43.916C1758.3 42.5163 1759.11 41.3118 1760.09 40.3027C1761.03 39.2936 1762.14 38.5286 1763.41 38.0078C1764.68 37.4544 1766.08 37.1777 1767.61 37.1777ZM1837.72 65.498C1837.72 66.3118 1837.51 67.0605 1837.09 67.7441C1836.7 68.4277 1836.1 69.0299 1835.28 69.5508C1834.44 70.0716 1833.35 70.4948 1832.01 70.8203C1830.71 71.1133 1829.18 71.2598 1827.42 71.2598C1825.96 71.2598 1824.52 71.1133 1823.12 70.8203C1821.76 70.5273 1820.54 70.0553 1819.46 69.4043C1818.39 68.7858 1817.51 67.972 1816.83 66.9629C1816.14 65.9212 1815.75 64.6842 1815.65 63.252H1802.71C1802.71 65.4004 1803.24 67.5488 1804.28 69.6973C1805.35 71.8132 1806.91 73.7012 1808.96 75.3613C1811.02 77.054 1813.55 78.4212 1816.58 79.4629C1819.64 80.5046 1823.16 81.0254 1827.13 81.0254C1830.74 81.0254 1834.01 80.6348 1836.94 79.8535C1839.87 79.0397 1842.38 77.9167 1844.46 76.4844C1846.51 75.0521 1848.09 73.3594 1849.2 71.4062C1850.34 69.4206 1850.91 67.2559 1850.91 64.9121C1850.91 62.373 1850.34 60.1921 1849.2 58.3691C1848.09 56.5137 1846.55 54.9349 1844.56 53.6328C1842.57 52.3633 1840.21 51.3216 1837.48 50.5078C1834.75 49.694 1831.78 49.0267 1828.59 48.5059C1826.38 48.1803 1824.56 47.806 1823.12 47.3828C1821.69 46.9271 1820.57 46.4225 1819.76 45.8691C1818.91 45.3483 1818.32 44.7624 1818 44.1113C1817.67 43.4277 1817.51 42.6953 1817.51 41.9141C1817.51 41.1328 1817.69 40.4004 1818.05 39.7168C1818.44 39.0007 1818.99 38.3822 1819.71 37.8613C1820.49 37.2754 1821.5 36.8197 1822.73 36.4941C1823.97 36.1686 1825.42 36.0059 1827.08 36.0059C1829.03 36.0059 1830.69 36.25 1832.06 36.7383C1833.46 37.2266 1834.57 37.8776 1835.38 38.6914C1835.97 39.3099 1836.41 40.0098 1836.7 40.791C1836.99 41.5397 1837.14 42.3535 1837.14 43.2324H1850.71C1850.71 40.791 1850.18 38.5286 1849.1 36.4453C1848.03 34.362 1846.48 32.5553 1844.46 31.0254C1842.41 29.528 1839.92 28.3561 1836.99 27.5098C1834.06 26.6309 1830.76 26.1914 1827.08 26.1914C1823.56 26.1914 1820.41 26.6309 1817.61 27.5098C1814.81 28.3887 1812.43 29.5768 1810.48 31.0742C1808.53 32.5716 1807.03 34.3132 1805.99 36.2988C1804.94 38.2845 1804.42 40.3678 1804.42 42.5488C1804.42 44.7949 1804.93 46.7806 1805.94 48.5059C1806.98 50.2311 1808.41 51.7448 1810.23 53.0469C1812.06 54.3815 1814.24 55.5208 1816.78 56.4648C1819.35 57.3763 1822.18 58.1413 1825.27 58.7598C1827.71 59.2155 1829.73 59.6712 1831.33 60.127C1832.92 60.5827 1834.21 61.071 1835.19 61.5918C1836.13 62.1452 1836.78 62.7311 1837.14 63.3496C1837.53 63.9681 1837.72 64.6842 1837.72 65.498ZM1897.78 65.498C1897.78 66.3118 1897.57 67.0605 1897.15 67.7441C1896.76 68.4277 1896.16 69.0299 1895.34 69.5508C1894.5 70.0716 1893.4 70.4948 1892.07 70.8203C1890.77 71.1133 1889.24 71.2598 1887.48 71.2598C1886.02 71.2598 1884.58 71.1133 1883.18 70.8203C1881.82 70.5273 1880.6 70.0553 1879.52 69.4043C1878.45 68.7858 1877.57 67.972 1876.88 66.9629C1876.2 65.9212 1875.81 64.6842 1875.71 63.252H1862.77C1862.77 65.4004 1863.29 67.5488 1864.34 69.6973C1865.41 71.8132 1866.97 73.7012 1869.02 75.3613C1871.07 77.054 1873.61 78.4212 1876.64 79.4629C1879.7 80.5046 1883.22 81.0254 1887.19 81.0254C1890.8 81.0254 1894.07 80.6348 1897 79.8535C1899.93 79.0397 1902.44 77.9167 1904.52 76.4844C1906.57 75.0521 1908.15 73.3594 1909.26 71.4062C1910.4 69.4206 1910.97 67.2559 1910.97 64.9121C1910.97 62.373 1910.4 60.1921 1909.26 58.3691C1908.15 56.5137 1906.6 54.9349 1904.62 53.6328C1902.63 52.3633 1900.27 51.3216 1897.54 50.5078C1894.8 49.694 1891.84 49.0267 1888.65 48.5059C1886.44 48.1803 1884.62 47.806 1883.18 47.3828C1881.75 46.9271 1880.63 46.4225 1879.81 45.8691C1878.97 45.3483 1878.38 44.7624 1878.06 44.1113C1877.73 43.4277 1877.57 42.6953 1877.57 41.9141C1877.57 41.1328 1877.75 40.4004 1878.11 39.7168C1878.5 39.0007 1879.05 38.3822 1879.77 37.8613C1880.55 37.2754 1881.56 36.8197 1882.79 36.4941C1884.03 36.1686 1885.48 36.0059 1887.14 36.0059C1889.09 36.0059 1890.75 36.25 1892.12 36.7383C1893.52 37.2266 1894.63 37.8776 1895.44 38.6914C1896.03 39.3099 1896.46 40.0098 1896.76 40.791C1897.05 41.5397 1897.2 42.3535 1897.2 43.2324H1910.77C1910.77 40.791 1910.23 38.5286 1909.16 36.4453C1908.09 34.362 1906.54 32.5553 1904.52 31.0254C1902.47 29.528 1899.98 28.3561 1897.05 27.5098C1894.12 26.6309 1890.82 26.1914 1887.14 26.1914C1883.62 26.1914 1880.47 26.6309 1877.67 27.5098C1874.87 28.3887 1872.49 29.5768 1870.54 31.0742C1868.58 32.5716 1867.09 34.3132 1866.04 36.2988C1865 38.2845 1864.48 40.3678 1864.48 42.5488C1864.48 44.7949 1864.99 46.7806 1866 48.5059C1867.04 50.2311 1868.47 51.7448 1870.29 53.0469C1872.12 54.3815 1874.3 55.5208 1876.84 56.4648C1879.41 57.3763 1882.24 58.1413 1885.33 58.7598C1887.77 59.2155 1889.79 59.6712 1891.39 60.127C1892.98 60.5827 1894.27 61.071 1895.24 61.5918C1896.19 62.1452 1896.84 62.7311 1897.2 63.3496C1897.59 63.9681 1897.78 64.6842 1897.78 65.498ZM1949.64 11.9336V5H1939.19V11.8848V31.5137H1948.27L1949.64 11.9336ZM2019.95 52.168V51.0938C2019.95 46.6341 2019.59 42.4186 2018.88 38.4473C2018.16 34.4434 2017.18 30.7161 2015.95 27.2656C2014.71 23.8151 2013.26 20.6738 2011.6 17.8418C2009.97 14.9772 2008.23 12.4219 2006.38 10.1758C2004.52 7.96224 2002.62 6.07422 2000.66 4.51172C1998.71 2.94922 1996.81 1.76107 1994.95 0.947266L1992.36 8.22266C1993.34 8.97135 1994.32 9.88281 1995.29 10.957C1996.3 11.9987 1997.28 13.1868 1998.22 14.5215C1999.62 16.5397 2000.94 18.9323 2002.18 21.6992C2003.45 24.4661 2004.52 27.5911 2005.4 31.0742C2006.08 33.8737 2006.62 36.9336 2007.01 40.2539C2007.43 43.5742 2007.65 47.1549 2007.65 50.9961V52.2656C2007.65 56.2044 2007.43 59.8665 2007.01 63.252C2006.62 66.6374 2006.08 69.7298 2005.4 72.5293C2004.59 75.5892 2003.64 78.3561 2002.57 80.8301C2001.53 83.304 2000.37 85.5176 1999.1 87.4707C1998.03 89.1309 1996.92 90.5794 1995.78 91.8164C1994.64 93.0859 1993.5 94.1439 1992.36 94.9902L1994.95 102.314C1996.81 101.501 1998.71 100.312 2000.66 98.75C2002.62 97.1875 2004.52 95.2832 2006.38 93.0371C2008.23 90.8236 2009.97 88.2845 2011.6 85.4199C2013.26 82.5879 2014.71 79.4466 2015.95 75.9961C2017.18 72.5456 2018.16 68.8346 2018.88 64.8633C2019.59 60.8594 2019.95 56.6276 2019.95 52.168ZM2060.19 31.8066C2060.19 34.3132 2061.03 36.4128 2062.72 38.1055C2064.42 39.7982 2066.71 40.6445 2069.61 40.6445C2072.47 40.6445 2074.75 39.8145 2076.45 38.1543C2078.17 36.4616 2079.03 34.3457 2079.03 31.8066C2079.03 29.2676 2078.19 27.1354 2076.49 25.4102C2074.83 23.6849 2072.54 22.8223 2069.61 22.8223C2066.65 22.8223 2064.34 23.7012 2062.68 25.459C2061.02 27.1842 2060.19 29.3001 2060.19 31.8066ZM2075.37 78.9258L2075.42 68.1348H2062.68V79.5605C2062.68 83.1413 2062.25 86.2012 2061.41 88.7402C2060.56 91.3118 2059.52 93.7695 2058.28 96.1133L2065.46 99.8242C2068.39 97.2201 2070.76 94.0137 2072.59 90.2051C2074.44 86.3965 2075.37 82.6367 2075.37 78.9258Z" fill="#000020"/>
</svg>
