<svg width="1954" height="99" viewBox="0 0 1954 99" fill="none" xmlns="http://www.w3.org/2000/svg">
<path d="M0.498047 25.168V36.252H15.5371V66.9648H0.498047V78H43.5645V66.9648H29.2578V25.168H0.498047ZM14.5605 11.6426C14.5605 12.6842 14.7396 13.6608 15.0977 14.5723C15.4883 15.4512 16.0254 16.1999 16.709 16.8184C17.3926 17.4694 18.2064 17.974 19.1504 18.332C20.127 18.6901 21.2012 18.8691 22.373 18.8691C24.7819 18.8691 26.6862 18.2018 28.0859 16.8672C29.5182 15.5 30.2344 13.7585 30.2344 11.6426C30.2344 9.52669 29.5182 7.80143 28.0859 6.4668C26.6862 5.09961 24.7819 4.41602 22.373 4.41602C21.2012 4.41602 20.127 4.59505 19.1504 4.95312C18.2064 5.3112 17.3926 5.79948 16.709 6.41797C16.0254 7.06901 15.4883 7.85026 15.0977 8.76172C14.7396 9.64062 14.5605 10.6009 14.5605 11.6426ZM65.3906 25.168H53.7207V78H66.0742V38.4492C66.237 38.026 66.416 37.6354 66.6113 37.2773C66.8066 36.9193 67.0345 36.61 67.2949 36.3496C67.653 35.9915 68.0599 35.7148 68.5156 35.5195C68.9714 35.3242 69.4922 35.2266 70.0781 35.2266C70.599 35.2266 71.0872 35.3079 71.543 35.4707C71.9987 35.6009 72.4056 35.8451 72.7637 36.2031C73.0892 36.5612 73.3496 37.0658 73.5449 37.7168C73.7402 38.3678 73.8379 39.1979 73.8379 40.207V78H85.8008V39.0352C85.8008 38.6445 85.8008 38.3353 85.8008 38.1074C85.8008 37.8796 85.8008 37.7331 85.8008 37.668C85.9635 37.3099 86.1589 37.0007 86.3867 36.7402C86.6146 36.4473 86.875 36.1868 87.168 35.959C87.526 35.7311 87.9004 35.5521 88.291 35.4219C88.7142 35.2917 89.1862 35.2266 89.707 35.2266C90.1953 35.2266 90.6673 35.3079 91.123 35.4707C91.6113 35.6009 92.0345 35.8451 92.3926 36.2031C92.7507 36.5938 93.0273 37.1146 93.2227 37.7656C93.4505 38.4167 93.5645 39.2467 93.5645 40.2559V78H105.918V40.3047C105.918 37.375 105.625 34.901 105.039 32.8828C104.486 30.832 103.704 29.1556 102.695 27.8535C101.654 26.584 100.433 25.6562 99.0332 25.0703C97.666 24.4844 96.1849 24.1914 94.5898 24.1914C93.3203 24.1914 92.1484 24.3542 91.0742 24.6797C90 25.0052 89.0397 25.4609 88.1934 26.0469C87.5098 26.5026 86.875 27.056 86.2891 27.707C85.7357 28.3255 85.2311 29.0254 84.7754 29.8066C84.4824 28.9928 84.1243 28.2767 83.7012 27.6582C83.3105 27.0072 82.8385 26.4538 82.2852 25.998C81.569 25.3796 80.7227 24.9238 79.7461 24.6309C78.7695 24.3379 77.6628 24.1914 76.4258 24.1914C73.8867 24.1914 71.722 24.8587 69.9316 26.1934C68.1738 27.4954 66.7904 29.2858 65.7812 31.5645L65.3906 25.168ZM117.197 98.3125H130.771V73.4102C131.39 74.0938 132.041 74.7122 132.725 75.2656C133.408 75.819 134.124 76.3236 134.873 76.7793C136.143 77.4954 137.51 78.0326 138.975 78.3906C140.472 78.7812 142.1 78.9766 143.857 78.9766C147.178 78.9766 150.124 78.293 152.695 76.9258C155.267 75.5586 157.432 73.6706 159.189 71.2617C160.915 68.8854 162.217 66.0534 163.096 62.7656C164.007 59.4779 164.463 55.9134 164.463 52.0723V51.0469C164.463 47.043 164.007 43.3971 163.096 40.1094C162.217 36.7891 160.898 33.9408 159.141 31.5645C157.383 29.2207 155.218 27.4141 152.646 26.1445C150.075 24.8424 147.113 24.1914 143.76 24.1914C142.132 24.1914 140.602 24.3704 139.17 24.7285C137.77 25.054 136.484 25.526 135.312 26.1445C134.336 26.6654 133.424 27.2839 132.578 28C131.732 28.6836 130.951 29.4648 130.234 30.3438L129.746 25.168H117.197V98.3125ZM150.889 51.0469V52.0723C150.889 54.2533 150.693 56.3203 150.303 58.2734C149.912 60.194 149.294 61.8867 148.447 63.3516C147.601 64.8164 146.494 65.972 145.127 66.8184C143.792 67.6647 142.165 68.0879 140.244 68.0879C139.04 68.0879 137.949 67.974 136.973 67.7461C135.996 67.4857 135.133 67.1276 134.385 66.6719C133.604 66.1836 132.904 65.5977 132.285 64.9141C131.699 64.2305 131.195 63.4655 130.771 62.6191V40.5488C131.227 39.6374 131.764 38.8398 132.383 38.1562C133.034 37.4727 133.783 36.903 134.629 36.4473C135.378 36.0566 136.208 35.7637 137.119 35.5684C138.031 35.3405 139.04 35.2266 140.146 35.2266C142.067 35.2266 143.695 35.6335 145.029 36.4473C146.396 37.2611 147.52 38.3678 148.398 39.7676C149.245 41.1999 149.863 42.8926 150.254 44.8457C150.677 46.7663 150.889 48.8333 150.889 51.0469ZM175.205 51.0957V52.1211C175.205 55.9948 175.758 59.5755 176.865 62.8633C177.972 66.1185 179.6 68.9505 181.748 71.3594C183.864 73.7682 186.468 75.6562 189.561 77.0234C192.686 78.3581 196.234 79.0254 200.205 79.0254C204.144 79.0254 207.66 78.3581 210.752 77.0234C213.844 75.6562 216.449 73.7682 218.564 71.3594C220.68 68.9505 222.292 66.1185 223.398 62.8633C224.505 59.5755 225.059 55.9948 225.059 52.1211V51.0957C225.059 47.2546 224.505 43.7064 223.398 40.4512C222.292 37.1634 220.68 34.3151 218.564 31.9062C216.416 29.4974 213.796 27.6094 210.703 26.2422C207.611 24.875 204.079 24.1914 200.107 24.1914C196.136 24.1914 192.604 24.875 189.512 26.2422C186.452 27.6094 183.864 29.4974 181.748 31.9062C179.6 34.3151 177.972 37.1634 176.865 40.4512C175.758 43.7064 175.205 47.2546 175.205 51.0957ZM188.779 52.1211V51.0957C188.779 48.9473 188.991 46.9128 189.414 44.9922C189.837 43.0716 190.505 41.3789 191.416 39.9141C192.327 38.4492 193.499 37.2936 194.932 36.4473C196.364 35.6009 198.089 35.1777 200.107 35.1777C202.158 35.1777 203.9 35.6009 205.332 36.4473C206.764 37.2936 207.936 38.4492 208.848 39.9141C209.727 41.3789 210.378 43.0716 210.801 44.9922C211.224 46.9128 211.436 48.9473 211.436 51.0957V52.1211C211.436 54.3346 211.224 56.418 210.801 58.3711C210.378 60.2917 209.727 61.9681 208.848 63.4004C207.936 64.8652 206.764 66.0208 205.332 66.8672C203.9 67.7135 202.191 68.1367 200.205 68.1367C198.154 68.1367 196.396 67.7135 194.932 66.8672C193.499 66.0208 192.327 64.8652 191.416 63.4004C190.505 61.9681 189.837 60.2917 189.414 58.3711C188.991 56.418 188.779 54.3346 188.779 52.1211ZM275.059 24.1914C271.51 24.1914 268.239 25.054 265.244 26.7793C262.249 28.472 259.678 30.8158 257.529 33.8105L257.432 32.6387L256.895 25.168H244.248V78H257.822V46.2617C258.441 44.7643 259.222 43.4622 260.166 42.3555C261.11 41.2487 262.249 40.3372 263.584 39.6211C264.691 39.0026 265.944 38.5469 267.344 38.2539C268.776 37.9284 270.371 37.7656 272.129 37.7656C273.822 37.7656 275.596 37.8796 277.451 38.1074C279.339 38.3027 281.178 38.612 282.969 39.0352L284.971 25.5098C283.896 25.1842 282.48 24.8913 280.723 24.6309C278.997 24.3379 277.109 24.1914 275.059 24.1914ZM322.08 12.2285H308.506V25.168H296.445V35.1777H308.506V59.2012C308.506 62.6842 308.962 65.679 309.873 68.1855C310.785 70.6595 312.087 72.694 313.779 74.2891C315.439 75.9167 317.441 77.1211 319.785 77.9023C322.161 78.651 324.798 79.0254 327.695 79.0254C329.193 79.0254 330.706 78.944 332.236 78.7812C333.799 78.651 335.296 78.4557 336.729 78.1953C338.161 77.9349 339.512 77.6094 340.781 77.2188C342.051 76.7956 343.158 76.3073 344.102 75.7539L342.783 66.4277C342.165 66.5905 341.416 66.7533 340.537 66.916C339.691 67.0788 338.779 67.2253 337.803 67.3555C336.794 67.5182 335.736 67.6484 334.629 67.7461C333.555 67.8438 332.497 67.8926 331.455 67.8926C330.023 67.8926 328.721 67.7298 327.549 67.4043C326.41 67.0788 325.433 66.5254 324.619 65.7441C323.805 64.9954 323.171 63.9863 322.715 62.7168C322.292 61.4147 322.08 59.8034 322.08 57.8828V35.1777H341.807V25.168H322.08V12.2285ZM440.928 51.4375L454.307 78H469.004V77.3652L453.721 48.0195C455.674 47.1406 457.432 46.099 458.994 44.8945C460.589 43.6901 461.956 42.2741 463.096 40.6465C464.202 39.0514 465.049 37.2448 465.635 35.2266C466.253 33.1758 466.562 30.8809 466.562 28.3418C466.562 24.8262 465.944 21.7337 464.707 19.0645C463.503 16.3952 461.777 14.1654 459.531 12.375C457.253 10.5846 454.518 9.23372 451.328 8.32227C448.138 7.37826 444.574 6.90625 440.635 6.90625H416.807V78H430.527V51.4375H440.928ZM430.527 40.3047V18.0391H440.635C442.523 18.0391 444.199 18.2669 445.664 18.7227C447.129 19.1784 448.366 19.8294 449.375 20.6758C450.514 21.6198 451.361 22.8242 451.914 24.2891C452.5 25.7214 452.793 27.3815 452.793 29.2695C452.793 30.832 452.565 32.248 452.109 33.5176C451.686 34.7871 451.051 35.8776 450.205 36.7891C449.196 37.9284 447.878 38.8073 446.25 39.4258C444.655 40.0117 442.799 40.3047 440.684 40.3047H430.527ZM502.988 78.9766C508.099 78.9766 512.526 77.9837 516.27 75.998C520.013 74.0124 522.747 71.7988 524.473 69.3574L517.686 62.0332C516.123 64.0514 514.089 65.5651 511.582 66.5742C509.076 67.5833 506.488 68.0879 503.818 68.0879C501.93 68.0879 500.189 67.7949 498.594 67.209C496.999 66.623 495.583 65.793 494.346 64.7188C493.141 63.6771 492.181 62.5215 491.465 61.252C490.749 59.9499 490.163 58.2409 489.707 56.125V55.9785H525.547V50.2168C525.547 46.3431 525.01 42.8112 523.936 39.6211C522.861 36.3984 521.299 33.6478 519.248 31.3691C517.165 29.0905 514.626 27.3327 511.631 26.0957C508.669 24.8262 505.283 24.1914 501.475 24.1914C497.796 24.1914 494.395 24.8587 491.27 26.1934C488.145 27.528 485.443 29.3997 483.164 31.8086C480.885 34.2174 479.111 37.0983 477.842 40.4512C476.572 43.7715 475.938 47.4499 475.938 51.4863V53.4395C475.938 56.9876 476.572 60.3242 477.842 63.4492C479.144 66.5417 480.983 69.2272 483.359 71.5059C485.736 73.8171 488.584 75.64 491.904 76.9746C495.225 78.3092 498.919 78.9766 502.988 78.9766ZM501.377 35.1777C503.102 35.1777 504.616 35.4544 505.918 36.0078C507.253 36.5286 508.376 37.2448 509.287 38.1562C510.199 39.1003 510.915 40.207 511.436 41.4766C511.956 42.7461 512.217 44.097 512.217 45.5293V46.6035H489.951C490.277 44.8783 490.765 43.3158 491.416 41.916C492.067 40.5163 492.881 39.3118 493.857 38.3027C494.801 37.2936 495.908 36.5286 497.178 36.0078C498.447 35.4544 499.847 35.1777 501.377 35.1777ZM570.42 78H584.189V77.1699C583.506 75.8353 582.985 74.2402 582.627 72.3848C582.269 70.5293 582.09 68.1855 582.09 65.3535V42.6973C582.09 39.6374 581.52 36.9518 580.381 34.6406C579.242 32.2969 577.663 30.36 575.645 28.8301C573.626 27.3001 571.234 26.1445 568.467 25.3633C565.732 24.582 562.77 24.1914 559.58 24.1914C556.032 24.1914 552.874 24.6471 550.107 25.5586C547.373 26.4375 545.062 27.6419 543.174 29.1719C541.253 30.7018 539.788 32.4759 538.779 34.4941C537.803 36.5124 537.314 38.6445 537.314 40.8906H550.889C550.889 39.9466 551.019 39.084 551.279 38.3027C551.572 37.5215 552.012 36.8542 552.598 36.3008C553.249 35.6823 554.095 35.2103 555.137 34.8848C556.178 34.5267 557.415 34.3477 558.848 34.3477C560.475 34.3477 561.891 34.5592 563.096 34.9824C564.333 35.373 565.358 35.9427 566.172 36.6914C566.953 37.4076 567.539 38.2702 567.93 39.2793C568.32 40.2559 568.516 41.3626 568.516 42.5996V45.7246H560.947C557.041 45.7246 553.574 46.0827 550.547 46.7988C547.552 47.4824 545.029 48.4915 542.979 49.8262C540.7 51.291 538.991 53.1628 537.852 55.4414C536.712 57.6875 536.143 60.2754 536.143 63.2051C536.143 65.4837 536.598 67.5996 537.51 69.5527C538.421 71.4733 539.691 73.1335 541.318 74.5332C542.946 75.9329 544.883 77.0234 547.129 77.8047C549.408 78.5859 551.898 78.9766 554.6 78.9766C556.26 78.9766 557.806 78.8138 559.238 78.4883C560.671 78.1953 561.989 77.7721 563.193 77.2188C564.365 76.6979 565.439 76.0794 566.416 75.3633C567.393 74.6471 568.255 73.8822 569.004 73.0684C569.167 74.0124 569.362 74.9076 569.59 75.7539C569.818 76.6003 570.094 77.349 570.42 78ZM557.48 68.4785C556.211 68.4785 555.088 68.332 554.111 68.0391C553.167 67.7135 552.37 67.2904 551.719 66.7695C551.068 66.2161 550.563 65.5488 550.205 64.7676C549.88 63.9538 549.717 63.0749 549.717 62.1309C549.717 60.9264 549.945 59.8197 550.4 58.8105C550.856 57.7689 551.556 56.8737 552.5 56.125C553.444 55.4089 554.665 54.8555 556.162 54.4648C557.66 54.0417 559.466 53.8301 561.582 53.8301H568.516V62.9121C568.125 63.5957 567.588 64.2793 566.904 64.9629C566.221 65.6139 565.407 66.1999 564.463 66.7207C563.519 67.2415 562.461 67.6647 561.289 67.9902C560.117 68.3158 558.848 68.4785 557.48 68.4785ZM620.859 68.1367C618.678 68.1367 616.872 67.6973 615.439 66.8184C614.04 65.9395 612.933 64.7676 612.119 63.3027C611.273 61.8704 610.687 60.2103 610.361 58.3223C610.036 56.4017 609.873 54.416 609.873 52.3652V50.9004C609.873 48.8822 610.036 46.929 610.361 45.041C610.719 43.153 611.322 41.4766 612.168 40.0117C612.982 38.5469 614.089 37.375 615.488 36.4961C616.888 35.6172 618.662 35.1777 620.811 35.1777C622.275 35.1777 623.626 35.4382 624.863 35.959C626.1 36.4473 627.158 37.1146 628.037 37.9609C628.916 38.8073 629.583 39.8164 630.039 40.9883C630.495 42.1602 630.69 43.3971 630.625 44.6992H643.418C643.483 41.5742 642.962 38.7585 641.855 36.252C640.749 33.7129 639.202 31.5482 637.217 29.7578C635.199 28 632.806 26.6328 630.039 25.6562C627.272 24.6797 624.261 24.1914 621.006 24.1914C616.937 24.1914 613.356 24.8913 610.264 26.291C607.204 27.6908 604.632 29.5951 602.549 32.0039C600.465 34.4128 598.903 37.2448 597.861 40.5C596.82 43.7227 596.299 47.1895 596.299 50.9004V52.3652C596.299 56.0762 596.82 59.5592 597.861 62.8145C598.936 66.0371 600.514 68.8529 602.598 71.2617C604.648 73.6706 607.22 75.5749 610.312 76.9746C613.405 78.3418 617.002 79.0254 621.104 79.0254C624.131 79.0254 626.995 78.5534 629.697 77.6094C632.432 76.6328 634.824 75.2982 636.875 73.6055C638.926 71.9128 640.537 69.8945 641.709 67.5508C642.913 65.207 643.483 62.668 643.418 59.9336H630.625C630.69 61.1706 630.462 62.2936 629.941 63.3027C629.453 64.3118 628.753 65.1745 627.842 65.8906C626.93 66.6068 625.872 67.1602 624.668 67.5508C623.464 67.9414 622.194 68.1367 620.859 68.1367ZM682.432 12.2285H668.857V25.168H656.797V35.1777H668.857V59.2012C668.857 62.6842 669.313 65.679 670.225 68.1855C671.136 70.6595 672.438 72.694 674.131 74.2891C675.791 75.9167 677.793 77.1211 680.137 77.9023C682.513 78.651 685.15 79.0254 688.047 79.0254C689.544 79.0254 691.058 78.944 692.588 78.7812C694.15 78.651 695.648 78.4557 697.08 78.1953C698.512 77.9349 699.863 77.6094 701.133 77.2188C702.402 76.7956 703.509 76.3073 704.453 75.7539L703.135 66.4277C702.516 66.5905 701.768 66.7533 700.889 66.916C700.042 67.0788 699.131 67.2253 698.154 67.3555C697.145 67.5182 696.087 67.6484 694.98 67.7461C693.906 67.8438 692.848 67.8926 691.807 67.8926C690.374 67.8926 689.072 67.7298 687.9 67.4043C686.761 67.0788 685.785 66.5254 684.971 65.7441C684.157 64.9954 683.522 63.9863 683.066 62.7168C682.643 61.4147 682.432 59.8034 682.432 57.8828V35.1777H702.158V25.168H682.432V12.2285ZM716.807 78H735.898C739.056 78 742.018 77.6094 744.785 76.8281C747.585 76.0469 750.14 74.9238 752.451 73.459C754.437 72.222 756.26 70.6921 757.92 68.8691C759.58 67.0137 761.029 64.9954 762.266 62.8145C763.568 60.373 764.577 57.6875 765.293 54.7578C766.009 51.8281 766.367 48.7194 766.367 45.4316V39.5723C766.367 36.1543 765.977 32.9316 765.195 29.9043C764.447 26.877 763.372 24.11 761.973 21.6035C760.768 19.5527 759.352 17.6647 757.725 15.9395C756.13 14.1816 754.307 12.7005 752.256 11.4961C749.912 10.0312 747.308 8.9082 744.443 8.12695C741.579 7.31315 738.503 6.90625 735.215 6.90625H716.807V78ZM730.625 18.0391H735.215C736.875 18.0391 738.405 18.2344 739.805 18.625C741.237 18.9831 742.539 19.5039 743.711 20.1875C745.241 21.099 746.576 22.2708 747.715 23.7031C748.887 25.1354 749.831 26.763 750.547 28.5859C751.133 30.1159 751.572 31.8086 751.865 33.6641C752.191 35.487 752.354 37.4238 752.354 39.4746V45.4316C752.354 47.6126 752.191 49.6471 751.865 51.5352C751.572 53.3906 751.133 55.0833 750.547 56.6133C749.831 58.3711 748.968 59.9173 747.959 61.252C746.982 62.554 745.876 63.6283 744.639 64.4746C743.434 65.2884 742.1 65.9069 740.635 66.3301C739.17 66.7533 737.591 66.9648 735.898 66.9648H730.625V18.0391ZM826.768 47.6777V37.3262C826.768 34.1035 826.458 31.0599 825.84 28.1953C825.254 25.3307 824.391 22.694 823.252 20.2852C822.21 18.1693 820.957 16.2324 819.492 14.4746C818.06 12.7168 816.383 11.2194 814.463 9.98242C812.542 8.68034 810.378 7.6875 807.969 7.00391C805.592 6.28776 803.037 5.92969 800.303 5.92969C797.601 5.92969 795.094 6.27148 792.783 6.95508C790.472 7.63867 788.389 8.61523 786.533 9.88477C784.645 11.1868 782.969 12.7493 781.504 14.5723C780.072 16.3952 778.851 18.4297 777.842 20.6758C776.8 23.0521 776.003 25.64 775.449 28.4395C774.928 31.2389 774.668 34.2012 774.668 37.3262V47.6777C774.668 50.6074 774.896 53.3906 775.352 56.0273C775.84 58.6641 776.54 61.1055 777.451 63.3516C778.46 65.793 779.714 67.9902 781.211 69.9434C782.708 71.8639 784.401 73.5078 786.289 74.875C788.21 76.1771 790.342 77.1862 792.686 77.9023C795.029 78.6185 797.585 78.9766 800.352 78.9766C802.956 78.9766 805.381 78.651 807.627 78C809.906 77.3815 811.989 76.5026 813.877 75.3633C815.96 74.0612 817.816 72.4336 819.443 70.4805C821.071 68.5273 822.438 66.3789 823.545 64.0352C824.587 61.6914 825.384 59.1523 825.938 56.418C826.491 53.651 826.768 50.7376 826.768 47.6777ZM812.852 37.2285V47.6777C812.852 49.4355 812.754 51.1283 812.559 52.7559C812.396 54.3835 812.135 55.8809 811.777 57.248C811.322 59.0059 810.703 60.5846 809.922 61.9844C809.173 63.3516 808.245 64.4909 807.139 65.4023C806.26 66.151 805.251 66.7207 804.111 67.1113C802.972 67.502 801.719 67.6973 800.352 67.6973C798.919 67.6973 797.633 67.4857 796.494 67.0625C795.387 66.6393 794.395 66.0371 793.516 65.2559C792.572 64.377 791.742 63.2376 791.025 61.8379C790.342 60.4056 789.821 58.8268 789.463 57.1016C789.137 55.7344 788.91 54.2533 788.779 52.6582C788.649 51.0632 788.584 49.403 788.584 47.6777V37.2285C788.584 35.4056 788.649 33.6641 788.779 32.0039C788.942 30.3438 789.186 28.8138 789.512 27.4141C789.935 25.5911 790.521 23.9961 791.27 22.6289C792.051 21.2617 792.995 20.1224 794.102 19.2109C794.915 18.5924 795.827 18.1204 796.836 17.7949C797.878 17.4694 799.033 17.3066 800.303 17.3066C801.637 17.3066 802.842 17.4857 803.916 17.8438C805.023 18.2018 806.016 18.7064 806.895 19.3574C808.001 20.2363 808.962 21.3757 809.775 22.7754C810.589 24.1426 811.24 25.7051 811.729 27.4629C812.119 28.8626 812.396 30.3926 812.559 32.0527C812.754 33.6803 812.852 35.4056 812.852 37.2285ZM854.062 6.90625H837.021V78H849.619V56.9551L849.033 25.0215L857.383 54.5625H864.17L873.496 23.7031L872.91 56.9551V78H885.508V6.90625H868.467L860.801 33.6152L854.062 6.90625ZM970.957 78H984.58V35.1777H1003.62V25.168H984.58V22.2871C984.58 20.7246 984.775 19.3249 985.166 18.0879C985.589 16.8509 986.224 15.8092 987.07 14.9629C988.014 13.9538 989.284 13.1888 990.879 12.668C992.474 12.1471 994.411 11.8867 996.689 11.8867C998.805 11.8867 1000.64 11.9844 1002.21 12.1797C1003.77 12.375 1005.17 12.6029 1006.41 12.8633L1007.29 2.21875C1006.18 2.02344 1005.1 1.8444 1004.06 1.68164C1003.05 1.51888 1002.04 1.3724 1001.04 1.24219C1000.03 1.11198 998.984 1.01432 997.91 0.949219C996.868 0.851562 995.778 0.802734 994.639 0.802734C991.025 0.802734 987.754 1.27474 984.824 2.21875C981.895 3.13021 979.404 4.4974 977.354 6.32031C975.303 8.14323 973.724 10.3893 972.617 13.0586C971.51 15.7279 970.957 18.804 970.957 22.2871V25.168H957.09V35.1777H970.957V78ZM1055.82 24.1914C1052.27 24.1914 1049 25.054 1046.01 26.7793C1043.01 28.472 1040.44 30.8158 1038.29 33.8105L1038.19 32.6387L1037.66 25.168H1025.01V78H1038.58V46.2617C1039.2 44.7643 1039.98 43.4622 1040.93 42.3555C1041.87 41.2487 1043.01 40.3372 1044.35 39.6211C1045.45 39.0026 1046.71 38.5469 1048.11 38.2539C1049.54 37.9284 1051.13 37.7656 1052.89 37.7656C1054.58 37.7656 1056.36 37.8796 1058.21 38.1074C1060.1 38.3027 1061.94 38.612 1063.73 39.0352L1065.73 25.5098C1064.66 25.1842 1063.24 24.8913 1061.48 24.6309C1059.76 24.3379 1057.87 24.1914 1055.82 24.1914ZM1076.08 51.0957V52.1211C1076.08 55.9948 1076.64 59.5755 1077.74 62.8633C1078.85 66.1185 1080.48 68.9505 1082.63 71.3594C1084.74 73.7682 1087.35 75.6562 1090.44 77.0234C1093.56 78.3581 1097.11 79.0254 1101.08 79.0254C1105.02 79.0254 1108.54 78.3581 1111.63 77.0234C1114.72 75.6562 1117.33 73.7682 1119.44 71.3594C1121.56 68.9505 1123.17 66.1185 1124.28 62.8633C1125.38 59.5755 1125.94 55.9948 1125.94 52.1211V51.0957C1125.94 47.2546 1125.38 43.7064 1124.28 40.4512C1123.17 37.1634 1121.56 34.3151 1119.44 31.9062C1117.29 29.4974 1114.67 27.6094 1111.58 26.2422C1108.49 24.875 1104.96 24.1914 1100.99 24.1914C1097.01 24.1914 1093.48 24.875 1090.39 26.2422C1087.33 27.6094 1084.74 29.4974 1082.63 31.9062C1080.48 34.3151 1078.85 37.1634 1077.74 40.4512C1076.64 43.7064 1076.08 47.2546 1076.08 51.0957ZM1089.66 52.1211V51.0957C1089.66 48.9473 1089.87 46.9128 1090.29 44.9922C1090.72 43.0716 1091.38 41.3789 1092.29 39.9141C1093.21 38.4492 1094.38 37.2936 1095.81 36.4473C1097.24 35.6009 1098.97 35.1777 1100.99 35.1777C1103.04 35.1777 1104.78 35.6009 1106.21 36.4473C1107.64 37.2936 1108.82 38.4492 1109.73 39.9141C1110.61 41.3789 1111.26 43.0716 1111.68 44.9922C1112.1 46.9128 1112.31 48.9473 1112.31 51.0957V52.1211C1112.31 54.3346 1112.1 56.418 1111.68 58.3711C1111.26 60.2917 1110.61 61.9681 1109.73 63.4004C1108.82 64.8652 1107.64 66.0208 1106.21 66.8672C1104.78 67.7135 1103.07 68.1367 1101.08 68.1367C1099.03 68.1367 1097.28 67.7135 1095.81 66.8672C1094.38 66.0208 1093.21 64.8652 1092.29 63.4004C1091.38 61.9681 1090.72 60.2917 1090.29 58.3711C1089.87 56.418 1089.66 54.3346 1089.66 52.1211ZM1146.45 25.168H1134.78V78H1147.13V38.4492C1147.29 38.026 1147.47 37.6354 1147.67 37.2773C1147.86 36.9193 1148.09 36.61 1148.35 36.3496C1148.71 35.9915 1149.11 35.7148 1149.57 35.5195C1150.03 35.3242 1150.55 35.2266 1151.13 35.2266C1151.65 35.2266 1152.14 35.3079 1152.6 35.4707C1153.05 35.6009 1153.46 35.8451 1153.82 36.2031C1154.14 36.5612 1154.4 37.0658 1154.6 37.7168C1154.79 38.3678 1154.89 39.1979 1154.89 40.207V78H1166.86V39.0352C1166.86 38.6445 1166.86 38.3353 1166.86 38.1074C1166.86 37.8796 1166.86 37.7331 1166.86 37.668C1167.02 37.3099 1167.21 37.0007 1167.44 36.7402C1167.67 36.4473 1167.93 36.1868 1168.22 35.959C1168.58 35.7311 1168.96 35.5521 1169.35 35.4219C1169.77 35.2917 1170.24 35.2266 1170.76 35.2266C1171.25 35.2266 1171.72 35.3079 1172.18 35.4707C1172.67 35.6009 1173.09 35.8451 1173.45 36.2031C1173.81 36.5938 1174.08 37.1146 1174.28 37.7656C1174.51 38.4167 1174.62 39.2467 1174.62 40.2559V78H1186.97V40.3047C1186.97 37.375 1186.68 34.901 1186.09 32.8828C1185.54 30.832 1184.76 29.1556 1183.75 27.8535C1182.71 26.584 1181.49 25.6562 1180.09 25.0703C1178.72 24.4844 1177.24 24.1914 1175.64 24.1914C1174.38 24.1914 1173.2 24.3542 1172.13 24.6797C1171.05 25.0052 1170.09 25.4609 1169.25 26.0469C1168.56 26.5026 1167.93 27.056 1167.34 27.707C1166.79 28.3255 1166.29 29.0254 1165.83 29.8066C1165.54 28.9928 1165.18 28.2767 1164.76 27.6582C1164.37 27.0072 1163.89 26.4538 1163.34 25.998C1162.62 25.3796 1161.78 24.9238 1160.8 24.6309C1159.82 24.3379 1158.72 24.1914 1157.48 24.1914C1154.94 24.1914 1152.78 24.8587 1150.99 26.1934C1149.23 27.4954 1147.85 29.2858 1146.84 31.5645L1146.45 25.168ZM1283.99 9.93359V3H1273.54V9.88477V29.5137H1282.63L1283.99 9.93359ZM1356.11 24.1914C1352.57 24.1914 1349.29 25.054 1346.3 26.7793C1343.3 28.472 1340.73 30.8158 1338.58 33.8105L1338.49 32.6387L1337.95 25.168H1325.3V78H1338.88V46.2617C1339.5 44.7643 1340.28 43.4622 1341.22 42.3555C1342.16 41.2487 1343.3 40.3372 1344.64 39.6211C1345.75 39.0026 1347 38.5469 1348.4 38.2539C1349.83 37.9284 1351.43 37.7656 1353.18 37.7656C1354.88 37.7656 1356.65 37.8796 1358.51 38.1074C1360.39 38.3027 1362.23 38.612 1364.02 39.0352L1366.03 25.5098C1364.95 25.1842 1363.54 24.8913 1361.78 24.6309C1360.05 24.3379 1358.16 24.1914 1356.11 24.1914ZM1403.87 78.9766C1408.98 78.9766 1413.4 77.9837 1417.15 75.998C1420.89 74.0124 1423.63 71.7988 1425.35 69.3574L1418.56 62.0332C1417 64.0514 1414.97 65.5651 1412.46 66.5742C1409.95 67.5833 1407.37 68.0879 1404.7 68.0879C1402.81 68.0879 1401.07 67.7949 1399.47 67.209C1397.88 66.623 1396.46 65.793 1395.22 64.7188C1394.02 63.6771 1393.06 62.5215 1392.34 61.252C1391.63 59.9499 1391.04 58.2409 1390.59 56.125V55.9785H1426.43V50.2168C1426.43 46.3431 1425.89 42.8112 1424.81 39.6211C1423.74 36.3984 1422.18 33.6478 1420.13 31.3691C1418.04 29.0905 1415.5 27.3327 1412.51 26.0957C1409.55 24.8262 1406.16 24.1914 1402.35 24.1914C1398.68 24.1914 1395.27 24.8587 1392.15 26.1934C1389.02 27.528 1386.32 29.3997 1384.04 31.8086C1381.76 34.2174 1379.99 37.0983 1378.72 40.4512C1377.45 43.7715 1376.82 47.4499 1376.82 51.4863V53.4395C1376.82 56.9876 1377.45 60.3242 1378.72 63.4492C1380.02 66.5417 1381.86 69.2272 1384.24 71.5059C1386.61 73.8171 1389.46 75.64 1392.78 76.9746C1396.1 78.3092 1399.8 78.9766 1403.87 78.9766ZM1402.26 35.1777C1403.98 35.1777 1405.49 35.4544 1406.8 36.0078C1408.13 36.5286 1409.25 37.2448 1410.17 38.1562C1411.08 39.1003 1411.79 40.207 1412.31 41.4766C1412.84 42.7461 1413.1 44.097 1413.1 45.5293V46.6035H1390.83C1391.16 44.8783 1391.64 43.3158 1392.29 41.916C1392.95 40.5163 1393.76 39.3118 1394.74 38.3027C1395.68 37.2936 1396.79 36.5286 1398.06 36.0078C1399.33 35.4544 1400.73 35.1777 1402.26 35.1777ZM1471.3 78H1485.07V77.1699C1484.38 75.8353 1483.86 74.2402 1483.51 72.3848C1483.15 70.5293 1482.97 68.1855 1482.97 65.3535V42.6973C1482.97 39.6374 1482.4 36.9518 1481.26 34.6406C1480.12 32.2969 1478.54 30.36 1476.52 28.8301C1474.51 27.3001 1472.11 26.1445 1469.35 25.3633C1466.61 24.582 1463.65 24.1914 1460.46 24.1914C1456.91 24.1914 1453.75 24.6471 1450.99 25.5586C1448.25 26.4375 1445.94 27.6419 1444.05 29.1719C1442.13 30.7018 1440.67 32.4759 1439.66 34.4941C1438.68 36.5124 1438.19 38.6445 1438.19 40.8906H1451.77C1451.77 39.9466 1451.9 39.084 1452.16 38.3027C1452.45 37.5215 1452.89 36.8542 1453.48 36.3008C1454.13 35.6823 1454.97 35.2103 1456.02 34.8848C1457.06 34.5267 1458.29 34.3477 1459.73 34.3477C1461.35 34.3477 1462.77 34.5592 1463.97 34.9824C1465.21 35.373 1466.24 35.9427 1467.05 36.6914C1467.83 37.4076 1468.42 38.2702 1468.81 39.2793C1469.2 40.2559 1469.39 41.3626 1469.39 42.5996V45.7246H1461.83C1457.92 45.7246 1454.45 46.0827 1451.43 46.7988C1448.43 47.4824 1445.91 48.4915 1443.86 49.8262C1441.58 51.291 1439.87 53.1628 1438.73 55.4414C1437.59 57.6875 1437.02 60.2754 1437.02 63.2051C1437.02 65.4837 1437.48 67.5996 1438.39 69.5527C1439.3 71.4733 1440.57 73.1335 1442.2 74.5332C1443.82 75.9329 1445.76 77.0234 1448.01 77.8047C1450.29 78.5859 1452.78 78.9766 1455.48 78.9766C1457.14 78.9766 1458.68 78.8138 1460.12 78.4883C1461.55 78.1953 1462.87 77.7721 1464.07 77.2188C1465.24 76.6979 1466.32 76.0794 1467.29 75.3633C1468.27 74.6471 1469.13 73.8822 1469.88 73.0684C1470.05 74.0124 1470.24 74.9076 1470.47 75.7539C1470.7 76.6003 1470.97 77.349 1471.3 78ZM1458.36 68.4785C1457.09 68.4785 1455.97 68.332 1454.99 68.0391C1454.05 67.7135 1453.25 67.2904 1452.6 66.7695C1451.95 66.2161 1451.44 65.5488 1451.08 64.7676C1450.76 63.9538 1450.6 63.0749 1450.6 62.1309C1450.6 60.9264 1450.82 59.8197 1451.28 58.8105C1451.74 57.7689 1452.43 56.8737 1453.38 56.125C1454.32 55.4089 1455.54 54.8555 1457.04 54.4648C1458.54 54.0417 1460.35 53.8301 1462.46 53.8301H1469.39V62.9121C1469 63.5957 1468.47 64.2793 1467.78 64.9629C1467.1 65.6139 1466.29 66.1999 1465.34 66.7207C1464.4 67.2415 1463.34 67.6647 1462.17 67.9902C1461 68.3158 1459.73 68.4785 1458.36 68.4785ZM1521.74 68.1367C1519.56 68.1367 1517.75 67.6973 1516.32 66.8184C1514.92 65.9395 1513.81 64.7676 1513 63.3027C1512.15 61.8704 1511.57 60.2103 1511.24 58.3223C1510.91 56.4017 1510.75 54.416 1510.75 52.3652V50.9004C1510.75 48.8822 1510.91 46.929 1511.24 45.041C1511.6 43.153 1512.2 41.4766 1513.05 40.0117C1513.86 38.5469 1514.97 37.375 1516.37 36.4961C1517.77 35.6172 1519.54 35.1777 1521.69 35.1777C1523.15 35.1777 1524.51 35.4382 1525.74 35.959C1526.98 36.4473 1528.04 37.1146 1528.92 37.9609C1529.79 38.8073 1530.46 39.8164 1530.92 40.9883C1531.37 42.1602 1531.57 43.3971 1531.5 44.6992H1544.3C1544.36 41.5742 1543.84 38.7585 1542.73 36.252C1541.63 33.7129 1540.08 31.5482 1538.1 29.7578C1536.08 28 1533.68 26.6328 1530.92 25.6562C1528.15 24.6797 1525.14 24.1914 1521.88 24.1914C1517.82 24.1914 1514.24 24.8913 1511.14 26.291C1508.08 27.6908 1505.51 29.5951 1503.43 32.0039C1501.34 34.4128 1499.78 37.2448 1498.74 40.5C1497.7 43.7227 1497.18 47.1895 1497.18 50.9004V52.3652C1497.18 56.0762 1497.7 59.5592 1498.74 62.8145C1499.81 66.0371 1501.39 68.8529 1503.48 71.2617C1505.53 73.6706 1508.1 75.5749 1511.19 76.9746C1514.28 78.3418 1517.88 79.0254 1521.98 79.0254C1525.01 79.0254 1527.87 78.5534 1530.58 77.6094C1533.31 76.6328 1535.7 75.2982 1537.75 73.6055C1539.8 71.9128 1541.42 69.8945 1542.59 67.5508C1543.79 65.207 1544.36 62.668 1544.3 59.9336H1531.5C1531.57 61.1706 1531.34 62.2936 1530.82 63.3027C1530.33 64.3118 1529.63 65.1745 1528.72 65.8906C1527.81 66.6068 1526.75 67.1602 1525.55 67.5508C1524.34 67.9414 1523.07 68.1367 1521.74 68.1367ZM1583.31 12.2285H1569.74V25.168H1557.68V35.1777H1569.74V59.2012C1569.74 62.6842 1570.19 65.679 1571.1 68.1855C1572.01 70.6595 1573.32 72.694 1575.01 74.2891C1576.67 75.9167 1578.67 77.1211 1581.02 77.9023C1583.39 78.651 1586.03 79.0254 1588.93 79.0254C1590.42 79.0254 1591.94 78.944 1593.47 78.7812C1595.03 78.651 1596.53 78.4557 1597.96 78.1953C1599.39 77.9349 1600.74 77.6094 1602.01 77.2188C1603.28 76.7956 1604.39 76.3073 1605.33 75.7539L1604.01 66.4277C1603.4 66.5905 1602.65 66.7533 1601.77 66.916C1600.92 67.0788 1600.01 67.2253 1599.03 67.3555C1598.02 67.5182 1596.97 67.6484 1595.86 67.7461C1594.79 67.8438 1593.73 67.8926 1592.69 67.8926C1591.25 67.8926 1589.95 67.7298 1588.78 67.4043C1587.64 67.0788 1586.66 66.5254 1585.85 65.7441C1585.04 64.9954 1584.4 63.9863 1583.95 62.7168C1583.52 61.4147 1583.31 59.8034 1583.31 57.8828V35.1777H1603.04V25.168H1583.31V12.2285ZM1666.03 52.1211V41.1348H1625.35V52.1211H1666.03ZM1677.11 51.1934V52.2188C1677.11 56.0599 1677.58 59.6243 1678.53 62.9121C1679.47 66.1673 1680.84 68.9831 1682.63 71.3594C1684.38 73.7357 1686.53 75.6074 1689.07 76.9746C1691.64 78.3092 1694.54 78.9766 1697.76 78.9766C1700.73 78.9766 1703.33 78.4069 1705.58 77.2676C1707.82 76.1283 1709.78 74.5332 1711.44 72.4824L1712.12 78H1724.38V3H1710.75V29.9043C1709.12 28.0814 1707.25 26.6816 1705.14 25.7051C1703.05 24.696 1700.63 24.1914 1697.86 24.1914C1694.57 24.1914 1691.64 24.8424 1689.07 26.1445C1686.53 27.4466 1684.37 29.2858 1682.58 31.6621C1680.79 34.0384 1679.42 36.8867 1678.48 40.207C1677.57 43.5273 1677.11 47.1895 1677.11 51.1934ZM1690.68 52.2188V51.1934C1690.68 48.9798 1690.88 46.9128 1691.27 44.9922C1691.66 43.0391 1692.28 41.3301 1693.12 39.8652C1693.97 38.4329 1695.06 37.3099 1696.4 36.4961C1697.76 35.6497 1699.41 35.2266 1701.33 35.2266C1703.64 35.2266 1705.56 35.7311 1707.09 36.7402C1708.62 37.7168 1709.84 39.1003 1710.75 40.8906V62.2773C1709.84 64.0352 1708.6 65.4186 1707.04 66.4277C1705.51 67.4368 1703.57 67.9414 1701.23 67.9414C1699.31 67.9414 1697.68 67.5345 1696.35 66.7207C1695.01 65.9069 1693.92 64.7839 1693.08 63.3516C1692.23 61.9518 1691.61 60.3079 1691.22 58.4199C1690.86 56.4993 1690.68 54.4323 1690.68 52.2188ZM1736.73 51.0957V52.1211C1736.73 55.9948 1737.28 59.5755 1738.39 62.8633C1739.5 66.1185 1741.12 68.9505 1743.27 71.3594C1745.39 73.7682 1747.99 75.6562 1751.08 77.0234C1754.21 78.3581 1757.76 79.0254 1761.73 79.0254C1765.67 79.0254 1769.18 78.3581 1772.28 77.0234C1775.37 75.6562 1777.97 73.7682 1780.09 71.3594C1782.2 68.9505 1783.82 66.1185 1784.92 62.8633C1786.03 59.5755 1786.58 55.9948 1786.58 52.1211V51.0957C1786.58 47.2546 1786.03 43.7064 1784.92 40.4512C1783.82 37.1634 1782.2 34.3151 1780.09 31.9062C1777.94 29.4974 1775.32 27.6094 1772.23 26.2422C1769.13 24.875 1765.6 24.1914 1761.63 24.1914C1757.66 24.1914 1754.13 24.875 1751.04 26.2422C1747.98 27.6094 1745.39 29.4974 1743.27 31.9062C1741.12 34.3151 1739.5 37.1634 1738.39 40.4512C1737.28 43.7064 1736.73 47.2546 1736.73 51.0957ZM1750.3 52.1211V51.0957C1750.3 48.9473 1750.51 46.9128 1750.94 44.9922C1751.36 43.0716 1752.03 41.3789 1752.94 39.9141C1753.85 38.4492 1755.02 37.2936 1756.46 36.4473C1757.89 35.6009 1759.61 35.1777 1761.63 35.1777C1763.68 35.1777 1765.42 35.6009 1766.86 36.4473C1768.29 37.2936 1769.46 38.4492 1770.37 39.9141C1771.25 41.3789 1771.9 43.0716 1772.32 44.9922C1772.75 46.9128 1772.96 48.9473 1772.96 51.0957V52.1211C1772.96 54.3346 1772.75 56.418 1772.32 58.3711C1771.9 60.2917 1771.25 61.9681 1770.37 63.4004C1769.46 64.8652 1768.29 66.0208 1766.86 66.8672C1765.42 67.7135 1763.71 68.1367 1761.73 68.1367C1759.68 68.1367 1757.92 67.7135 1756.46 66.8672C1755.02 66.0208 1753.85 64.8652 1752.94 63.4004C1752.03 61.9681 1751.36 60.2917 1750.94 58.3711C1750.51 56.418 1750.3 54.3346 1750.3 52.1211ZM1807.09 25.168H1795.42V78H1807.77V38.4492C1807.94 38.026 1808.12 37.6354 1808.31 37.2773C1808.51 36.9193 1808.73 36.61 1808.99 36.3496C1809.35 35.9915 1809.76 35.7148 1810.21 35.5195C1810.67 35.3242 1811.19 35.2266 1811.78 35.2266C1812.3 35.2266 1812.79 35.3079 1813.24 35.4707C1813.7 35.6009 1814.1 35.8451 1814.46 36.2031C1814.79 36.5612 1815.05 37.0658 1815.24 37.7168C1815.44 38.3678 1815.54 39.1979 1815.54 40.207V78H1827.5V39.0352C1827.5 38.6445 1827.5 38.3353 1827.5 38.1074C1827.5 37.8796 1827.5 37.7331 1827.5 37.668C1827.66 37.3099 1827.86 37.0007 1828.09 36.7402C1828.31 36.4473 1828.57 36.1868 1828.87 35.959C1829.23 35.7311 1829.6 35.5521 1829.99 35.4219C1830.41 35.2917 1830.89 35.2266 1831.41 35.2266C1831.89 35.2266 1832.37 35.3079 1832.82 35.4707C1833.31 35.6009 1833.73 35.8451 1834.09 36.2031C1834.45 36.5938 1834.73 37.1146 1834.92 37.7656C1835.15 38.4167 1835.26 39.2467 1835.26 40.2559V78H1847.62V40.3047C1847.62 37.375 1847.32 34.901 1846.74 32.8828C1846.18 30.832 1845.4 29.1556 1844.39 27.8535C1843.35 26.584 1842.13 25.6562 1840.73 25.0703C1839.37 24.4844 1837.88 24.1914 1836.29 24.1914C1835.02 24.1914 1833.85 24.3542 1832.77 24.6797C1831.7 25.0052 1830.74 25.4609 1829.89 26.0469C1829.21 26.5026 1828.57 27.056 1827.99 27.707C1827.43 28.3255 1826.93 29.0254 1826.47 29.8066C1826.18 28.9928 1825.82 28.2767 1825.4 27.6582C1825.01 27.0072 1824.54 26.4538 1823.98 25.998C1823.27 25.3796 1822.42 24.9238 1821.45 24.6309C1820.47 24.3379 1819.36 24.1914 1818.12 24.1914C1815.59 24.1914 1813.42 24.8587 1811.63 26.1934C1809.87 27.4954 1808.49 29.2858 1807.48 31.5645L1807.09 25.168ZM1884.58 9.93359V3H1874.13V9.88477V29.5137H1883.21L1884.58 9.93359ZM1935.07 29.8066C1935.07 32.3132 1935.91 34.4128 1937.61 36.1055C1939.3 37.7982 1941.6 38.6445 1944.49 38.6445C1947.36 38.6445 1949.64 37.8145 1951.33 36.1543C1953.05 34.4616 1953.92 32.3457 1953.92 29.8066C1953.92 27.2676 1953.07 25.1354 1951.38 23.4102C1949.72 21.6849 1947.42 20.8223 1944.49 20.8223C1941.53 20.8223 1939.22 21.7012 1937.56 23.459C1935.9 25.1842 1935.07 27.3001 1935.07 29.8066ZM1950.25 76.9258L1950.3 66.1348H1937.56V77.5605C1937.56 81.1413 1937.14 84.2012 1936.29 86.7402C1935.44 89.3118 1934.4 91.7695 1933.16 94.1133L1940.34 97.8242C1943.27 95.2201 1945.65 92.0137 1947.47 88.2051C1949.33 84.3965 1950.25 80.6367 1950.25 76.9258Z" fill="#000020"/>
</svg>
