<svg width="1552" height="75" viewBox="0 0 1552 75" fill="none" xmlns="http://www.w3.org/2000/svg">
<path d="M39.3105 54.4453C39.3105 55.7148 39.0501 56.8867 38.5293 57.9609C38.0085 59.0026 37.2598 59.8978 36.2832 60.6465C35.3066 61.3952 34.1022 61.9811 32.6699 62.4043C31.2702 62.8275 29.6589 63.0391 27.8359 63.0391C25.7852 63.0391 23.8971 62.8112 22.1719 62.3555C20.4792 61.8997 19.0306 61.1836 17.8262 60.207C16.5892 59.2305 15.6289 57.9772 14.9453 56.4473C14.2617 54.9173 13.8874 53.0781 13.8223 50.9297H0.345703C0.345703 54.6081 1.04557 57.8145 2.44531 60.5488C3.8776 63.2832 5.81445 65.6595 8.25586 67.6777C10.8275 69.7285 13.8385 71.291 17.2891 72.3652C20.7721 73.4069 24.2878 73.9277 27.8359 73.9277C31.4492 73.9277 34.7858 73.5046 37.8457 72.6582C40.9056 71.7793 43.5423 70.4935 45.7559 68.8008C47.9694 67.1406 49.6947 65.1061 50.9316 62.6973C52.2012 60.2559 52.8359 57.4727 52.8359 54.3477C52.8359 50.7344 52.0059 47.5443 50.3457 44.7773C48.6855 42.0104 46.4557 39.5853 43.6562 37.502C41.8008 36.2324 39.7663 35.1094 37.5527 34.1328C35.3392 33.1562 33.0117 32.3262 30.5703 31.6426C28.2917 31.0241 26.2409 30.3568 24.418 29.6406C22.6276 28.9245 21.0977 28.127 19.8281 27.248C18.5586 26.4017 17.582 25.4414 16.8984 24.3672C16.2474 23.293 15.9219 22.0885 15.9219 20.7539C15.9219 19.4844 16.166 18.3125 16.6543 17.2383C17.1751 16.1315 17.9238 15.1712 18.9004 14.3574C19.877 13.5762 21.0651 12.974 22.4648 12.5508C23.8971 12.0951 25.5247 11.8672 27.3477 11.8672C29.3333 11.8672 31.0586 12.1439 32.5234 12.6973C34.0208 13.2181 35.2741 13.9505 36.2832 14.8945C37.2598 15.8711 37.9922 17.0267 38.4805 18.3613C39.0013 19.696 39.2943 21.1608 39.3594 22.7559H52.7383C52.7383 19.5658 52.1198 16.6361 50.8828 13.9668C49.6458 11.2975 47.9206 8.98633 45.707 7.0332C43.4935 5.11263 40.8405 3.61523 37.748 2.54102C34.6882 1.4668 31.3027 0.929688 27.5918 0.929688C24.0111 0.929688 20.6908 1.40169 17.6309 2.3457C14.571 3.25716 11.918 4.57552 9.67188 6.30078C7.42578 8.02604 5.66797 10.1094 4.39844 12.5508C3.12891 14.9922 2.49414 17.7103 2.49414 20.7051C2.49414 23.3092 2.96615 25.7181 3.91016 27.9316C4.88672 30.1452 6.31901 32.1634 8.20703 33.9863C10.0951 35.8092 12.5202 37.4857 15.4824 39.0156C18.4772 40.5456 21.944 41.8477 25.8828 42.9219C28.4219 43.6055 30.5378 44.3542 32.2305 45.168C33.9557 45.9492 35.3555 46.8118 36.4297 47.7559C37.4714 48.7324 38.2038 49.7741 38.627 50.8809C39.0827 51.9876 39.3105 53.1758 39.3105 54.4453ZM106.205 41.8477V31.0078H77.0059V13.0879H110.99V1.90625H63.2363V73H111.137V61.916H77.0059V41.8477H106.205ZM137.211 61.916V1.90625H123.441V73H170.512V61.916H137.211ZM226.322 41.8477V31.0078H197.123V13.0879H231.107V1.90625H183.354V73H231.254V61.916H197.123V41.8477H226.322ZM291.996 50.7344H278.275C278.145 52.8828 277.787 54.722 277.201 56.252C276.615 57.7819 275.818 59.0352 274.809 60.0117C273.799 60.9883 272.579 61.7044 271.146 62.1602C269.714 62.6159 268.103 62.8438 266.312 62.8438C264.978 62.8438 263.757 62.6973 262.65 62.4043C261.576 62.0788 260.6 61.5905 259.721 60.9395C258.907 60.3535 258.174 59.6211 257.523 58.7422C256.905 57.8633 256.368 56.8542 255.912 55.7148C255.261 54.0547 254.773 52.1178 254.447 49.9043C254.154 47.6582 254.008 45.1191 254.008 42.2871V32.6191C254.008 30.5358 254.105 28.599 254.301 26.8086C254.496 24.9857 254.805 23.3255 255.229 21.8281C255.782 19.9076 256.514 18.2311 257.426 16.7988C258.37 15.334 259.509 14.2109 260.844 13.4297C261.625 12.974 262.471 12.6322 263.383 12.4043C264.327 12.1764 265.336 12.0625 266.41 12.0625C268.428 12.0625 270.154 12.3392 271.586 12.8926C273.051 13.4134 274.271 14.1947 275.248 15.2363C276.192 16.3105 276.908 17.6452 277.396 19.2402C277.917 20.8353 278.243 22.6908 278.373 24.8066H292.045C291.719 21.0957 290.938 17.7591 289.701 14.7969C288.464 11.8346 286.771 9.32812 284.623 7.27734C282.475 5.22656 279.87 3.64779 276.811 2.54102C273.783 1.43424 270.316 0.880859 266.41 0.880859C263.773 0.880859 261.299 1.22266 258.988 1.90625C256.71 2.55729 254.61 3.5013 252.689 4.73828C250.541 6.20312 248.62 7.99349 246.928 10.1094C245.235 12.2253 243.868 14.6341 242.826 17.3359C241.915 19.5495 241.231 21.9583 240.775 24.5625C240.32 27.1341 240.092 29.8522 240.092 32.7168V42.2871C240.092 45.347 240.336 48.2441 240.824 50.9785C241.345 53.7129 242.077 56.2194 243.021 58.498C243.998 60.7767 245.186 62.86 246.586 64.748C248.018 66.6361 249.646 68.2474 251.469 69.582C253.454 71.0143 255.684 72.1211 258.158 72.9023C260.665 73.651 263.383 74.0254 266.312 74.0254C270.023 74.0254 273.409 73.4883 276.469 72.4141C279.529 71.3073 282.165 69.7448 284.379 67.7266C286.592 65.7083 288.35 63.2669 289.652 60.4023C290.987 57.5378 291.768 54.3151 291.996 50.7344ZM354.936 13.0879V1.90625H297.611V13.0879H319.242V73H333.012V13.0879H354.936ZM443.07 29.543L429.496 45.5098L438.236 51.5156L448.539 33.8887L458.842 52.0527L467.533 45.7539L454.447 29.9824L473.881 25.5391L470.658 15.334L452.494 23.293L454.398 1.90625H443.705L445.463 22.9512L427.152 14.8457L423.93 24.8555L443.07 29.543ZM588.041 43.5566V32.4238H557.572V13.0879H591.85V1.90625H543.803V73H557.572V43.5566H588.041ZM627.104 46.4375L640.482 73H655.18V72.3652L639.896 43.0195C641.85 42.1406 643.607 41.099 645.17 39.8945C646.765 38.6901 648.132 37.2741 649.271 35.6465C650.378 34.0514 651.225 32.2448 651.811 30.2266C652.429 28.1758 652.738 25.8809 652.738 23.3418C652.738 19.8262 652.12 16.7337 650.883 14.0645C649.678 11.3952 647.953 9.16536 645.707 7.375C643.428 5.58464 640.694 4.23372 637.504 3.32227C634.314 2.37826 630.749 1.90625 626.811 1.90625H602.982V73H616.703V46.4375H627.104ZM616.703 35.3047V13.0391H626.811C628.699 13.0391 630.375 13.2669 631.84 13.7227C633.305 14.1784 634.542 14.8294 635.551 15.6758C636.69 16.6198 637.536 17.8242 638.09 19.2891C638.676 20.7214 638.969 22.3815 638.969 24.2695C638.969 25.832 638.741 27.248 638.285 28.5176C637.862 29.7871 637.227 30.8776 636.381 31.7891C635.372 32.9284 634.053 33.8073 632.426 34.4258C630.831 35.0117 628.975 35.3047 626.859 35.3047H616.703ZM712.65 42.6777V32.3262C712.65 29.1035 712.341 26.0599 711.723 23.1953C711.137 20.3307 710.274 17.694 709.135 15.2852C708.093 13.1693 706.84 11.2324 705.375 9.47461C703.943 7.7168 702.266 6.2194 700.346 4.98242C698.425 3.68034 696.26 2.6875 693.852 2.00391C691.475 1.28776 688.92 0.929688 686.186 0.929688C683.484 0.929688 680.977 1.27148 678.666 1.95508C676.355 2.63867 674.271 3.61523 672.416 4.88477C670.528 6.18685 668.852 7.74935 667.387 9.57227C665.954 11.3952 664.734 13.4297 663.725 15.6758C662.683 18.0521 661.885 20.64 661.332 23.4395C660.811 26.2389 660.551 29.2012 660.551 32.3262V42.6777C660.551 45.6074 660.779 48.3906 661.234 51.0273C661.723 53.6641 662.423 56.1055 663.334 58.3516C664.343 60.793 665.596 62.9902 667.094 64.9434C668.591 66.8639 670.284 68.5078 672.172 69.875C674.092 71.1771 676.225 72.1862 678.568 72.9023C680.912 73.6185 683.467 73.9766 686.234 73.9766C688.839 73.9766 691.264 73.651 693.51 73C695.788 72.3815 697.872 71.5026 699.76 70.3633C701.843 69.0612 703.699 67.4336 705.326 65.4805C706.954 63.5273 708.321 61.3789 709.428 59.0352C710.469 56.6914 711.267 54.1523 711.82 51.418C712.374 48.651 712.65 45.7376 712.65 42.6777ZM698.734 32.2285V42.6777C698.734 44.4355 698.637 46.1283 698.441 47.7559C698.279 49.3835 698.018 50.8809 697.66 52.248C697.204 54.0059 696.586 55.5846 695.805 56.9844C695.056 58.3516 694.128 59.4909 693.021 60.4023C692.143 61.151 691.133 61.7207 689.994 62.1113C688.855 62.502 687.602 62.6973 686.234 62.6973C684.802 62.6973 683.516 62.4857 682.377 62.0625C681.27 61.6393 680.277 61.0371 679.398 60.2559C678.454 59.377 677.624 58.2376 676.908 56.8379C676.225 55.4056 675.704 53.8268 675.346 52.1016C675.02 50.7344 674.792 49.2533 674.662 47.6582C674.532 46.0632 674.467 44.403 674.467 42.6777V32.2285C674.467 30.4056 674.532 28.6641 674.662 27.0039C674.825 25.3438 675.069 23.8138 675.395 22.4141C675.818 20.5911 676.404 18.9961 677.152 17.6289C677.934 16.2617 678.878 15.1224 679.984 14.2109C680.798 13.5924 681.71 13.1204 682.719 12.7949C683.76 12.4694 684.916 12.3066 686.186 12.3066C687.52 12.3066 688.725 12.4857 689.799 12.8438C690.906 13.2018 691.898 13.7064 692.777 14.3574C693.884 15.2363 694.844 16.3757 695.658 17.7754C696.472 19.1426 697.123 20.7051 697.611 22.4629C698.002 23.8626 698.279 25.3926 698.441 27.0527C698.637 28.6803 698.734 30.4056 698.734 32.2285ZM739.945 1.90625H722.904V73H735.502V51.9551L734.916 20.0215L743.266 49.5625H750.053L759.379 18.7031L758.793 51.9551V73H771.391V1.90625H754.35L746.684 28.6152L739.945 1.90625ZM878.178 73H890.482V20.168H876.859V57.2285C876.436 58.0749 875.932 58.8398 875.346 59.5234C874.76 60.207 874.092 60.793 873.344 61.2812C872.465 61.8346 871.439 62.2578 870.268 62.5508C869.128 62.8438 867.842 62.9902 866.41 62.9902C864.815 62.9902 863.464 62.7949 862.357 62.4043C861.251 62.0137 860.355 61.3626 859.672 60.4512C858.988 59.5723 858.484 58.4004 858.158 56.9355C857.865 55.4707 857.719 53.6641 857.719 51.5156V20.168H844.145V51.418C844.145 55.4219 844.584 58.8561 845.463 61.7207C846.374 64.5527 847.644 66.8802 849.271 68.7031C850.899 70.5586 852.852 71.9095 855.131 72.7559C857.41 73.6022 859.916 74.0254 862.65 74.0254C865.645 74.0254 868.396 73.2767 870.902 71.7793C873.441 70.2819 875.606 68.2148 877.396 65.5781L878.178 73ZM937.846 58.498C937.846 59.3118 937.634 60.0605 937.211 60.7441C936.82 61.4277 936.218 62.0299 935.404 62.5508C934.558 63.0716 933.467 63.4948 932.133 63.8203C930.831 64.1133 929.301 64.2598 927.543 64.2598C926.078 64.2598 924.646 64.1133 923.246 63.8203C921.879 63.5273 920.658 63.0553 919.584 62.4043C918.51 61.7858 917.631 60.972 916.947 59.9629C916.264 58.9212 915.873 57.6842 915.775 56.252H902.836C902.836 58.4004 903.357 60.5488 904.398 62.6973C905.473 64.8132 907.035 66.7012 909.086 68.3613C911.137 70.054 913.676 71.4212 916.703 72.4629C919.763 73.5046 923.279 74.0254 927.25 74.0254C930.863 74.0254 934.135 73.6348 937.064 72.8535C939.994 72.0397 942.501 70.9167 944.584 69.4844C946.635 68.0521 948.214 66.3594 949.32 64.4062C950.46 62.4206 951.029 60.2559 951.029 57.9121C951.029 55.373 950.46 53.1921 949.32 51.3691C948.214 49.5137 946.667 47.9349 944.682 46.6328C942.696 45.3633 940.336 44.3216 937.602 43.5078C934.867 42.694 931.905 42.0267 928.715 41.5059C926.501 41.1803 924.678 40.806 923.246 40.3828C921.814 39.9271 920.691 39.4225 919.877 38.8691C919.031 38.3483 918.445 37.7624 918.119 37.1113C917.794 36.4277 917.631 35.6953 917.631 34.9141C917.631 34.1328 917.81 33.4004 918.168 32.7168C918.559 32.0007 919.112 31.3822 919.828 30.8613C920.609 30.2754 921.618 29.8197 922.855 29.4941C924.092 29.1686 925.541 29.0059 927.201 29.0059C929.154 29.0059 930.814 29.25 932.182 29.7383C933.581 30.2266 934.688 30.8776 935.502 31.6914C936.088 32.3099 936.527 33.0098 936.82 33.791C937.113 34.5397 937.26 35.3535 937.26 36.2324H950.834C950.834 33.791 950.297 31.5286 949.223 29.4453C948.148 27.362 946.602 25.5553 944.584 24.0254C942.533 22.528 940.043 21.3561 937.113 20.5098C934.184 19.6309 930.88 19.1914 927.201 19.1914C923.686 19.1914 920.528 19.6309 917.729 20.5098C914.929 21.3887 912.553 22.5768 910.6 24.0742C908.646 25.5716 907.149 27.3132 906.107 29.2988C905.066 31.2845 904.545 33.3678 904.545 35.5488C904.545 37.7949 905.049 39.7806 906.059 41.5059C907.1 43.2311 908.533 44.7448 910.355 46.0469C912.178 47.3815 914.359 48.5208 916.898 49.4648C919.47 50.3763 922.302 51.1413 925.395 51.7598C927.836 52.2155 929.854 52.6712 931.449 53.127C933.044 53.5827 934.33 54.071 935.307 54.5918C936.251 55.1452 936.902 55.7311 937.26 56.3496C937.65 56.9681 937.846 57.6842 937.846 58.498ZM989.457 73.9766C994.568 73.9766 998.995 72.9837 1002.74 70.998C1006.48 69.0124 1009.22 66.7988 1010.94 64.3574L1004.15 57.0332C1002.59 59.0514 1000.56 60.5651 998.051 61.5742C995.544 62.5833 992.956 63.0879 990.287 63.0879C988.399 63.0879 986.658 62.7949 985.062 62.209C983.467 61.623 982.051 60.793 980.814 59.7188C979.61 58.6771 978.65 57.5215 977.934 56.252C977.217 54.9499 976.632 53.2409 976.176 51.125V50.9785H1012.02V45.2168C1012.02 41.3431 1011.48 37.8112 1010.4 34.6211C1009.33 31.3984 1007.77 28.6478 1005.72 26.3691C1003.63 24.0905 1001.09 22.3327 998.1 21.0957C995.137 19.8262 991.752 19.1914 987.943 19.1914C984.265 19.1914 980.863 19.8587 977.738 21.1934C974.613 22.528 971.911 24.3997 969.633 26.8086C967.354 29.2174 965.58 32.0983 964.311 35.4512C963.041 38.7715 962.406 42.4499 962.406 46.4863V48.4395C962.406 51.9876 963.041 55.3242 964.311 58.4492C965.613 61.5417 967.452 64.2272 969.828 66.5059C972.204 68.8171 975.053 70.64 978.373 71.9746C981.693 73.3092 985.388 73.9766 989.457 73.9766ZM987.846 30.1777C989.571 30.1777 991.085 30.4544 992.387 31.0078C993.721 31.5286 994.844 32.2448 995.756 33.1562C996.667 34.1003 997.383 35.207 997.904 36.4766C998.425 37.7461 998.686 39.097 998.686 40.5293V41.6035H976.42C976.745 39.8783 977.234 38.3158 977.885 36.916C978.536 35.5163 979.35 34.3118 980.326 33.3027C981.27 32.2936 982.377 31.5286 983.646 31.0078C984.916 30.4544 986.316 30.1777 987.846 30.1777ZM1061.82 19.1914C1058.27 19.1914 1055 20.054 1052.01 21.7793C1049.01 23.472 1046.44 25.8158 1044.29 28.8105L1044.19 27.6387L1043.66 20.168H1031.01V73H1044.58V41.2617C1045.2 39.7643 1045.98 38.4622 1046.93 37.3555C1047.87 36.2487 1049.01 35.3372 1050.35 34.6211C1051.45 34.0026 1052.71 33.5469 1054.11 33.2539C1055.54 32.9284 1057.13 32.7656 1058.89 32.7656C1060.58 32.7656 1062.36 32.8796 1064.21 33.1074C1066.1 33.3027 1067.94 33.612 1069.73 34.0352L1071.73 20.5098C1070.66 20.1842 1069.24 19.8913 1067.48 19.6309C1065.76 19.3379 1063.87 19.1914 1061.82 19.1914ZM1118.41 58.1562L1122.56 73H1137.02L1114.16 1.90625H1101.71L1078.42 73H1092.88L1097.07 58.1562H1118.41ZM1100.44 46.4863L1107.91 20.3145L1115.19 46.4863H1100.44ZM1167.39 63.1367C1165.21 63.1367 1163.4 62.6973 1161.97 61.8184C1160.57 60.9395 1159.46 59.7676 1158.65 58.3027C1157.8 56.8704 1157.21 55.2103 1156.89 53.3223C1156.56 51.4017 1156.4 49.416 1156.4 47.3652V45.9004C1156.4 43.8822 1156.56 41.929 1156.89 40.041C1157.25 38.153 1157.85 36.4766 1158.7 35.0117C1159.51 33.5469 1160.62 32.375 1162.02 31.4961C1163.42 30.6172 1165.19 30.1777 1167.34 30.1777C1168.8 30.1777 1170.15 30.4382 1171.39 30.959C1172.63 31.4473 1173.69 32.1146 1174.56 32.9609C1175.44 33.8073 1176.11 34.8164 1176.57 35.9883C1177.02 37.1602 1177.22 38.3971 1177.15 39.6992H1189.95C1190.01 36.5742 1189.49 33.7585 1188.38 31.252C1187.28 28.7129 1185.73 26.5482 1183.74 24.7578C1181.73 23 1179.33 21.6328 1176.57 20.6562C1173.8 19.6797 1170.79 19.1914 1167.53 19.1914C1163.46 19.1914 1159.88 19.8913 1156.79 21.291C1153.73 22.6908 1151.16 24.5951 1149.08 27.0039C1146.99 29.4128 1145.43 32.2448 1144.39 35.5C1143.35 38.7227 1142.83 42.1895 1142.83 45.9004V47.3652C1142.83 51.0762 1143.35 54.5592 1144.39 57.8145C1145.46 61.0371 1147.04 63.8529 1149.12 66.2617C1151.18 68.6706 1153.75 70.5749 1156.84 71.9746C1159.93 73.3418 1163.53 74.0254 1167.63 74.0254C1170.66 74.0254 1173.52 73.5534 1176.22 72.6094C1178.96 71.6328 1181.35 70.2982 1183.4 68.6055C1185.45 66.9128 1187.06 64.8945 1188.24 62.5508C1189.44 60.207 1190.01 57.668 1189.95 54.9336H1177.15C1177.22 56.1706 1176.99 57.2936 1176.47 58.3027C1175.98 59.3118 1175.28 60.1745 1174.37 60.8906C1173.46 61.6068 1172.4 62.1602 1171.2 62.5508C1169.99 62.9414 1168.72 63.1367 1167.39 63.1367ZM1227.45 63.1367C1225.26 63.1367 1223.46 62.6973 1222.03 61.8184C1220.63 60.9395 1219.52 59.7676 1218.71 58.3027C1217.86 56.8704 1217.27 55.2103 1216.95 53.3223C1216.62 51.4017 1216.46 49.416 1216.46 47.3652V45.9004C1216.46 43.8822 1216.62 41.929 1216.95 40.041C1217.31 38.153 1217.91 36.4766 1218.75 35.0117C1219.57 33.5469 1220.67 32.375 1222.07 31.4961C1223.47 30.6172 1225.25 30.1777 1227.4 30.1777C1228.86 30.1777 1230.21 30.4382 1231.45 30.959C1232.69 31.4473 1233.74 32.1146 1234.62 32.9609C1235.5 33.8073 1236.17 34.8164 1236.62 35.9883C1237.08 37.1602 1237.28 38.3971 1237.21 39.6992H1250C1250.07 36.5742 1249.55 33.7585 1248.44 31.252C1247.33 28.7129 1245.79 26.5482 1243.8 24.7578C1241.78 23 1239.39 21.6328 1236.62 20.6562C1233.86 19.6797 1230.85 19.1914 1227.59 19.1914C1223.52 19.1914 1219.94 19.8913 1216.85 21.291C1213.79 22.6908 1211.22 24.5951 1209.13 27.0039C1207.05 29.4128 1205.49 32.2448 1204.45 35.5C1203.41 38.7227 1202.88 42.1895 1202.88 45.9004V47.3652C1202.88 51.0762 1203.41 54.5592 1204.45 57.8145C1205.52 61.0371 1207.1 63.8529 1209.18 66.2617C1211.23 68.6706 1213.81 70.5749 1216.9 71.9746C1219.99 73.3418 1223.59 74.0254 1227.69 74.0254C1230.72 74.0254 1233.58 73.5534 1236.28 72.6094C1239.02 71.6328 1241.41 70.2982 1243.46 68.6055C1245.51 66.9128 1247.12 64.8945 1248.29 62.5508C1249.5 60.207 1250.07 57.668 1250 54.9336H1237.21C1237.28 56.1706 1237.05 57.2936 1236.53 58.3027C1236.04 59.3118 1235.34 60.1745 1234.43 60.8906C1233.52 61.6068 1232.46 62.1602 1231.25 62.5508C1230.05 62.9414 1228.78 63.1367 1227.45 63.1367ZM1262.26 46.0957V47.1211C1262.26 50.9948 1262.81 54.5755 1263.92 57.8633C1265.03 61.1185 1266.65 63.9505 1268.8 66.3594C1270.92 68.7682 1273.52 70.6562 1276.62 72.0234C1279.74 73.3581 1283.29 74.0254 1287.26 74.0254C1291.2 74.0254 1294.71 73.3581 1297.81 72.0234C1300.9 70.6562 1303.5 68.7682 1305.62 66.3594C1307.74 63.9505 1309.35 61.1185 1310.45 57.8633C1311.56 54.5755 1312.11 50.9948 1312.11 47.1211V46.0957C1312.11 42.2546 1311.56 38.7064 1310.45 35.4512C1309.35 32.1634 1307.74 29.3151 1305.62 26.9062C1303.47 24.4974 1300.85 22.6094 1297.76 21.2422C1294.67 19.875 1291.13 19.1914 1287.16 19.1914C1283.19 19.1914 1279.66 19.875 1276.57 21.2422C1273.51 22.6094 1270.92 24.4974 1268.8 26.9062C1266.65 29.3151 1265.03 32.1634 1263.92 35.4512C1262.81 38.7064 1262.26 42.2546 1262.26 46.0957ZM1275.83 47.1211V46.0957C1275.83 43.9473 1276.05 41.9128 1276.47 39.9922C1276.89 38.0716 1277.56 36.3789 1278.47 34.9141C1279.38 33.4492 1280.55 32.2936 1281.99 31.4473C1283.42 30.6009 1285.14 30.1777 1287.16 30.1777C1289.21 30.1777 1290.95 30.6009 1292.39 31.4473C1293.82 32.2936 1294.99 33.4492 1295.9 34.9141C1296.78 36.3789 1297.43 38.0716 1297.86 39.9922C1298.28 41.9128 1298.49 43.9473 1298.49 46.0957V47.1211C1298.49 49.3346 1298.28 51.418 1297.86 53.3711C1297.43 55.2917 1296.78 56.9681 1295.9 58.4004C1294.99 59.8652 1293.82 61.0208 1292.39 61.8672C1290.95 62.7135 1289.25 63.1367 1287.26 63.1367C1285.21 63.1367 1283.45 62.7135 1281.99 61.8672C1280.55 61.0208 1279.38 59.8652 1278.47 58.4004C1277.56 56.9681 1276.89 55.2917 1276.47 53.3711C1276.05 51.418 1275.83 49.3346 1275.83 47.1211ZM1358.65 73H1370.95V20.168H1357.33V57.2285C1356.9 58.0749 1356.4 58.8398 1355.81 59.5234C1355.23 60.207 1354.56 60.793 1353.81 61.2812C1352.93 61.8346 1351.91 62.2578 1350.74 62.5508C1349.6 62.8438 1348.31 62.9902 1346.88 62.9902C1345.28 62.9902 1343.93 62.7949 1342.83 62.4043C1341.72 62.0137 1340.82 61.3626 1340.14 60.4512C1339.46 59.5723 1338.95 58.4004 1338.63 56.9355C1338.33 55.4707 1338.19 53.6641 1338.19 51.5156V20.168H1324.61V51.418C1324.61 55.4219 1325.05 58.8561 1325.93 61.7207C1326.84 64.5527 1328.11 66.8802 1329.74 68.7031C1331.37 70.5586 1333.32 71.9095 1335.6 72.7559C1337.88 73.6022 1340.38 74.0254 1343.12 74.0254C1346.11 74.0254 1348.86 73.2767 1351.37 71.7793C1353.91 70.2819 1356.07 68.2148 1357.87 65.5781L1358.65 73ZM1384.23 73H1397.86V35.4512C1398.31 34.735 1398.82 34.084 1399.37 33.498C1399.92 32.9121 1400.54 32.4076 1401.22 31.9844C1402.07 31.3984 1403.03 30.959 1404.11 30.666C1405.21 30.373 1406.42 30.2266 1407.72 30.2266C1409.28 30.2266 1410.68 30.3893 1411.92 30.7148C1413.15 31.0078 1414.21 31.5449 1415.09 32.3262C1415.97 33.1074 1416.64 34.1816 1417.09 35.5488C1417.58 36.8835 1417.83 38.5924 1417.83 40.6758V73H1431.4V40.4805C1431.4 36.6393 1430.94 33.3841 1430.03 30.7148C1429.15 28.013 1427.92 25.7995 1426.32 24.0742C1424.69 22.3815 1422.77 21.1445 1420.56 20.3633C1418.35 19.582 1415.91 19.1914 1413.24 19.1914C1411.15 19.1914 1409.18 19.4844 1407.33 20.0703C1405.47 20.6562 1403.76 21.5026 1402.2 22.6094C1401.29 23.2604 1400.43 23.9928 1399.61 24.8066C1398.8 25.6204 1398.05 26.5156 1397.37 27.4922L1396.54 20.168H1384.23V73ZM1469.19 7.22852H1455.62V20.168H1443.56V30.1777H1455.62V54.2012C1455.62 57.6842 1456.07 60.679 1456.99 63.1855C1457.9 65.6595 1459.2 67.694 1460.89 69.2891C1462.55 70.9167 1464.55 72.1211 1466.9 72.9023C1469.27 73.651 1471.91 74.0254 1474.81 74.0254C1476.31 74.0254 1477.82 73.944 1479.35 73.7812C1480.91 73.651 1482.41 73.4557 1483.84 73.1953C1485.27 72.9349 1486.62 72.6094 1487.89 72.2188C1489.16 71.7956 1490.27 71.3073 1491.21 70.7539L1489.9 61.4277C1489.28 61.5905 1488.53 61.7533 1487.65 61.916C1486.8 62.0788 1485.89 62.2253 1484.92 62.3555C1483.91 62.5182 1482.85 62.6484 1481.74 62.7461C1480.67 62.8438 1479.61 62.8926 1478.57 62.8926C1477.14 62.8926 1475.83 62.7298 1474.66 62.4043C1473.52 62.0788 1472.55 61.5254 1471.73 60.7441C1470.92 59.9954 1470.28 58.9863 1469.83 57.7168C1469.4 56.4147 1469.19 54.8034 1469.19 52.8828V30.1777H1488.92V20.168H1469.19V7.22852ZM1538.43 58.498C1538.43 59.3118 1538.22 60.0605 1537.8 60.7441C1537.41 61.4277 1536.8 62.0299 1535.99 62.5508C1535.14 63.0716 1534.05 63.4948 1532.72 63.8203C1531.42 64.1133 1529.89 64.2598 1528.13 64.2598C1526.66 64.2598 1525.23 64.1133 1523.83 63.8203C1522.46 63.5273 1521.24 63.0553 1520.17 62.4043C1519.1 61.7858 1518.22 60.972 1517.53 59.9629C1516.85 58.9212 1516.46 57.6842 1516.36 56.252H1503.42C1503.42 58.4004 1503.94 60.5488 1504.98 62.6973C1506.06 64.8132 1507.62 66.7012 1509.67 68.3613C1511.72 70.054 1514.26 71.4212 1517.29 72.4629C1520.35 73.5046 1523.86 74.0254 1527.84 74.0254C1531.45 74.0254 1534.72 73.6348 1537.65 72.8535C1540.58 72.0397 1543.09 70.9167 1545.17 69.4844C1547.22 68.0521 1548.8 66.3594 1549.91 64.4062C1551.05 62.4206 1551.62 60.2559 1551.62 57.9121C1551.62 55.373 1551.05 53.1921 1549.91 51.3691C1548.8 49.5137 1547.25 47.9349 1545.27 46.6328C1543.28 45.3633 1540.92 44.3216 1538.19 43.5078C1535.45 42.694 1532.49 42.0267 1529.3 41.5059C1527.09 41.1803 1525.26 40.806 1523.83 40.3828C1522.4 39.9271 1521.28 39.4225 1520.46 38.8691C1519.62 38.3483 1519.03 37.7624 1518.71 37.1113C1518.38 36.4277 1518.22 35.6953 1518.22 34.9141C1518.22 34.1328 1518.4 33.4004 1518.75 32.7168C1519.14 32.0007 1519.7 31.3822 1520.41 30.8613C1521.2 30.2754 1522.2 29.8197 1523.44 29.4941C1524.68 29.1686 1526.13 29.0059 1527.79 29.0059C1529.74 29.0059 1531.4 29.25 1532.77 29.7383C1534.17 30.2266 1535.27 30.8776 1536.09 31.6914C1536.67 32.3099 1537.11 33.0098 1537.41 33.791C1537.7 34.5397 1537.85 35.3535 1537.85 36.2324H1551.42C1551.42 33.791 1550.88 31.5286 1549.81 29.4453C1548.73 27.362 1547.19 25.5553 1545.17 24.0254C1543.12 22.528 1540.63 21.3561 1537.7 20.5098C1534.77 19.6309 1531.47 19.1914 1527.79 19.1914C1524.27 19.1914 1521.11 19.6309 1518.31 20.5098C1515.51 21.3887 1513.14 22.5768 1511.19 24.0742C1509.23 25.5716 1507.74 27.3132 1506.69 29.2988C1505.65 31.2845 1505.13 33.3678 1505.13 35.5488C1505.13 37.7949 1505.64 39.7806 1506.64 41.5059C1507.69 43.2311 1509.12 44.7448 1510.94 46.0469C1512.76 47.3815 1514.95 48.5208 1517.48 49.4648C1520.06 50.3763 1522.89 51.1413 1525.98 51.7598C1528.42 52.2155 1530.44 52.6712 1532.04 53.127C1533.63 53.5827 1534.92 54.071 1535.89 54.5918C1536.84 55.1452 1537.49 55.7311 1537.85 56.3496C1538.24 56.9681 1538.43 57.6842 1538.43 58.498Z" fill="#000020"/>
</svg>
